<?xml version="1.0" encoding="UTF-8"?>
<svg id="Camada_2" data-name="Camada 2" xmlns="http://www.w3.org/2000/svg" viewBox="0 0 94.1 94.1">
  <defs>
    <style>
      .cls-1 {
        fill: #fff;
      }

      .cls-2 {
        fill: #029383;
      }

      .cls-3 {
        fill: #027b74;
      }
    </style>
  </defs>
  <g id="_1" data-name="1">
    <g>
      <rect class="cls-2" width="94.1" height="94.1" rx="12.55" ry="12.55"/>
      <path class="cls-3" d="M81.55,94.1h-49.17c-.38-.24-17.15-17.23-17.58-17.51l18.3-18.3h.02s1.39-.7,2.61-1.92c1.53-1.51,2.1-3.38,2.05-4.36v-.07c.6-1.73,2.99-4.35,4.88-6.25,8.88-8.88,20.13-16.28,30.01-28.49,0,0,0,0,0,0,1.64-1.64,4.88-1.18,5.83-.03.37.3,15.22,15.18,15.56,15.52.01.01.02.03.04.05v48.8c0,6.93-5.62,12.55-12.55,12.55Z"/>
      <path class="cls-1" d="M29.39,73.12c-.96.95-1.89,1.78-2.79,2.45-6.09,4.56-11.53,1.2-11.59,1.16l-.22-.14,18.3-18.3h.02s1.39-.7,2.61-1.92c.26-.26.5-.54.71-.81,1.38-1.8,1.33-3.54,1.33-3.55v-.07c.6-1.73,2.99-4.35,4.88-6.25.45-.45.9-.88,1.31-1.28,5.02-4.76,16.66-14.39,20.91-18.64,3.02-3.02,5.57-5.83,7.79-8.57,0,0,0,0,0,0,1.68-1.68,4.8-1.1,5.73-.17.92.93,1.51,4.05-.16,5.72-2.76,2.23-5.57,4.79-8.59,7.81-4.25,4.25-13.89,15.87-18.65,20.9-.39.41-.82.86-1.28,1.31-1.89,1.89-4.51,4.28-6.25,4.87h-.03s-.03.01-.03.01c-.02,0-1.75-.05-3.55,1.33-.27.21-.55.45-.81.71-1.02,1.02-1.86,2.68-1.86,2.68-.04.07-2.95,5.9-7.8,10.75ZM43.92,51.53c.19.19.49.19.67,0l27.74-27.74c.19-.19.19-.49,0-.67-.19-.19-.49-.19-.67,0l-27.74,27.74c-.19.19-.19.49,0,.67ZM45.72,47.15c.19.19.49.19.67,0l21.55-21.55c.19-.19.19-.49,0-.67s-.49-.19-.68,0l-21.55,21.55c-.19.19-.19.49,0,.67ZM48.97,49.72l21.55-21.55c.19-.19.19-.49,0-.67-.19-.19-.49-.19-.68,0l-21.55,21.55c-.19.19-.19.49,0,.67.19.19.49.19.67,0Z"/>
    </g>
  </g>
</svg>