<svg width="52" height="31" viewBox="0 0 52 31" fill="none" xmlns="http://www.w3.org/2000/svg">
<path d="M0 11.8727C0.314928 11.2952 0.580554 10.9339 1.26374 10.7719C4.26109 10.5144 7.78063 11.0949 10.7156 10.7659C12.3818 10.5788 12.7098 8.25051 10.9933 7.87219C8.43464 7.59751 5.36082 8.15593 2.86554 7.85006C1.62998 7.69913 1.05446 6.19794 1.90969 5.27932C1.98213 5.20084 2.62306 4.82957 2.66733 4.82957H4.83057C4.98854 3.71172 4.45729 1.28084 5.23002 0.449753C5.30246 0.371273 5.94339 0 5.98766 0H33.7074V9.40759C33.7074 9.78189 34.5425 10.5355 34.9711 10.5586C38.8277 10.7981 43.0244 10.2628 46.8408 10.5617C48.5563 10.6965 50.4317 11.6896 51.131 13.3145L51.5154 14.4897V24.7525C50.799 26.4922 48.8501 25.6359 47.3841 25.9036C46.1858 31.3439 38.6677 32.177 36.4049 27.0345C36.2922 26.7779 36.1181 25.9267 35.9571 25.8724L20.9734 25.8543L20.6746 25.9579C19.281 32.0059 10.7639 31.9295 9.36433 25.9046C8.2646 25.6561 6.12751 26.2477 5.28033 25.4609C5.20185 25.3884 4.83057 24.7475 4.83057 24.7032V19.8234H1.15708C1.11684 19.8234 0.512135 19.4803 0.45076 19.4229C0.234435 19.2227 0.221355 18.9047 0 18.7166V17.9117C0.318953 17.313 0.633881 16.9166 1.3563 16.8029L15.3379 16.7988C17.0353 16.3944 17.0353 14.1979 15.3379 13.7924L1.3563 13.7884C0.633881 13.6747 0.319959 13.2773 0 12.6796V11.8747L0 11.8727ZM14.6658 21.9604C11.1191 22.4233 11.7127 27.8666 15.4345 27.4561C18.8816 27.0768 18.4137 21.4704 14.6658 21.9604ZM41.329 21.9604C37.7823 22.4233 38.3759 27.8666 42.0977 27.4561C45.5448 27.0768 45.077 21.4704 41.329 21.9604Z" fill="#029383"/>
<path d="M44.9754 7.5466H36.7249V0.302246C39.694 0.912985 41.7355 2.59227 43.447 5.00001C44.0044 5.78481 44.5659 6.67828 44.9754 7.5466Z" fill="#029383"/>
</svg>
