<svg width="95" height="57" viewBox="0 0 95 57" fill="none" xmlns="http://www.w3.org/2000/svg">
<path d="M0.514709 21.9492C1.0923 20.89 1.57947 20.2275 2.83244 19.9304C8.32969 19.458 14.7847 20.5228 20.1675 19.9194C23.2233 19.5761 23.8249 15.306 20.6768 14.6122C15.9841 14.1084 10.3466 15.1326 5.77021 14.5716C3.50415 14.2948 2.44862 11.5416 4.01715 9.85677C4.15001 9.71283 5.32549 9.0319 5.40668 9.0319H9.37414C9.66386 6.98174 8.68952 2.52342 10.1067 0.999179C10.2396 0.855243 11.4151 0.174316 11.4963 0.174316H62.3351V17.4282C62.3351 18.1146 63.8668 19.4968 64.6529 19.5392C71.726 19.9784 79.4229 18.9967 86.4222 19.5448C89.5685 19.792 93.0082 21.6134 94.2907 24.5936L94.9956 26.7489V45.5713C93.6818 48.7619 90.1074 47.1915 87.4187 47.6824C85.2209 57.6601 71.4326 59.188 67.2825 49.7565C67.0758 49.286 66.7565 47.7248 66.4613 47.6252L38.9806 47.5919L38.4326 47.782C35.8768 58.8743 20.2561 58.734 17.6892 47.6842C15.6723 47.2284 11.7528 48.3135 10.199 46.8704C10.0551 46.7376 9.37414 45.5621 9.37414 45.4809V36.531H2.63684C2.56303 36.531 1.45398 35.9018 1.34142 35.7966C0.944672 35.4294 0.920682 34.8462 0.514709 34.5012V33.0249C1.09968 31.9269 1.67727 31.1999 3.00222 30.9913L28.6449 30.984C31.758 30.2421 31.758 26.2138 28.6449 25.4701L3.00222 25.4627C1.67727 25.2542 1.10152 24.5253 0.514709 23.4292V21.9529L0.514709 21.9492ZM27.4122 40.4505C20.9075 41.2994 21.9962 51.2826 28.8221 50.5297C35.1442 49.834 34.2861 39.5518 27.4122 40.4505ZM76.3135 40.4505C69.8087 41.2994 70.8975 51.2826 77.7234 50.5297C84.0454 49.834 83.1874 39.5518 76.3135 40.4505Z" fill="white"/>
<path d="M83.001 14.0144H67.8693V0.728027C73.3149 1.84814 77.0591 4.928 80.198 9.34388C81.2203 10.7832 82.25 12.4219 83.001 14.0144Z" fill="white"/>
</svg>
