<?xml version="1.0" encoding="UTF-8"?>
<svg id="Camada_2" data-name="Camada 2" xmlns="http://www.w3.org/2000/svg" viewBox="0 0 94.1 94.11">
  <defs>
    <style>
      .cls-1 {
        fill: #fff;
      }

      .cls-2 {
        fill: #029383;
      }

      .cls-3 {
        fill: #027b74;
      }
    </style>
  </defs>
  <g id="_1" data-name="1">
    <g>
      <rect class="cls-2" width="94.1" height="94.11" rx="12.55" ry="12.55"/>
      <path class="cls-3" d="M94.1,48.13s-21.19-21.19-21.19-21.19c-4.14-4.06-10.14-5.12-16-3.72-6.03,1.44-8.92,5.43-9.69,6.67,0,0-2.31-2.31-2.33-2.32-1.57-1.59-4.1-3.46-7.83-4.35-7.68-1.84-15.63.55-19.28,8.43-2.02,4.38-1.6,8.47-.68,12.76.02.07.06.21.06.21l2.67,2.63h-1.75c1.24,2.97,3.17,5.9,5.88,8.56.07.07,38.3,38.3,38.3,38.3h19.26c6.93,0,12.55-5.62,12.55-12.55v-33.42Z"/>
      <g>
        <path class="cls-1" d="M26.54,43.34l2.99-5.99,4.59,12.36,8.63-20.24,8.43,27.66,7.8-20.8,3.38,11.2.09-.18c1-2.02,4.55-2.74,7.28-2.74h7.1c.02-.07.04-.15.06-.22.58-2.69,1.94-7.08-.68-12.75-3.65-7.88-11.59-10.26-19.28-8.43-7.18,1.72-9.92,7.06-9.92,7.06,0,0-2.74-5.34-9.92-7.06-7.68-1.84-15.63.55-19.28,8.43-2.02,4.38-1.6,8.47-.68,12.76.02.07.04.14.06.21h4.43c3.05,0,4.73-.9,4.92-1.27Z"/>
        <path class="cls-1" d="M64.8,48.52l-2.62,5.3-3.04-10.41-8.42,21.89-8.46-27.84-8.04,18.83-4.8-12.82-.53,1.06c-1.01,2.01-4.55,2.73-7.27,2.73h-3.51c1.63,3.91,4.46,7.76,8.7,10.99,9.08,6.92,18.13,8.37,20.2,13.23,2.06-4.86,11.11-6.31,20.19-13.23,4.25-3.24,7.25-7.06,8.81-10.99h-6.28c-3.02,0-4.74.91-4.92,1.27Z"/>
      </g>
    </g>
  </g>
</svg>