<svg width="873" height="92" viewBox="0 0 873 92" fill="none" xmlns="http://www.w3.org/2000/svg">
<path d="M38.5147 41.9492C39.0923 40.89 39.5795 40.2275 40.8324 39.9304C46.3297 39.458 52.7847 40.5228 58.1675 39.9194C61.2233 39.5761 61.8249 35.306 58.6768 34.6122C53.9841 34.1084 48.3466 35.1326 43.7702 34.5716C41.5041 34.2948 40.4486 31.5416 42.0171 29.8568C42.15 29.7128 43.3255 29.0319 43.4067 29.0319H47.3741C47.6639 26.9817 46.6895 22.5234 48.1067 20.9992C48.2396 20.8552 49.4151 20.1743 49.4963 20.1743H100.335V37.4282C100.335 38.1146 101.867 39.4968 102.653 39.5392C109.726 39.9784 117.423 38.9967 124.422 39.5448C127.569 39.792 131.008 41.6134 132.291 44.5936L132.996 46.7489V65.5713C131.682 68.7619 128.107 67.1915 125.419 67.6824C123.221 77.6601 109.433 79.188 105.282 69.7565C105.076 69.286 104.757 67.7248 104.461 67.6252L76.9806 67.5919L76.4326 67.782C73.8768 78.8743 58.2561 78.734 55.6892 67.6842C53.6723 67.2284 49.7528 68.3135 48.199 66.8704C48.0551 66.7376 47.3741 65.5621 47.3741 65.4809V56.531H40.6368C40.563 56.531 39.454 55.9018 39.3414 55.7966C38.9447 55.4294 38.9207 54.8462 38.5147 54.5012V53.0249C39.0997 51.9269 39.6773 51.1999 41.0022 50.9913L66.6449 50.984C69.758 50.2421 69.758 46.2138 66.6449 45.4701L41.0022 45.4627C39.6773 45.2542 39.1015 44.5253 38.5147 43.4292V41.9529V41.9492ZM65.4122 60.4505C58.9075 61.2994 59.9962 71.2826 66.8221 70.5297C73.1442 69.834 72.2861 59.5518 65.4122 60.4505ZM114.314 60.4505C107.809 61.2994 108.897 71.2826 115.723 70.5297C122.045 69.834 121.187 59.5518 114.314 60.4505Z" fill="white"/>
<path d="M121.001 34.0144H105.869V20.728C111.315 21.8481 115.059 24.928 118.198 29.3439C119.22 30.7832 120.25 32.4219 121.001 34.0144Z" fill="white"/>
<rect x="1" y="1" width="871" height="89.7017" rx="37" stroke="white" stroke-width="2"/>
<rect x="788.635" y="12.978" width="67.4839" height="67.4839" rx="24" fill="white"/>
<path d="M195.432 39.5959C195.261 38.1565 194.57 37.0391 193.358 36.2436C192.146 35.4482 190.659 35.0504 188.898 35.0504C187.61 35.0504 186.483 35.2588 185.517 35.6754C184.561 36.0921 183.813 36.665 183.273 37.3942C182.742 38.1233 182.477 38.9519 182.477 39.88C182.477 40.6565 182.662 41.3241 183.031 41.8828C183.41 42.4321 183.893 42.8913 184.48 43.2607C185.067 43.6205 185.683 43.9188 186.327 44.1555C186.971 44.3828 187.562 44.5675 188.102 44.7095L191.057 45.505C191.814 45.7038 192.657 45.9785 193.585 46.3288C194.523 46.6792 195.418 47.1574 196.27 47.7635C197.132 48.3601 197.842 49.1271 198.401 50.0646C198.959 51.0021 199.239 52.1527 199.239 53.5163C199.239 55.0883 198.827 56.5088 198.003 57.7777C197.188 59.0466 195.995 60.0552 194.423 60.8033C192.861 61.5514 190.962 61.9254 188.727 61.9254C186.644 61.9254 184.84 61.5893 183.315 60.9169C181.8 60.2446 180.607 59.3071 179.736 58.1044C178.874 56.9018 178.386 55.505 178.273 53.9141H181.909C182.004 55.0125 182.373 55.9216 183.017 56.6413C183.67 57.3516 184.494 57.8819 185.489 58.2322C186.492 58.5732 187.572 58.7436 188.727 58.7436C190.072 58.7436 191.279 58.5258 192.349 58.0902C193.42 57.6451 194.267 57.0296 194.892 56.2436C195.517 55.4482 195.83 54.5201 195.83 53.4595C195.83 52.4936 195.56 51.7076 195.02 51.1016C194.48 50.4955 193.77 50.0031 192.889 49.6243C192.009 49.2455 191.057 48.9141 190.034 48.63L186.455 47.6072C184.182 46.9538 182.383 46.0211 181.057 44.8089C179.731 43.5968 179.068 42.0107 179.068 40.0504C179.068 38.4216 179.509 37.0012 180.389 35.7891C181.279 34.5675 182.473 33.6205 183.969 32.9482C185.474 32.2663 187.155 31.9254 189.011 31.9254C190.886 31.9254 192.553 32.2616 194.011 32.9339C195.47 33.5968 196.625 34.5059 197.477 35.6612C198.339 36.8165 198.794 38.1281 198.841 39.5959H195.432ZM213.724 61.8686C211.621 61.8686 209.808 61.4046 208.283 60.4766C206.768 59.5391 205.599 58.2322 204.775 56.5561C203.96 54.8705 203.553 52.9103 203.553 50.6754C203.553 48.4406 203.96 46.4709 204.775 44.7663C205.599 43.0523 206.745 41.7171 208.212 40.7607C209.69 39.7947 211.413 39.3118 213.383 39.3118C214.519 39.3118 215.641 39.5012 216.749 39.88C217.857 40.2588 218.866 40.8743 219.775 41.7266C220.684 42.5694 221.408 43.6868 221.948 45.0788C222.488 46.4709 222.758 48.1849 222.758 50.2209V51.6413H205.94V48.7436H219.349C219.349 47.5125 219.103 46.4141 218.61 45.4482C218.127 44.4822 217.436 43.7199 216.536 43.1612C215.646 42.6025 214.595 42.3232 213.383 42.3232C212.048 42.3232 210.892 42.6546 209.917 43.3175C208.951 43.9709 208.208 44.8232 207.687 45.8743C207.166 46.9254 206.906 48.0523 206.906 49.255V51.1868C206.906 52.8345 207.19 54.2313 207.758 55.3771C208.335 56.5135 209.136 57.38 210.158 57.9766C211.181 58.5637 212.37 58.8572 213.724 58.8572C214.604 58.8572 215.4 58.7341 216.11 58.4879C216.83 58.2322 217.45 57.8535 217.971 57.3516C218.492 56.8402 218.894 56.2057 219.178 55.4482L222.417 56.3572C222.076 57.4557 221.503 58.4216 220.698 59.255C219.893 60.0788 218.899 60.7228 217.715 61.1868C216.531 61.6413 215.201 61.8686 213.724 61.8686ZM227.857 39.5959H231.21V63.005C231.21 64.3497 230.978 65.5144 230.513 66.4993C230.059 67.4841 229.368 68.2464 228.44 68.7862C227.521 69.326 226.361 69.5959 224.96 69.5959C224.846 69.5959 224.732 69.5959 224.619 69.5959C224.505 69.5959 224.391 69.5959 224.278 69.5959V66.4709C224.391 66.4709 224.496 66.4709 224.59 66.4709C224.685 66.4709 224.789 66.4709 224.903 66.4709C225.925 66.4709 226.674 66.1679 227.147 65.5618C227.621 64.9652 227.857 64.1129 227.857 63.005V39.5959ZM229.505 35.9595C228.852 35.9595 228.288 35.737 227.815 35.2919C227.351 34.8468 227.119 34.3118 227.119 33.6868C227.119 33.0618 227.351 32.5268 227.815 32.0817C228.288 31.6366 228.852 31.4141 229.505 31.4141C230.158 31.4141 230.717 31.6366 231.181 32.0817C231.655 32.5268 231.891 33.0618 231.891 33.6868C231.891 34.3118 231.655 34.8468 231.181 35.2919C230.717 35.737 230.158 35.9595 229.505 35.9595ZM243.77 61.9254C242.387 61.9254 241.133 61.665 240.006 61.1442C238.879 60.6139 237.984 59.8516 237.321 58.8572C236.658 57.8535 236.327 56.6413 236.327 55.2209C236.327 53.9709 236.573 52.9576 237.065 52.1811C237.558 51.3951 238.216 50.7796 239.04 50.3345C239.864 49.8894 240.773 49.558 241.767 49.3402C242.771 49.1129 243.779 48.933 244.793 48.8004C246.118 48.63 247.193 48.5021 248.017 48.4169C248.85 48.3222 249.456 48.166 249.835 47.9482C250.223 47.7304 250.418 47.3516 250.418 46.8118V46.6982C250.418 45.2966 250.034 44.2076 249.267 43.4311C248.509 42.6546 247.359 42.2663 245.815 42.2663C244.215 42.2663 242.96 42.6167 242.051 43.3175C241.142 44.0182 240.503 44.7663 240.134 45.5618L236.952 44.4254C237.52 43.0997 238.277 42.0675 239.224 41.3288C240.181 40.5807 241.223 40.0599 242.349 39.7663C243.486 39.4633 244.603 39.3118 245.702 39.3118C246.402 39.3118 247.207 39.397 248.116 39.5675C249.035 39.7285 249.92 40.0646 250.773 40.576C251.634 41.0874 252.349 41.8591 252.918 42.8913C253.486 43.9235 253.77 45.3061 253.77 47.0391V61.4141H250.418V58.4595H250.247C250.02 58.933 249.641 59.4396 249.111 59.9794C248.58 60.5192 247.875 60.9785 246.994 61.3572C246.114 61.736 245.039 61.9254 243.77 61.9254ZM244.281 58.9141C245.607 58.9141 246.724 58.6536 247.634 58.1328C248.552 57.612 249.243 56.9396 249.707 56.1158C250.181 55.2919 250.418 54.4254 250.418 53.5163V50.4482C250.276 50.6186 249.963 50.7749 249.48 50.9169C249.007 51.0495 248.457 51.1678 247.832 51.272C247.217 51.3667 246.616 51.4519 246.028 51.5277C245.451 51.594 244.982 51.6508 244.622 51.6982C243.751 51.8118 242.937 51.9964 242.179 52.2521C241.431 52.4983 240.825 52.8724 240.361 53.3743C239.906 53.8667 239.679 54.5391 239.679 55.3913C239.679 56.5561 240.11 57.4368 240.972 58.0334C241.843 58.6205 242.946 58.9141 244.281 58.9141ZM284.888 52.4936V39.5959H288.241V61.4141H284.888V57.7209H284.661C284.15 58.8288 283.354 59.7711 282.275 60.5476C281.195 61.3146 279.832 61.6982 278.184 61.6982C276.82 61.6982 275.608 61.3999 274.548 60.8033C273.487 60.1972 272.654 59.2881 272.048 58.076C271.442 56.8544 271.138 55.3156 271.138 53.4595V39.5959H274.491V53.2322C274.491 54.8232 274.936 56.0921 275.826 57.0391C276.726 57.986 277.871 58.4595 279.263 58.4595C280.097 58.4595 280.944 58.2464 281.806 57.8203C282.677 57.3942 283.406 56.7408 283.994 55.8601C284.59 54.9794 284.888 53.8572 284.888 52.4936ZM294.381 61.4141V39.5959H297.619V43.005H297.903C298.358 41.8402 299.092 40.9358 300.105 40.2919C301.118 39.6385 302.335 39.3118 303.756 39.3118C305.195 39.3118 306.393 39.6385 307.349 40.2919C308.315 40.9358 309.068 41.8402 309.608 43.005H309.835C310.394 41.8781 311.232 40.9832 312.349 40.3203C313.467 39.648 314.807 39.3118 316.369 39.3118C318.32 39.3118 319.916 39.9226 321.156 41.1442C322.397 42.3563 323.017 44.2455 323.017 46.8118V61.4141H319.665V46.8118C319.665 45.2019 319.224 44.0514 318.344 43.3601C317.463 42.6688 316.426 42.3232 315.233 42.3232C313.699 42.3232 312.51 42.7872 311.668 43.7152C310.825 44.6338 310.403 45.7985 310.403 47.2095V61.4141H306.994V46.4709C306.994 45.2304 306.592 44.2313 305.787 43.4737C304.982 42.7067 303.945 42.3232 302.676 42.3232C301.805 42.3232 300.991 42.5552 300.233 43.0192C299.485 43.4832 298.879 44.1271 298.415 44.951C297.96 45.7654 297.733 46.7076 297.733 47.7777V61.4141H294.381ZM347.783 61.7692C346.125 61.7692 344.625 61.343 343.28 60.4908C341.945 59.629 340.884 58.3648 340.098 56.6982C339.321 55.022 338.933 52.9671 338.933 50.5334C338.933 48.0334 339.336 45.9548 340.141 44.2976C340.946 42.6309 342.016 41.3857 343.351 40.5618C344.696 39.7285 346.168 39.3118 347.768 39.3118C348.99 39.3118 350.008 39.5201 350.822 39.9368C351.646 40.344 352.309 40.8554 352.811 41.4709C353.322 42.0769 353.711 42.6735 353.976 43.2607H354.161V32.3232H360.197V61.4141H354.232V57.9197H353.976C353.692 58.5258 353.289 59.1271 352.768 59.7237C352.257 60.3108 351.589 60.7985 350.766 61.1868C349.951 61.575 348.957 61.7692 347.783 61.7692ZM349.7 56.9538C350.676 56.9538 351.5 56.6887 352.172 56.1584C352.854 55.6186 353.375 54.8658 353.734 53.8999C354.104 52.9339 354.288 51.8023 354.288 50.505C354.288 49.2076 354.108 48.0807 353.749 47.1243C353.389 46.1678 352.868 45.4292 352.186 44.9084C351.504 44.3875 350.676 44.1271 349.7 44.1271C348.706 44.1271 347.868 44.397 347.186 44.9368C346.504 45.4766 345.988 46.2247 345.638 47.1811C345.287 48.1375 345.112 49.2455 345.112 50.505C345.112 51.7739 345.287 52.8961 345.638 53.8714C345.998 54.8374 346.514 55.5949 347.186 56.1442C347.868 56.6839 348.706 56.9538 349.7 56.9538ZM365.173 61.4141V39.5959H371.224V61.4141H365.173ZM368.212 36.7834C367.313 36.7834 366.541 36.4851 365.897 35.8885C365.263 35.2824 364.945 34.558 364.945 33.7152C364.945 32.8819 365.263 32.1669 365.897 31.5703C366.541 30.9643 367.313 30.6612 368.212 30.6612C369.112 30.6612 369.879 30.9643 370.513 31.5703C371.157 32.1669 371.479 32.8819 371.479 33.7152C371.479 34.558 371.157 35.2824 370.513 35.8885C369.879 36.4851 369.112 36.7834 368.212 36.7834ZM394.224 45.8175L388.685 46.1584C388.59 45.6849 388.386 45.2588 388.074 44.88C387.761 44.4917 387.349 44.1839 386.838 43.9567C386.336 43.7199 385.735 43.6016 385.034 43.6016C384.097 43.6016 383.306 43.8004 382.662 44.1982C382.018 44.5864 381.696 45.1072 381.696 45.7607C381.696 46.2815 381.904 46.7218 382.321 47.0817C382.738 47.4415 383.453 47.7304 384.466 47.9482L388.415 48.7436C390.536 49.1792 392.117 49.88 393.159 50.8459C394.201 51.8118 394.722 53.0807 394.722 54.6527C394.722 56.0826 394.3 57.3374 393.457 58.4169C392.624 59.4964 391.478 60.3393 390.02 60.9453C388.571 61.5419 386.9 61.8402 385.006 61.8402C382.117 61.8402 379.816 61.2389 378.102 60.0362C376.398 58.8241 375.399 57.1764 375.105 55.093L381.057 54.7805C381.237 55.6612 381.672 56.3336 382.364 56.7976C383.055 57.2521 383.94 57.4794 385.02 57.4794C386.08 57.4794 386.933 57.2758 387.577 56.8686C388.23 56.4519 388.562 55.9169 388.571 55.2635C388.562 54.7143 388.33 54.2644 387.875 53.9141C387.42 53.5542 386.72 53.2796 385.773 53.0902L381.994 52.3374C379.864 51.9112 378.277 51.1726 377.236 50.1214C376.204 49.0703 375.688 47.7304 375.688 46.1016C375.688 44.7 376.066 43.4927 376.824 42.4794C377.591 41.4661 378.666 40.6849 380.048 40.1357C381.44 39.5864 383.069 39.3118 384.935 39.3118C387.69 39.3118 389.859 39.8942 391.44 41.0589C393.031 42.2237 393.959 43.8099 394.224 45.8175ZM410.137 39.5959V44.1413H396.998V39.5959H410.137ZM399.981 34.3686H406.032V54.7095C406.032 55.2682 406.117 55.7038 406.288 56.0163C406.458 56.3194 406.695 56.5324 406.998 56.6555C407.31 56.7786 407.67 56.8402 408.077 56.8402C408.362 56.8402 408.646 56.8165 408.93 56.7692C409.214 56.7124 409.432 56.6697 409.583 56.6413L410.535 61.1442C410.232 61.2389 409.806 61.3478 409.256 61.4709C408.707 61.6035 408.04 61.6839 407.254 61.7124C405.795 61.7692 404.517 61.575 403.418 61.13C402.329 60.6849 401.482 59.9936 400.876 59.0561C400.27 58.1186 399.971 56.9349 399.981 55.505V34.3686ZM414.079 61.4141V39.5959H419.945V43.4027H420.173C420.57 42.0485 421.238 41.0258 422.175 40.3345C423.113 39.6338 424.192 39.2834 425.414 39.2834C425.717 39.2834 426.044 39.3023 426.394 39.3402C426.745 39.3781 427.052 39.4302 427.317 39.4964V44.8658C427.033 44.7805 426.64 44.7048 426.138 44.6385C425.637 44.5722 425.177 44.5391 424.761 44.5391C423.871 44.5391 423.075 44.7332 422.374 45.1214C421.683 45.5002 421.134 46.0305 420.727 46.7124C420.329 47.3942 420.13 48.1802 420.13 49.0703V61.4141H414.079ZM430.446 61.4141V39.5959H436.497V61.4141H430.446ZM433.486 36.7834C432.586 36.7834 431.814 36.4851 431.17 35.8885C430.536 35.2824 430.219 34.558 430.219 33.7152C430.219 32.8819 430.536 32.1669 431.17 31.5703C431.814 30.9643 432.586 30.6612 433.486 30.6612C434.385 30.6612 435.152 30.9643 435.787 31.5703C436.431 32.1669 436.753 32.8819 436.753 33.7152C436.753 34.558 436.431 35.2824 435.787 35.8885C435.152 36.4851 434.385 36.7834 433.486 36.7834ZM441.458 61.4141V32.3232H447.509V43.2607H447.694C447.959 42.6735 448.343 42.0769 448.844 41.4709C449.356 40.8554 450.019 40.344 450.833 39.9368C451.657 39.5201 452.68 39.3118 453.901 39.3118C455.492 39.3118 456.96 39.7285 458.305 40.5618C459.649 41.3857 460.724 42.6309 461.529 44.2976C462.334 45.9548 462.737 48.0334 462.737 50.5334C462.737 52.9671 462.344 55.022 461.558 56.6982C460.781 58.3648 459.72 59.629 458.376 60.4908C457.04 61.343 455.544 61.7692 453.887 61.7692C452.713 61.7692 451.714 61.575 450.89 61.1868C450.076 60.7985 449.408 60.3108 448.887 59.7237C448.366 59.1271 447.969 58.5258 447.694 57.9197H447.424V61.4141H441.458ZM447.381 50.505C447.381 51.8023 447.561 52.9339 447.921 53.8999C448.281 54.8658 448.802 55.6186 449.484 56.1584C450.165 56.6887 450.994 56.9538 451.969 56.9538C452.954 56.9538 453.788 56.6839 454.469 56.1442C455.151 55.5949 455.667 54.8374 456.018 53.8714C456.378 52.8961 456.558 51.7739 456.558 50.505C456.558 49.2455 456.382 48.1375 456.032 47.1811C455.682 46.2247 455.165 45.4766 454.484 44.9368C453.802 44.397 452.964 44.1271 451.969 44.1271C450.985 44.1271 450.151 44.3875 449.469 44.9084C448.797 45.4292 448.281 46.1678 447.921 47.1243C447.561 48.0807 447.381 49.2076 447.381 50.505ZM480.766 52.1243V39.5959H486.817V61.4141H481.007V57.451H480.78C480.287 58.7294 479.468 59.7569 478.322 60.5334C477.186 61.3099 475.799 61.6982 474.161 61.6982C472.702 61.6982 471.419 61.3667 470.311 60.7038C469.203 60.041 468.337 59.0987 467.712 57.8771C467.096 56.6555 466.784 55.1925 466.774 53.4879V39.5959H472.825V52.4084C472.835 53.6963 473.18 54.7143 473.862 55.4624C474.544 56.2105 475.458 56.5845 476.604 56.5845C477.333 56.5845 478.015 56.4188 478.649 56.0874C479.284 55.7464 479.795 55.2446 480.183 54.5817C480.581 53.9188 480.775 53.0997 480.766 52.1243ZM491.657 61.4141V39.5959H497.708V61.4141H491.657ZM494.697 36.7834C493.797 36.7834 493.025 36.4851 492.381 35.8885C491.747 35.2824 491.43 34.558 491.43 33.7152C491.43 32.8819 491.747 32.1669 492.381 31.5703C493.025 30.9643 493.797 30.6612 494.697 30.6612C495.596 30.6612 496.363 30.9643 496.998 31.5703C497.642 32.1669 497.964 32.8819 497.964 33.7152C497.964 34.558 497.642 35.2824 496.998 35.8885C496.363 36.4851 495.596 36.7834 494.697 36.7834ZM510.595 61.7692C508.938 61.7692 507.437 61.343 506.092 60.4908C504.757 59.629 503.696 58.3648 502.911 56.6982C502.134 55.022 501.746 52.9671 501.746 50.5334C501.746 48.0334 502.148 45.9548 502.953 44.2976C503.758 42.6309 504.828 41.3857 506.163 40.5618C507.508 39.7285 508.981 39.3118 510.581 39.3118C511.803 39.3118 512.821 39.5201 513.635 39.9368C514.459 40.344 515.122 40.8554 515.624 41.4709C516.135 42.0769 516.523 42.6735 516.788 43.2607H516.973V32.3232H523.01V61.4141H517.044V57.9197H516.788C516.504 58.5258 516.102 59.1271 515.581 59.7237C515.07 60.3108 514.402 60.7985 513.578 61.1868C512.764 61.575 511.769 61.7692 510.595 61.7692ZM512.513 56.9538C513.488 56.9538 514.312 56.6887 514.984 56.1584C515.666 55.6186 516.187 54.8658 516.547 53.8999C516.916 52.9339 517.101 51.8023 517.101 50.505C517.101 49.2076 516.921 48.0807 516.561 47.1243C516.201 46.1678 515.68 45.4292 514.999 44.9084C514.317 44.3875 513.488 44.1271 512.513 44.1271C511.518 44.1271 510.68 44.397 509.999 44.9368C509.317 45.4766 508.801 46.2247 508.45 47.1811C508.1 48.1375 507.925 49.2455 507.925 50.505C507.925 51.7739 508.1 52.8961 508.45 53.8714C508.81 54.8374 509.326 55.5949 509.999 56.1442C510.68 56.6839 511.518 56.9538 512.513 56.9538ZM537.843 61.8402C535.637 61.8402 533.728 61.3714 532.119 60.4339C530.518 59.487 529.282 58.1707 528.411 56.4851C527.54 54.79 527.104 52.825 527.104 50.5902C527.104 48.3364 527.54 46.3667 528.411 44.6811C529.282 42.986 530.518 41.6697 532.119 40.7322C533.728 39.7853 535.637 39.3118 537.843 39.3118C540.049 39.3118 541.953 39.7853 543.553 40.7322C545.163 41.6697 546.404 42.986 547.275 44.6811C548.146 46.3667 548.582 48.3364 548.582 50.5902C548.582 52.825 548.146 54.79 547.275 56.4851C546.404 58.1707 545.163 59.487 543.553 60.4339C541.953 61.3714 540.049 61.8402 537.843 61.8402ZM537.871 57.1527C538.875 57.1527 539.713 56.8686 540.386 56.3004C541.058 55.7228 541.565 54.9368 541.906 53.9425C542.256 52.9482 542.431 51.8165 542.431 50.5476C542.431 49.2786 542.256 48.147 541.906 47.1527C541.565 46.1584 541.058 45.3724 540.386 44.7947C539.713 44.2171 538.875 43.9283 537.871 43.9283C536.858 43.9283 536.006 44.2171 535.315 44.7947C534.633 45.3724 534.117 46.1584 533.766 47.1527C533.425 48.147 533.255 49.2786 533.255 50.5476C533.255 51.8165 533.425 52.9482 533.766 53.9425C534.117 54.9368 534.633 55.7228 535.315 56.3004C536.006 56.8686 536.858 57.1527 537.871 57.1527ZM552.516 61.4141V39.5959H558.383V43.4027H558.61C559.008 42.0485 559.675 41.0258 560.613 40.3345C561.55 39.6338 562.63 39.2834 563.852 39.2834C564.155 39.2834 564.481 39.3023 564.832 39.3402C565.182 39.3781 565.49 39.4302 565.755 39.4964V44.8658C565.471 44.7805 565.078 44.7048 564.576 44.6385C564.074 44.5722 563.615 44.5391 563.198 44.5391C562.308 44.5391 561.513 44.7332 560.812 45.1214C560.121 45.5002 559.571 46.0305 559.164 46.7124C558.766 47.3942 558.567 48.1802 558.567 49.0703V61.4141H552.516ZM581.241 61.4141V32.3232H584.764V58.2891H598.287V61.4141H581.241ZM609.707 61.9254C608.325 61.9254 607.07 61.665 605.943 61.1442C604.816 60.6139 603.921 59.8516 603.259 58.8572C602.596 57.8535 602.264 56.6413 602.264 55.2209C602.264 53.9709 602.51 52.9576 603.003 52.1811C603.495 51.3951 604.153 50.7796 604.977 50.3345C605.801 49.8894 606.71 49.558 607.705 49.3402C608.708 49.1129 609.717 48.933 610.73 48.8004C612.056 48.63 613.131 48.5021 613.955 48.4169C614.788 48.3222 615.394 48.166 615.773 47.9482C616.161 47.7304 616.355 47.3516 616.355 46.8118V46.6982C616.355 45.2966 615.972 44.2076 615.205 43.4311C614.447 42.6546 613.296 42.2663 611.753 42.2663C610.152 42.2663 608.898 42.6167 607.989 43.3175C607.08 44.0182 606.44 44.7663 606.071 45.5618L602.889 44.4254C603.457 43.0997 604.215 42.0675 605.162 41.3288C606.118 40.5807 607.16 40.0599 608.287 39.7663C609.423 39.4633 610.541 39.3118 611.639 39.3118C612.34 39.3118 613.145 39.397 614.054 39.5675C614.973 39.7285 615.858 40.0646 616.71 40.576C617.572 41.0874 618.287 41.8591 618.855 42.8913C619.423 43.9235 619.707 45.3061 619.707 47.0391V61.4141H616.355V58.4595H616.185C615.957 58.933 615.579 59.4396 615.048 59.9794C614.518 60.5192 613.813 60.9785 612.932 61.3572C612.051 61.736 610.976 61.9254 609.707 61.9254ZM610.219 58.9141C611.545 58.9141 612.662 58.6536 613.571 58.1328C614.49 57.612 615.181 56.9396 615.645 56.1158C616.118 55.2919 616.355 54.4254 616.355 53.5163V50.4482C616.213 50.6186 615.901 50.7749 615.418 50.9169C614.944 51.0495 614.395 51.1678 613.77 51.272C613.154 51.3667 612.553 51.4519 611.966 51.5277C611.388 51.594 610.92 51.6508 610.56 51.6982C609.688 51.8118 608.874 51.9964 608.116 52.2521C607.368 52.4983 606.762 52.8724 606.298 53.3743C605.844 53.8667 605.616 54.5391 605.616 55.3913C605.616 56.5561 606.047 57.4368 606.909 58.0334C607.78 58.6205 608.884 58.9141 610.219 58.9141ZM625.826 69.5959V39.5959H629.065V43.0618H629.462C629.709 42.683 630.049 42.2 630.485 41.6129C630.93 41.0163 631.565 40.486 632.388 40.022C633.222 39.5485 634.349 39.3118 635.769 39.3118C637.606 39.3118 639.226 39.7711 640.627 40.6896C642.029 41.6082 643.122 42.9103 643.908 44.5959C644.694 46.2815 645.087 48.2701 645.087 50.5618C645.087 52.8724 644.694 54.8752 643.908 56.5703C643.122 58.2559 642.033 59.5627 640.641 60.4908C639.249 61.4093 637.644 61.8686 635.826 61.8686C634.424 61.8686 633.302 61.6366 632.46 61.1726C631.617 60.6991 630.968 60.1641 630.513 59.5675C630.059 58.9614 629.709 58.4595 629.462 58.0618H629.178V69.5959H625.826ZM629.121 50.505C629.121 52.1527 629.363 53.6063 629.846 54.8658C630.329 56.1158 631.034 57.0959 631.962 57.8061C632.89 58.5069 634.027 58.8572 635.371 58.8572C636.773 58.8572 637.942 58.4879 638.88 57.7493C639.827 57.0012 640.537 55.9974 641.011 54.7379C641.494 53.469 641.735 52.058 641.735 50.505C641.735 48.9709 641.498 47.5883 641.025 46.3572C640.561 45.1167 639.855 44.1366 638.908 43.4169C637.971 42.6877 636.792 42.3232 635.371 42.3232C634.008 42.3232 632.862 42.6688 631.934 43.3601C631.006 44.0419 630.305 44.9983 629.832 46.2294C629.358 47.451 629.121 48.8762 629.121 50.505ZM659.69 39.5959V42.4368H648.383V39.5959H659.69ZM651.678 34.3686H655.031V55.1641C655.031 56.111 655.168 56.8213 655.442 57.2947C655.727 57.7588 656.086 58.0713 656.522 58.2322C656.967 58.3838 657.436 58.4595 657.928 58.4595C658.298 58.4595 658.601 58.4406 658.837 58.4027C659.074 58.3554 659.263 58.3175 659.406 58.2891L660.087 61.3004C659.86 61.3857 659.543 61.4709 659.136 61.5561C658.728 61.6508 658.212 61.6982 657.587 61.6982C656.64 61.6982 655.712 61.4946 654.803 61.0874C653.904 60.6802 653.156 60.0599 652.559 59.2266C651.972 58.3932 651.678 57.3421 651.678 56.0732V34.3686ZM673.646 61.8686C671.543 61.8686 669.73 61.4046 668.205 60.4766C666.69 59.5391 665.521 58.2322 664.697 56.5561C663.882 54.8705 663.475 52.9103 663.475 50.6754C663.475 48.4406 663.882 46.4709 664.697 44.7663C665.521 43.0523 666.666 41.7171 668.134 40.7607C669.612 39.7947 671.335 39.3118 673.305 39.3118C674.441 39.3118 675.563 39.5012 676.671 39.88C677.779 40.2588 678.788 40.8743 679.697 41.7266C680.606 42.5694 681.33 43.6868 681.87 45.0788C682.41 46.4709 682.68 48.1849 682.68 50.2209V51.6413H665.862V48.7436H679.271C679.271 47.5125 679.024 46.4141 678.532 45.4482C678.049 44.4822 677.358 43.7199 676.458 43.1612C675.568 42.6025 674.517 42.3232 673.305 42.3232C671.969 42.3232 670.814 42.6546 669.839 43.3175C668.873 43.9709 668.129 44.8232 667.609 45.8743C667.088 46.9254 666.827 48.0523 666.827 49.255V51.1868C666.827 52.8345 667.112 54.2313 667.68 55.3771C668.257 56.5135 669.058 57.38 670.08 57.9766C671.103 58.5637 672.291 58.8572 673.646 58.8572C674.526 58.8572 675.322 58.7341 676.032 58.4879C676.752 58.2322 677.372 57.8535 677.893 57.3516C678.414 56.8402 678.816 56.2057 679.1 55.4482L682.339 56.3572C681.998 57.4557 681.425 58.4216 680.62 59.255C679.815 60.0788 678.821 60.7228 677.637 61.1868C676.453 61.6413 675.123 61.8686 673.646 61.8686ZM696.643 61.8686C694.597 61.8686 692.836 61.3857 691.359 60.4197C689.881 59.4538 688.745 58.1233 687.95 56.4283C687.154 54.7332 686.756 52.7966 686.756 50.6186C686.756 48.4027 687.164 46.4472 687.978 44.7521C688.802 43.0476 689.948 41.7171 691.415 40.7607C692.893 39.7947 694.616 39.3118 696.586 39.3118C698.12 39.3118 699.503 39.5959 700.734 40.1641C701.965 40.7322 702.973 41.5277 703.759 42.5504C704.545 43.5732 705.033 44.7663 705.222 46.13H701.87C701.614 45.1357 701.046 44.255 700.165 43.4879C699.294 42.7114 698.12 42.3232 696.643 42.3232C695.336 42.3232 694.19 42.6641 693.205 43.3459C692.23 44.0182 691.468 44.9699 690.918 46.201C690.379 47.4226 690.109 48.8572 690.109 50.505C690.109 52.1906 690.374 53.6584 690.904 54.9084C691.444 56.1584 692.201 57.129 693.177 57.8203C694.162 58.5116 695.317 58.8572 696.643 58.8572C697.514 58.8572 698.305 58.7057 699.015 58.4027C699.725 58.0997 700.326 57.6641 700.819 57.0959C701.311 56.5277 701.662 55.8459 701.87 55.0504H705.222C705.033 56.3383 704.564 57.4983 703.816 58.5305C703.077 59.5533 702.097 60.3677 700.876 60.9737C699.664 61.5703 698.253 61.8686 696.643 61.8686ZM713.475 48.2891V61.4141H710.123V32.3232H713.475V43.005H713.759C714.271 41.8781 715.038 40.9832 716.06 40.3203C717.093 39.648 718.466 39.3118 720.18 39.3118C721.666 39.3118 722.969 39.6101 724.086 40.2067C725.203 40.7938 726.07 41.6982 726.685 42.9197C727.31 44.1319 727.623 45.6754 727.623 47.5504V61.4141H724.271V47.7777C724.271 46.0447 723.821 44.7048 722.921 43.7578C722.031 42.8014 720.795 42.3232 719.214 42.3232C718.115 42.3232 717.13 42.5552 716.259 43.0192C715.397 43.4832 714.716 44.1603 714.214 45.0504C713.721 45.9406 713.475 47.0201 713.475 48.2891Z" fill="white"/>
<path d="M834.172 48.1335C834.953 47.3524 834.953 46.0861 834.172 45.305L821.444 32.5771C820.663 31.7961 819.397 31.7961 818.616 32.5771C817.835 33.3582 817.835 34.6245 818.616 35.4055L829.93 46.7192L818.616 58.0329C817.835 58.814 817.835 60.0803 818.616 60.8614C819.397 61.6424 820.663 61.6424 821.444 60.8614L834.172 48.1335ZM806.803 46.7192V48.7192H832.758V46.7192V44.7192H806.803V46.7192Z" fill="#029383"/>
</svg>
