<svg width="223" height="53" viewBox="0 0 223 53" fill="none" xmlns="http://www.w3.org/2000/svg">
<path d="M16.4743 6.93721C14.3152 6.93721 12.6692 7.47805 11.5322 8.55546C10.3952 9.63501 9.82665 11.2149 9.82665 13.2953H16.4743V19.6533H9.82665V41.0398H3.46861V19.6533H0V13.2953H3.46861C3.46861 11.3683 3.77735 9.62436 4.39271 8.0636C5.00808 6.50283 5.88534 5.17416 7.02238 4.07545C8.15941 2.97674 9.52641 2.12077 11.1276 1.50327C12.7267 0.887911 14.5089 0.579166 16.4743 0.579166V6.93721ZM23.4093 0C24.5655 0 25.528 0.385399 26.2988 1.1562C27.0696 1.927 27.455 2.88944 27.455 4.04564C27.455 5.20184 27.0696 6.16428 26.2988 6.93508C25.528 7.70588 24.5655 8.09128 23.4093 8.09128C22.2531 8.09128 21.2907 7.70588 20.5199 6.93508C19.7491 6.16428 19.3637 5.20184 19.3637 4.04564C19.3637 2.88944 19.7491 1.927 20.5199 1.1562C21.2907 0.385399 22.2531 0 23.4093 0ZM20.2303 13.2953H26.5884V41.0398H20.2303V13.2953Z" fill="#065084"/>
<path d="M45.3751 19.0742C43.3714 19.0742 41.7617 19.6618 40.548 20.8372C39.3343 22.0126 38.7274 23.5819 38.7274 25.5472V41.0377H32.3694V25.5472C32.3694 23.6968 32.6973 21.9828 33.351 20.4028C34.0068 18.8229 34.9117 17.4644 36.068 16.3274C37.2242 15.1903 38.5912 14.3046 40.1711 13.6679C41.751 13.0313 43.4843 12.714 45.3729 12.714C47.2616 12.714 48.9948 13.0313 50.5748 13.6679C52.1547 14.3046 53.5217 15.1903 54.6779 16.3274C55.8341 17.4644 56.7305 18.8229 57.3651 20.4028C58.0017 21.9828 58.319 23.6968 58.319 25.5472V41.0377H51.9609V25.5472C51.9609 23.5819 51.3626 22.0126 50.1702 20.8372C48.9757 19.6618 47.3766 19.0742 45.3729 19.0742H45.3751Z" fill="#065084"/>
<path d="M111.79 19.0742C109.786 19.0742 108.176 19.6618 106.963 20.8372C105.749 22.0126 105.142 23.5819 105.142 25.5472V41.0377H98.7841V25.5472C98.7841 23.6968 99.112 21.9828 99.7657 20.4028C100.421 18.8229 101.326 17.4644 102.483 16.3274C103.639 15.1903 105.006 14.3046 106.586 13.6679C108.166 13.0313 109.899 12.714 111.788 12.714C113.676 12.714 115.41 13.0313 116.989 13.6679C118.569 14.3046 119.936 15.1903 121.093 16.3274C122.249 17.4644 123.145 18.8229 123.78 20.4028C124.416 21.9828 124.734 23.6968 124.734 25.5472V41.0377H118.376V25.5472C118.376 23.5819 117.777 22.0126 116.585 20.8372C115.39 19.6618 113.791 19.0742 111.788 19.0742H111.79Z" fill="#065084"/>
<path d="M136.875 52.0226H130.517V23.6989H136.875V27.455C136.875 28.5345 137.077 29.5566 137.481 30.519C137.886 31.4836 138.435 32.3119 139.13 33.0039C139.824 33.6959 140.641 34.2474 141.587 34.652C142.53 35.0565 143.561 35.2588 144.678 35.2588C145.796 35.2588 146.767 35.0565 147.713 34.652C148.656 34.2474 149.484 33.698 150.198 33.0039C150.911 32.3097 151.469 31.4814 151.873 30.519C152.278 29.5566 152.48 28.5345 152.48 27.455C152.48 26.3754 152.278 25.3065 151.873 24.3632C151.469 23.42 150.909 22.6002 150.198 21.9061C149.484 21.2119 148.656 20.6625 147.713 20.258C146.767 19.8534 145.756 19.6511 144.678 19.6511H130.517V13.2931H144.678C146.644 13.2931 148.494 13.6593 150.227 14.3918C151.961 15.1243 153.464 16.125 154.735 17.3984C156.006 18.6695 157.009 20.1643 157.742 21.8784C158.474 23.5946 158.84 25.4534 158.84 27.4571C158.84 29.4607 158.483 31.2728 157.771 33.006C157.058 34.7392 156.096 36.2425 154.882 37.5137C153.668 38.7849 152.233 39.7878 150.577 40.5203C148.92 41.2527 147.127 41.619 145.2 41.619C143.582 41.619 142.079 41.3677 140.692 40.8673C139.306 40.367 138.033 39.6728 136.877 38.787V52.0248L136.875 52.0226Z" fill="#065084"/>
<path d="M162.307 27.1676C162.307 25.0873 162.662 23.1603 163.376 21.3866C164.089 19.6151 165.081 18.082 166.352 16.7916C167.624 15.5013 169.135 14.4984 170.89 13.7851C172.642 13.0718 174.561 12.7162 176.641 12.7162C178.721 12.7162 180.638 13.0739 182.392 13.7851C184.145 14.4984 185.659 15.5013 186.93 16.7916C188.201 18.082 189.193 19.6151 189.907 21.3866C190.62 23.1603 190.976 25.0852 190.976 27.1676C190.976 27.4381 190.965 27.6978 190.946 27.9491C190.927 28.2003 190.878 28.5176 190.801 28.903H168.778C169.125 30.8683 169.981 32.4206 171.35 33.5555C172.717 34.6925 174.48 35.2611 176.639 35.2611C178.102 35.2611 179.403 34.9928 180.54 34.4519C181.677 33.9132 182.593 33.1233 183.285 32.082H190.222C189.76 33.547 189.104 34.8671 188.256 36.0425C187.409 37.2179 186.398 38.2208 185.222 39.049C184.047 39.8773 182.737 40.514 181.292 40.9569C179.846 41.3998 178.296 41.6212 176.639 41.6212C174.559 41.6212 172.64 41.2635 170.888 40.5523C169.133 39.839 167.622 38.8468 166.35 37.5756C165.079 36.3044 164.087 34.782 163.374 33.0083C162.66 31.2367 162.305 29.2905 162.305 27.1698L162.307 27.1676ZM184.215 24.2761C183.674 22.6578 182.75 21.3866 181.441 20.4604C180.131 19.5363 178.53 19.0742 176.643 19.0742C174.757 19.0742 173.098 19.5363 171.789 20.4604C170.479 21.3845 169.572 22.6578 169.072 24.2761H184.215Z" fill="#065084"/>
<path d="M208.896 19.0742C207.739 19.0742 206.67 19.2765 205.687 19.681C204.703 20.0856 203.856 20.6541 203.144 21.3866C202.431 22.1191 201.863 22.9772 201.439 23.9588C201.015 24.9404 200.802 26.0114 200.802 27.1676C200.802 28.3238 201.013 29.3927 201.439 30.3764C201.863 31.3602 202.431 32.2076 203.144 32.9209C203.858 33.6342 204.705 34.2028 205.687 34.6265C206.668 35.0502 207.739 35.2631 208.896 35.2631C210.629 35.2631 212.162 34.8203 213.491 33.9345C214.819 33.0487 215.773 31.8542 216.352 30.3509H223C222.653 32.0075 222.046 33.5299 221.179 34.9182C220.313 36.3065 219.261 37.4904 218.03 38.472C216.797 39.4557 215.401 40.2265 213.84 40.7844C212.279 41.3423 210.631 41.6233 208.898 41.6233C206.894 41.6233 205.005 41.2464 203.234 40.4969C201.46 39.7453 199.929 38.7254 198.639 37.4329C197.346 36.1425 196.326 34.6095 195.575 32.8379C194.823 31.0663 194.448 29.1777 194.448 27.174C194.448 25.1703 194.823 23.2348 195.575 21.4803C196.326 19.7279 197.346 18.1948 198.639 16.8853C199.929 15.5758 201.462 14.5537 203.234 13.8212C205.005 13.0888 206.894 12.7225 208.898 12.7225C210.631 12.7225 212.279 13.0036 213.84 13.5615C215.401 14.1215 216.797 14.8902 218.03 15.8739C219.263 16.8555 220.313 18.0415 221.179 19.4277C222.046 20.8159 222.653 22.3384 223 23.995H216.352C215.775 22.4917 214.821 21.2972 213.491 20.4114C212.162 19.5256 210.629 19.0827 208.896 19.0827V19.0742Z" fill="#065084"/>
<path d="M86.8428 13.0121V17.6752L85.693 16.5956C84.3856 15.3734 82.9483 14.4451 81.4195 13.8382C79.8971 13.2335 78.2405 12.9269 76.5009 12.9269C72.7107 12.9269 69.4423 14.2705 66.7892 16.9236C64.1212 19.5894 62.767 23.0687 62.767 27.2676C62.767 31.4666 64.1638 34.7286 66.9255 37.4371C69.6744 40.137 72.9684 41.504 76.7244 41.504C78.3917 41.504 79.9588 41.2251 81.3833 40.6757C82.8142 40.1264 84.2663 39.2086 85.7036 37.946L86.8385 36.9495V41.4465H93.2008V13.0121H86.8385H86.8428ZM83.5978 33.7002C81.8816 35.3759 79.6905 36.2255 77.0907 36.2255C74.4908 36.2255 72.4084 35.3631 70.6815 33.6576C68.9653 31.9669 68.0944 29.7887 68.0944 27.1888C68.0944 24.589 68.9504 22.449 70.6368 20.7818C72.336 19.1039 74.4993 18.2544 77.063 18.2544C79.6266 18.2544 81.8773 19.089 83.5935 20.7371C85.3076 22.3788 86.1742 24.54 86.1742 27.1633C86.1742 29.7866 85.3076 32.0351 83.5978 33.7023V33.7002Z" fill="#065084"/>
</svg>
