<svg width="189" height="189" viewBox="0 0 189 189" fill="none" xmlns="http://www.w3.org/2000/svg">
<g clip-path="url(#clip0_143_361)">
<path d="M188.23 94.11C188.23 146.09 146.09 188.23 94.11 188.23C42.13 188.23 0 146.09 0 94.11C0 42.13 42.14 0 94.11 0C146.08 0 188.23 42.14 188.23 94.11Z" fill="#029383"/>
<mask id="mask0_143_361" style="mask-type:luminance" maskUnits="userSpaceOnUse" x="0" y="0" width="189" height="189">
<path d="M188.23 94.11C188.23 146.09 146.09 188.23 94.11 188.23C42.13 188.23 0 146.09 0 94.11C0 42.13 42.14 0 94.11 0C146.08 0 188.23 42.14 188.23 94.11Z" fill="white"/>
</mask>
<g mask="url(#mask0_143_361)">
<path d="M112.29 12.6797L268.92 77.5297L191.08 224.6L37.4801 155.47L89.4901 112L112.29 12.6797Z" fill="#026E6A"/>
<path d="M81.9101 76.8999C81.9101 76.8999 49.0601 91.7099 44.5601 95.5799C40.3801 99.1599 36.65 147.32 36.3 154.35L37.4701 155.48H149.85C149.85 155.48 150.17 103.31 143.73 97.5199C137.29 91.7199 108.95 76.9099 108.95 76.9099H81.9001L81.9101 76.8999Z" fill="#999999"/>
<path d="M81.14 77.1101C81.14 77.1101 78.89 80.4201 78.1 83.6501C77.31 86.8801 81.79 105.78 95.95 123.8C102.39 113.17 113.72 89.8601 111.08 80.9701C109.08 74.2301 107.22 77.1101 107.22 77.1101H81.14Z" fill="#6D4C5B"/>
<path d="M81.4 77.55V72.88C81.4 72.88 78.82 71.43 77.21 60.16C73.35 56.62 70.12 51.79 73.67 44.7C76.77 45.99 75.68 44.54 76.77 47.44C77.85 50.34 75.6 32.63 75.6 32.63L86.8701 27.48L93.95 33.44L104.09 31.51L109.08 33.6C109.08 33.6 113.27 40.2 111.33 46.64C112.75 43.91 113.88 42.2 114.83 42.11C115.29 42.07 116.16 43.26 116.16 43.26C116.16 43.26 119.06 53.4 111.97 60.33C111.16 69.19 107.3 73.21 107.3 73.21L107.78 77.56C107.78 77.56 103.3 88.51 94.43 87.54C85.56 86.57 81.38 77.56 81.38 77.56L81.4 77.55Z" fill="#867565"/>
<path d="M92.1501 88.4697L97.6901 88.1997L100.37 91.1597L97.6901 98.3397L101.24 111.47L96.0401 121.47L90.8401 113.24L93.2601 98.3397L89.8401 91.5797L92.1501 88.4697Z" fill="white"/>
<path d="M77.77 50.01C77.77 50.01 74.9101 44.3 73.5501 44.98C72.1901 45.66 68.6 20.26 81.17 21.12C84.4 15.51 89.7001 16.36 91.7201 16.7C93.7501 17.04 110.75 16.02 114.48 28.6C117.37 42.03 111.93 48.63 111.93 48.63C110.4 42 105.64 35.91 105.64 35.91C105.64 35.91 105.47 41.01 106.83 42.37C108.19 43.73 92.8401 42.2 87.3201 34.75C82.7501 28.58 78.1 34.22 78.1 34.22C78.1 34.22 76.9101 46.63 77.7601 50.03L77.77 50.01Z" fill="#4F3820"/>
<path d="M76.93 82.5297C77.6101 79.7597 79.36 76.9297 79.84 76.1797C74.55 78.5797 47.45 90.9697 43.39 94.4497C38.88 98.3097 36.3 154.34 36.3 154.34H94.3601V122.13C80.5301 104.27 76.1501 85.7197 76.93 82.5297Z" fill="white"/>
<path d="M142.57 96.3799C137.51 91.5199 112 78.0199 108.12 75.9399C108.67 76.5399 109.29 77.7099 109.92 79.8399C112.55 88.7299 101.22 112.04 94.7901 122.67C94.6501 122.49 94.5101 122.31 94.3701 122.12V154.33H148.69C148.69 154.33 148.82 102.37 142.57 96.3699V96.3799Z" fill="#CCCCCC"/>
<path d="M109.92 79.85C109.29 77.72 108.67 76.55 108.12 75.95C107.47 75.23 106.91 75.32 106.54 75.54L106.57 75.78L106.64 76.42C106.64 76.42 102.52 86.47 94.3701 86.46V87.2L96.8901 87.13L99.5001 90.15L96.6701 97.27L99.9201 110.47L94.5001 120.35L94.3601 120.12V122.13C94.5001 122.31 94.6401 122.5 94.7801 122.68C101.22 112.05 112.55 88.74 109.91 79.85H109.92Z" fill="#523944"/>
<path d="M94.3602 87.1898V86.4497C94.0102 86.4497 93.6502 86.4397 93.2802 86.3997C84.4102 85.4397 80.2302 76.4197 80.2302 76.4197V75.9897H79.9702C79.9702 75.9897 79.9202 76.0598 79.8402 76.1898C79.3602 76.9398 77.6002 79.7697 76.9302 82.5397C76.1502 85.7397 80.5302 104.28 94.3602 122.14V120.13L89.4802 112.01L92.2302 97.1697L88.9502 90.3397L91.3302 87.2797L94.3602 87.1997V87.1898Z" fill="#6D4C5B"/>
<path d="M80.28 75.9897H80.23V76.0098C80.23 76.0098 80.26 75.9997 80.28 75.9897Z" fill="#EFD0B4"/>
<path d="M115.01 42.1198C115.01 42.1198 114.21 41.9398 113.16 42.3898C112.16 45.7998 110.77 47.4898 110.77 47.4898C110.61 46.8098 110.42 46.1398 110.2 45.4798C110.2 45.4798 110.2 45.4898 110.19 45.4998C110.19 45.4898 110.19 45.4798 110.2 45.4698C108.31 39.6798 104.48 34.7798 104.48 34.7798C104.48 34.7798 104.31 39.8798 105.67 41.2398C106.56 42.1298 100.34 41.7798 94.3701 39.3698V86.4598C102.52 86.4798 106.64 76.4198 106.64 76.4198L106.57 75.7798L106.54 75.5398L106.15 72.0798C106.15 72.0798 110.01 68.0498 110.82 59.1998C117.91 52.2798 115.01 42.1298 115.01 42.1298V42.1198Z" fill="#B39C87"/>
<path d="M86.1502 33.6098C81.5802 27.4398 76.9302 33.0698 76.9302 33.0698C76.9302 33.0698 75.7402 45.4798 76.5902 48.8798C76.5902 48.8798 73.7302 43.1698 72.3602 43.8498C69.0402 50.7798 72.2202 55.5298 76.0402 59.0198C77.6502 70.2898 80.2202 71.7398 80.2202 71.7398V75.9798H80.2702C80.2702 75.9798 80.2402 75.9898 80.2202 75.9998V76.4098C80.2202 76.4098 84.4102 85.4298 93.2702 86.3898C93.6402 86.4298 94.0002 86.4398 94.3502 86.4398V39.3498C91.1702 38.0598 88.0602 36.1898 86.1402 33.5998L86.1502 33.6098Z" fill="#EFD0B4"/>
<path d="M99.9201 110.47L96.6601 97.2596L99.4901 90.1396L96.8901 87.1196L94.3601 87.1896V120.12L94.5001 120.35L99.9201 110.47Z" fill="#E6E6E6"/>
<path d="M91.34 87.2699L88.96 90.3299L92.24 97.1699L89.49 112L94.36 120.12V87.1899L91.34 87.2699Z" fill="white"/>
<path d="M113.9 27.9498C111.08 18.4798 100.75 16.7198 94.95 16.2798V39.8498C100.92 42.2598 107.13 42.5998 106.25 41.7198C104.89 40.3598 105.06 35.2598 105.06 35.2598C105.06 35.2598 110.16 39.8898 110.78 45.9498L110.77 47.4898L111.36 47.9798C111.36 47.9798 112.75 46.2898 113.75 42.8798C114.73 39.5498 115.34 34.5898 113.91 27.9498H113.9Z" fill="#4F3820"/>
<path d="M91.13 16.0496C89.1 15.7096 83.81 14.8596 80.58 20.4696C68.01 19.6196 73.25 43.5496 73.25 43.5496C73.86 43.2496 75.85 47.5496 76.6 48.8796L77.19 49.3596C76.34 45.9596 77.53 33.5496 77.53 33.5496C77.53 33.5496 82.17 27.9096 86.74 34.0896C88.66 36.6796 91.77 38.5596 94.95 39.8396V16.2696C93.05 16.1296 91.63 16.1296 91.13 16.0396V16.0496Z" fill="#694A2B"/>
<path d="M80.92 127.4C80.87 126.52 80.65 125.68 80.28 124.94C80.58 125.62 80.77 126.38 80.81 127.17C81.07 131.98 71.6 140.06 71 140.56C70.98 140.58 70.97 140.58 70.97 140.58C70.97 140.58 70.95 140.56 70.9 140.52C70.9 140.52 70.87 140.49 70.85 140.48C70.85 140.48 70.84 140.47 70.83 140.46C70.81 140.44 70.8 140.43 70.78 140.41C70.76 140.39 70.75 140.38 70.73 140.36C70.73 140.36 70.72 140.35 70.71 140.34C70.69 140.32 70.67 140.31 70.65 140.29C70.64 140.29 70.63 140.27 70.62 140.26C70.6 140.24 70.58 140.23 70.56 140.21C70.55 140.2 70.54 140.19 70.53 140.18C70.51 140.16 70.48 140.14 70.46 140.12C70.45 140.11 70.44 140.1 70.42 140.09C70.4 140.07 70.37 140.05 70.34 140.02C70.33 140.02 70.31 140 70.3 139.99C70.27 139.96 70.25 139.94 70.22 139.92C70.21 139.91 70.19 139.89 70.17 139.88C70.14 139.86 70.11 139.83 70.08 139.8C70.07 139.79 70.05 139.77 70.03 139.75C70 139.72 69.97 139.7 69.94 139.67C69.92 139.65 69.91 139.64 69.89 139.62C69.86 139.59 69.82 139.56 69.79 139.53C69.77 139.51 69.76 139.5 69.74 139.48C69.71 139.45 69.67 139.42 69.63 139.38C69.61 139.36 69.59 139.34 69.57 139.33C69.53 139.3 69.5 139.27 69.46 139.23C69.44 139.21 69.42 139.2 69.4 139.18C69.36 139.14 69.32 139.11 69.29 139.08C69.27 139.06 69.25 139.04 69.23 139.02C69.19 138.99 69.15 138.95 69.11 138.91C69.09 138.89 69.07 138.87 69.05 138.85C69.01 138.81 68.97 138.77 68.92 138.73C68.9 138.71 68.88 138.69 68.86 138.68C68.82 138.64 68.77 138.6 68.73 138.55C68.71 138.53 68.69 138.51 68.67 138.49C68.62 138.44 68.57 138.4 68.53 138.35C68.51 138.33 68.49 138.32 68.48 138.3C68.43 138.25 68.38 138.2 68.32 138.15C68.31 138.14 68.29 138.12 68.28 138.11C68.22 138.05 68.16 138 68.1 137.93C68.09 137.93 68.08 137.91 68.07 137.9C67.79 137.62 67.5 137.33 67.2 137.03C67.19 137.02 67.18 137 67.17 137C67.11 136.93 67.04 136.87 66.98 136.81C66.96 136.79 66.94 136.77 66.93 136.75C66.87 136.69 66.82 136.63 66.76 136.57C66.74 136.55 66.72 136.52 66.7 136.5C66.65 136.45 66.59 136.39 66.54 136.33C66.52 136.3 66.49 136.28 66.47 136.25C66.42 136.2 66.37 136.14 66.32 136.09C66.29 136.06 66.27 136.04 66.24 136.01C66.19 135.96 66.14 135.9 66.09 135.85C66.06 135.82 66.04 135.79 66.01 135.76C65.96 135.71 65.91 135.66 65.87 135.6C65.84 135.57 65.81 135.54 65.79 135.51C65.74 135.46 65.69 135.4 65.65 135.35C65.62 135.32 65.59 135.29 65.57 135.25C65.52 135.2 65.48 135.15 65.43 135.09C65.4 135.06 65.37 135.02 65.35 134.99C65.3 134.94 65.26 134.88 65.21 134.83C65.18 134.8 65.15 134.76 65.12 134.73C65.07 134.68 65.03 134.62 64.98 134.57C64.95 134.54 64.92 134.5 64.89 134.47C64.84 134.42 64.8 134.36 64.75 134.31C64.72 134.28 64.69 134.24 64.67 134.21C64.62 134.15 64.58 134.1 64.53 134.04C64.5 134.01 64.48 133.97 64.45 133.94C64.4 133.89 64.36 133.83 64.32 133.77C64.29 133.74 64.27 133.71 64.24 133.67C64.19 133.61 64.15 133.55 64.1 133.49C64.08 133.46 64.05 133.43 64.03 133.4C63.98 133.34 63.94 133.27 63.89 133.21C63.87 133.18 63.85 133.15 63.83 133.13C63.78 133.06 63.73 132.99 63.68 132.92C63.67 132.9 63.65 132.88 63.63 132.86C63.56 132.77 63.5 132.68 63.43 132.58C63.36 132.48 63.3 132.39 63.24 132.3C63.18 132.21 63.12 132.12 63.06 132.03C63.04 132.01 63.03 131.98 63.01 131.96C62.97 131.89 62.92 131.82 62.88 131.76C62.86 131.73 62.84 131.7 62.82 131.66C62.78 131.6 62.74 131.54 62.71 131.48C62.69 131.44 62.67 131.41 62.65 131.37C62.62 131.31 62.58 131.26 62.55 131.2C62.53 131.16 62.51 131.12 62.49 131.09C62.46 131.04 62.43 130.98 62.4 130.93C62.38 130.89 62.36 130.85 62.34 130.82C62.31 130.77 62.28 130.72 62.25 130.66C62.23 130.62 62.21 130.58 62.19 130.54C62.16 130.49 62.14 130.44 62.11 130.39C62.09 130.35 62.07 130.31 62.05 130.27C62.03 130.23 62.01 130.19 62 130.16C64.11 134.79 70.29 140.11 71.05 140.75C71.1 140.79 71.13 140.81 71.13 140.81C71.13 140.81 81.24 132.36 80.97 127.39L80.92 127.4Z" fill="#F35B74"/>
<path d="M69.8201 122.4C69.8701 122.43 69.9301 122.47 69.9801 122.51C69.9301 122.47 69.8701 122.44 69.8201 122.4Z" fill="#F35B74"/>
<path d="M69.3501 122.13C69.4101 122.16 69.4701 122.19 69.5301 122.23C69.4701 122.2 69.4101 122.16 69.3501 122.13Z" fill="#F35B74"/>
<path d="M68.9202 121.94C69.0602 121.99 69.1902 122.06 69.3202 122.12C69.1902 122.05 69.0502 121.99 68.9202 121.94Z" fill="#F35B74"/>
<path d="M78.4102 122.58C78.4102 122.58 78.4802 122.63 78.5102 122.66C78.4802 122.63 78.4402 122.61 78.4102 122.58Z" fill="#F35B74"/>
<path d="M70.4399 122.86C70.4999 122.91 70.5499 122.96 70.6099 123.01C70.5599 122.96 70.4999 122.91 70.4399 122.86Z" fill="#F35B74"/>
<path d="M78.6201 122.74C78.6201 122.74 78.6801 122.79 78.7101 122.82C78.6801 122.8 78.6501 122.77 78.6201 122.74Z" fill="#F35B74"/>
<path d="M67.6602 121.59C67.6602 121.59 67.7402 121.6 67.7902 121.61C67.7502 121.61 67.7102 121.59 67.6602 121.59Z" fill="#F35B74"/>
<path d="M67.3701 121.55C67.3701 121.55 67.4501 121.56 67.4901 121.57C67.4501 121.57 67.4101 121.56 67.3701 121.55Z" fill="#F35B74"/>
<path d="M68.73 121.86C68.73 121.86 68.83 121.89 68.88 121.91C68.83 121.89 68.78 121.87 68.73 121.86Z" fill="#F35B74"/>
<path d="M78.2 122.43C78.2 122.43 78.27 122.48 78.3 122.5C78.27 122.48 78.23 122.45 78.2 122.43Z" fill="#F35B74"/>
<path d="M67.9399 121.64C67.9399 121.64 68.0299 121.66 68.0699 121.67C68.0299 121.66 67.9799 121.65 67.9399 121.64Z" fill="#F35B74"/>
<path d="M68.47 121.78C68.47 121.78 68.56 121.81 68.61 121.82C68.57 121.8 68.52 121.79 68.47 121.78Z" fill="#F35B74"/>
<path d="M68.21 121.7C68.21 121.7 68.3 121.72 68.34 121.74C68.29 121.73 68.25 121.72 68.21 121.7Z" fill="#F35B74"/>
<path d="M74.3901 121.57C74.4401 121.57 74.5001 121.55 74.5501 121.55C74.5001 121.55 74.4401 121.56 74.3901 121.57Z" fill="#F35B74"/>
<path d="M74.0701 121.63C74.1301 121.62 74.1901 121.61 74.2601 121.59C74.2001 121.6 74.1301 121.61 74.0701 121.63Z" fill="#F35B74"/>
<path d="M73.76 121.7C73.83 121.68 73.89 121.66 73.96 121.65C73.89 121.66 73.82 121.68 73.76 121.7Z" fill="#F35B74"/>
<path d="M76.53 121.69C76.53 121.69 76.61 121.71 76.65 121.72C76.61 121.72 76.57 121.7 76.53 121.69Z" fill="#F35B74"/>
<path d="M77.98 122.29C77.98 122.29 78.05 122.33 78.09 122.35C78.05 122.33 78.02 122.31 77.98 122.29Z" fill="#F35B74"/>
<path d="M75.73 121.55C75.73 121.55 75.8 121.55 75.84 121.56C75.8 121.56 75.77 121.55 75.73 121.55Z" fill="#F35B74"/>
<path d="M76.27 121.63C76.27 121.63 76.35 121.65 76.39 121.66C76.35 121.66 76.31 121.64 76.27 121.63Z" fill="#F35B74"/>
<path d="M73.46 121.78C73.53 121.76 73.61 121.73 73.68 121.71C73.6 121.73 73.53 121.75 73.46 121.78Z" fill="#F35B74"/>
<path d="M76 121.58C76 121.58 76.08 121.59 76.11 121.6C76.07 121.6 76.03 121.59 76 121.58Z" fill="#F35B74"/>
<path d="M76.78 121.76C76.78 121.76 76.86 121.79 76.9 121.8C76.86 121.79 76.82 121.78 76.78 121.76Z" fill="#F35B74"/>
<path d="M77.75 122.16C77.75 122.16 77.82 122.2 77.86 122.22C77.82 122.2 77.79 122.18 77.75 122.16Z" fill="#F35B74"/>
<path d="M72.3401 122.28C72.4201 122.23 72.5001 122.19 72.5901 122.14C72.5101 122.19 72.4201 122.23 72.3401 122.28Z" fill="#F35B74"/>
<path d="M77.52 122.04C77.52 122.04 77.59 122.08 77.63 122.09C77.59 122.07 77.55 122.05 77.52 122.04Z" fill="#F35B74"/>
<path d="M77.28 121.94C77.28 121.94 77.36 121.97 77.39 121.99C77.35 121.97 77.31 121.96 77.28 121.94Z" fill="#F35B74"/>
<path d="M77.03 121.84C77.03 121.84 77.11 121.87 77.15 121.89C77.11 121.88 77.07 121.86 77.03 121.84Z" fill="#F35B74"/>
<path d="M61.4101 128.79C61.4101 128.79 61.3901 128.71 61.3801 128.67C61.3901 128.71 61.4001 128.75 61.4101 128.79Z" fill="#F35B74"/>
<path d="M80.2899 124.93C79.9599 124.18 79.4899 123.52 78.9099 122.98C78.1399 122.37 77.2199 121.95 76.1899 121.82C78.0199 122.12 79.4999 123.31 80.2999 124.93H80.2899Z" fill="#F35B74"/>
<path d="M71.0001 123.52V123.35C71.0001 123.35 70.9801 123.37 70.9801 123.38C70.8601 123.25 70.7401 123.13 70.6101 123.01C69.8301 122.38 68.8701 121.96 67.8201 121.83C69.0601 122.03 70.1701 122.65 71.0001 123.52Z" fill="#F35B74"/>
<path d="M61.49 129.05C61.49 129.05 61.46 128.97 61.45 128.93C61.46 128.97 61.48 129.01 61.49 129.05Z" fill="#F35B74"/>
<path d="M61.6901 129.58C61.6901 129.58 61.6601 129.5 61.6401 129.46C61.6601 129.5 61.6701 129.54 61.6901 129.58Z" fill="#F35B74"/>
<path d="M61.1802 127.75C61.1802 127.75 61.1802 127.69 61.1702 127.65C61.1702 127.68 61.1702 127.71 61.1802 127.75Z" fill="#F35B74"/>
<path d="M61.81 129.85C61.81 129.85 61.77 129.77 61.76 129.73C61.78 129.77 61.79 129.81 61.81 129.85Z" fill="#F35B74"/>
<path d="M61.22 128.01C61.22 128.01 61.21 127.94 61.2 127.9C61.2 127.94 61.21 127.97 61.22 128.01Z" fill="#F35B74"/>
<path d="M61.3301 128.53C61.3301 128.53 61.31 128.45 61.3 128.42C61.31 128.46 61.3201 128.5 61.3301 128.53Z" fill="#F35B74"/>
<path d="M61.9301 130.12C61.9301 130.12 61.8901 130.04 61.8701 130C61.8901 130.04 61.9101 130.08 61.9301 130.12Z" fill="#F35B74"/>
<path d="M61.27 128.27C61.27 128.27 61.25 128.19 61.25 128.16C61.25 128.2 61.27 128.24 61.27 128.27Z" fill="#F35B74"/>
<path d="M61.59 129.31C61.59 129.31 61.56 129.23 61.54 129.19C61.55 129.23 61.57 129.27 61.59 129.31Z" fill="#F35B74"/>
<path d="M62.2101 130.67C62.2101 130.67 62.1701 130.59 62.1501 130.55C62.1701 130.59 62.1901 130.63 62.2101 130.67Z" fill="#F35B74"/>
<path d="M70.08 139.81C70.08 139.81 70.05 139.78 70.03 139.76C70.05 139.78 70.06 139.79 70.08 139.81Z" fill="#F35B74"/>
<path d="M69.79 139.55C69.79 139.55 69.76 139.52 69.74 139.5C69.76 139.52 69.77 139.53 69.79 139.55Z" fill="#F35B74"/>
<path d="M70.2102 139.93C70.2102 139.93 70.1802 139.9 70.1602 139.89C70.1802 139.91 70.1902 139.92 70.2102 139.93Z" fill="#F35B74"/>
<path d="M69.4702 139.25C69.4702 139.25 69.4302 139.22 69.4102 139.2C69.4302 139.22 69.4502 139.23 69.4702 139.25Z" fill="#F35B74"/>
<path d="M69.29 139.1C69.29 139.1 69.25 139.06 69.23 139.04C69.25 139.06 69.27 139.08 69.29 139.1Z" fill="#F35B74"/>
<path d="M69.6301 139.4C69.6301 139.4 69.5901 139.36 69.5701 139.35C69.5901 139.37 69.6101 139.39 69.6301 139.4Z" fill="#F35B74"/>
<path d="M69.11 138.93C69.11 138.93 69.07 138.89 69.05 138.87C69.07 138.89 69.09 138.91 69.11 138.93Z" fill="#F35B74"/>
<path d="M62.07 130.39C62.07 130.39 62.03 130.31 62.01 130.27C62.03 130.31 62.05 130.35 62.07 130.39Z" fill="#F35B74"/>
<path d="M62.8601 131.76C62.8601 131.76 62.82 131.7 62.8 131.66C62.82 131.69 62.8401 131.73 62.8601 131.76Z" fill="#F35B74"/>
<path d="M70.9001 140.53C70.9001 140.53 70.8701 140.5 70.8501 140.49C70.8701 140.51 70.8801 140.52 70.9001 140.53Z" fill="#F35B74"/>
<path d="M70.34 140.04C70.34 140.04 70.31 140.02 70.3 140.01C70.31 140.02 70.33 140.03 70.34 140.04Z" fill="#F35B74"/>
<path d="M62.6801 131.49C62.6801 131.49 62.6401 131.42 62.6201 131.38C62.6401 131.42 62.6601 131.45 62.6801 131.49Z" fill="#F35B74"/>
<path d="M62.52 131.22C62.52 131.22 62.48 131.14 62.46 131.11C62.48 131.15 62.5 131.18 62.52 131.22Z" fill="#F35B74"/>
<path d="M70.73 140.38C70.73 140.38 70.72 140.37 70.71 140.36C70.71 140.36 70.72 140.36 70.73 140.38Z" fill="#F35B74"/>
<path d="M70.84 140.47C70.84 140.47 70.81 140.44 70.79 140.42C70.81 140.44 70.83 140.45 70.84 140.47Z" fill="#F35B74"/>
<path d="M70.4501 140.14C70.4501 140.14 70.4302 140.12 70.4102 140.11C70.4202 140.12 70.4301 140.13 70.4501 140.14Z" fill="#F35B74"/>
<path d="M63.04 132.04C63.04 132.04 63.01 131.99 62.99 131.97C63.01 131.99 63.02 132.02 63.04 132.04Z" fill="#F35B74"/>
<path d="M70.6501 140.31C70.6501 140.31 70.6301 140.29 70.6201 140.28C70.6301 140.29 70.6401 140.3 70.6501 140.31Z" fill="#F35B74"/>
<path d="M62.3601 130.94C62.3601 130.94 62.32 130.86 62.3 130.83C62.32 130.87 62.3401 130.91 62.3601 130.94Z" fill="#F35B74"/>
<path d="M70.55 140.23C70.55 140.23 70.53 140.21 70.52 140.2C70.53 140.2 70.54 140.22 70.55 140.23Z" fill="#F35B74"/>
<path d="M69.9401 139.68C69.9401 139.68 69.9101 139.65 69.8901 139.63C69.9101 139.65 69.9201 139.66 69.9401 139.68Z" fill="#F35B74"/>
<path d="M66.08 135.87C66.08 135.87 66.03 135.81 66 135.78C66.03 135.81 66.05 135.84 66.08 135.87Z" fill="#F35B74"/>
<path d="M65.86 135.62C65.86 135.62 65.8 135.56 65.78 135.53C65.81 135.56 65.83 135.59 65.86 135.62Z" fill="#F35B74"/>
<path d="M66.31 136.12C66.31 136.12 66.26 136.07 66.23 136.04C66.26 136.07 66.28 136.1 66.31 136.12Z" fill="#F35B74"/>
<path d="M65.63 135.37C65.63 135.37 65.57 135.31 65.55 135.27C65.58 135.3 65.61 135.34 65.63 135.37Z" fill="#F35B74"/>
<path d="M66.76 136.59C66.76 136.59 66.72 136.54 66.7 136.52C66.72 136.54 66.74 136.57 66.76 136.59Z" fill="#F35B74"/>
<path d="M66.53 136.36C66.53 136.36 66.48 136.31 66.46 136.28C66.48 136.31 66.51 136.33 66.53 136.36Z" fill="#F35B74"/>
<path d="M64.5199 134.06C64.5199 134.06 64.4699 133.99 64.4399 133.96C64.4699 133.99 64.4899 134.03 64.5199 134.06Z" fill="#F35B74"/>
<path d="M64.7402 134.33C64.7402 134.33 64.6802 134.26 64.6602 134.23C64.6902 134.26 64.7102 134.3 64.7402 134.33Z" fill="#F35B74"/>
<path d="M63.8701 133.23C63.8701 133.23 63.8301 133.17 63.8101 133.15C63.8301 133.18 63.8501 133.21 63.8701 133.23Z" fill="#F35B74"/>
<path d="M64.9601 134.59C64.9601 134.59 64.9001 134.52 64.8701 134.49C64.9001 134.52 64.9301 134.56 64.9601 134.59Z" fill="#F35B74"/>
<path d="M65.1801 134.85C65.1801 134.85 65.1201 134.78 65.0901 134.75C65.1201 134.78 65.1501 134.82 65.1801 134.85Z" fill="#F35B74"/>
<path d="M64.09 133.51C64.09 133.51 64.04 133.45 64.02 133.42C64.04 133.45 64.07 133.48 64.09 133.51Z" fill="#F35B74"/>
<path d="M68.9301 138.75C68.9301 138.75 68.8901 138.71 68.8701 138.7C68.8901 138.72 68.9101 138.74 68.9301 138.75Z" fill="#F35B74"/>
<path d="M65.4101 135.11C65.4101 135.11 65.3501 135.04 65.3301 135.01C65.3601 135.04 65.3901 135.07 65.4101 135.11Z" fill="#F35B74"/>
<path d="M76.18 121.82C75.95 121.79 75.71 121.77 75.47 121.77C73.81 121.77 72.32 122.49 71.28 123.63C71.24 123.59 71.21 123.55 71.17 123.51C71.14 123.54 71.11 123.57 71.09 123.6C71.06 123.57 71.03 123.54 71 123.51V140.55C71.6 140.04 81.07 131.96 80.81 127.16C80.77 126.37 80.58 125.61 80.28 124.93C79.48 123.31 78 122.12 76.17 121.82H76.18Z" fill="#F35B74"/>
<path d="M68.53 138.37C68.53 138.37 68.49 138.34 68.48 138.32C68.5 138.34 68.52 138.35 68.53 138.37Z" fill="#F35B74"/>
<path d="M63.6601 132.93C63.6601 132.93 63.6301 132.89 63.6101 132.87C63.6301 132.89 63.6401 132.91 63.6601 132.93Z" fill="#F35B74"/>
<path d="M66.9799 136.83C66.9799 136.83 66.9399 136.79 66.9299 136.77C66.9499 136.79 66.9699 136.81 66.9799 136.83Z" fill="#F35B74"/>
<path d="M68.32 138.17C68.32 138.17 68.29 138.14 68.28 138.13C68.3 138.15 68.31 138.16 68.32 138.17Z" fill="#F35B74"/>
<path d="M68.7302 138.57C68.7302 138.57 68.6902 138.53 68.6702 138.51C68.6902 138.53 68.7102 138.55 68.7302 138.57Z" fill="#F35B74"/>
<path d="M67.82 121.83C67.58 121.8 67.34 121.78 67.09 121.78C63.97 121.78 61.45 124.31 61.44 127.43C61.42 132.05 69.1 138.98 70.9 140.53C70.94 140.57 70.97 140.59 70.97 140.59C70.97 140.59 70.98 140.59 71 140.57V123.53C70.17 122.65 69.07 122.04 67.82 121.84V121.83Z" fill="#F35B74"/>
<path d="M64.3 133.78C64.3 133.78 64.25 133.72 64.22 133.68C64.25 133.71 64.27 133.75 64.3 133.78Z" fill="#F35B74"/>
<path d="M68.1001 137.95C68.1001 137.95 68.0801 137.93 68.0701 137.92C68.0701 137.92 68.0901 137.94 68.1001 137.95Z" fill="#F35B74"/>
<path d="M67.2002 137.05C67.2002 137.05 67.1802 137.02 67.1702 137.02C67.1802 137.02 67.1902 137.04 67.2002 137.05Z" fill="#F35B74"/>
<path d="M61.54 129.19C61.54 129.19 61.51 129.09 61.49 129.04C61.51 129.09 61.52 129.14 61.54 129.19Z" fill="#F35B74"/>
<path d="M61.3701 128.67C61.3701 128.67 61.3401 128.57 61.3301 128.52C61.3401 128.57 61.3601 128.62 61.3701 128.67Z" fill="#F35B74"/>
<path d="M61.4501 128.93C61.4501 128.93 61.4201 128.83 61.4001 128.79C61.4101 128.84 61.4301 128.88 61.4501 128.93Z" fill="#F35B74"/>
<path d="M61.7499 129.73C61.7499 129.73 61.7099 129.63 61.6899 129.58C61.7099 129.63 61.7299 129.68 61.7499 129.73Z" fill="#F35B74"/>
<path d="M67.49 121.56C67.55 121.56 67.6 121.57 67.66 121.58C67.61 121.58 67.55 121.56 67.49 121.56Z" fill="#F35B74"/>
<path d="M62.27 123.79C62.38 123.65 62.49 123.51 62.61 123.37C62.49 123.5 62.37 123.64 62.27 123.79Z" fill="#F35B74"/>
<path d="M61.1999 127.9C61.1999 127.85 61.1899 127.8 61.1799 127.75C61.1799 127.8 61.1899 127.85 61.1999 127.9Z" fill="#F35B74"/>
<path d="M67.1799 121.53C67.2399 121.53 67.3099 121.53 67.3699 121.54C67.3099 121.54 67.2399 121.54 67.1799 121.53Z" fill="#F35B74"/>
<path d="M70.4102 122.83C70.4102 122.83 70.4301 122.85 70.4501 122.86C70.4401 122.85 70.4302 122.84 70.4102 122.83Z" fill="#F35B74"/>
<path d="M67.78 121.61C67.83 121.61 67.88 121.63 67.93 121.64C67.88 121.64 67.83 121.62 67.78 121.61Z" fill="#F35B74"/>
<path d="M61.1702 127.65C61.1702 127.6 61.1702 127.54 61.1602 127.48C61.1602 127.54 61.1602 127.59 61.1702 127.65Z" fill="#F35B74"/>
<path d="M69.76 122.36C69.76 122.36 69.8 122.38 69.82 122.4C69.8 122.39 69.78 122.37 69.76 122.36Z" fill="#F35B74"/>
<path d="M61.3 128.41C61.3 128.41 61.28 128.31 61.27 128.26C61.28 128.31 61.29 128.36 61.3 128.41Z" fill="#F35B74"/>
<path d="M69.53 122.23C69.53 122.23 69.57 122.25 69.59 122.26C69.57 122.25 69.55 122.24 69.53 122.23Z" fill="#F35B74"/>
<path d="M69.98 122.51C69.98 122.51 70.02 122.54 70.04 122.55C70.02 122.54 70 122.52 69.98 122.51Z" fill="#F35B74"/>
<path d="M70.2 122.66C70.2 122.66 70.23 122.68 70.25 122.7C70.23 122.69 70.22 122.68 70.2 122.66Z" fill="#F35B74"/>
<path d="M61.24 128.15C61.24 128.15 61.22 128.06 61.21 128.01C61.21 128.06 61.23 128.11 61.24 128.15Z" fill="#F35B74"/>
<path d="M68.6101 121.82C68.6101 121.82 68.6901 121.85 68.7301 121.86C68.6901 121.85 68.6501 121.83 68.6101 121.82Z" fill="#F35B74"/>
<path d="M68.3401 121.74C68.3401 121.74 68.4301 121.76 68.4701 121.78C68.4301 121.76 68.3801 121.75 68.3401 121.74Z" fill="#F35B74"/>
<path d="M68.0601 121.66C68.0601 121.66 68.1601 121.68 68.2001 121.69C68.1501 121.69 68.1001 121.67 68.0601 121.66Z" fill="#F35B74"/>
<path d="M68.8701 121.92C68.8701 121.92 68.9001 121.94 68.9201 121.94C68.9001 121.94 68.8901 121.92 68.8701 121.92Z" fill="#F35B74"/>
<path d="M61.9299 130.12C61.9299 130.12 61.9399 130.15 61.9499 130.16C61.9499 130.16 61.9499 130.14 61.9399 130.14C61.9399 130.14 61.9399 130.14 61.9399 130.12H61.9299Z" fill="#F35B74"/>
<path d="M67.17 137.02C67.11 136.95 67.04 136.89 66.98 136.83C67.04 136.89 67.11 136.96 67.17 137.02Z" fill="#F35B74"/>
<path d="M67.17 137.02C67.11 136.95 67.04 136.89 66.98 136.83C67.04 136.89 67.11 136.96 67.17 137.02Z" fill="#F35B74"/>
<path d="M65.1 134.75C65.05 134.7 65.01 134.64 64.96 134.59C65 134.64 65.05 134.7 65.1 134.75Z" fill="#F35B74"/>
<path d="M65.1 134.75C65.05 134.7 65.01 134.64 64.96 134.59C65 134.64 65.05 134.7 65.1 134.75Z" fill="#F35B74"/>
<path d="M66.0001 135.78C65.9501 135.73 65.9001 135.68 65.8601 135.62C65.9101 135.67 65.9601 135.73 66.0001 135.78Z" fill="#F35B74"/>
<path d="M66.0001 135.78C65.9501 135.73 65.9001 135.68 65.8601 135.62C65.9101 135.67 65.9601 135.73 66.0001 135.78Z" fill="#F35B74"/>
<path d="M65.5502 135.27C65.5002 135.22 65.4602 135.17 65.4102 135.11C65.4602 135.16 65.5002 135.22 65.5502 135.27Z" fill="#F35B74"/>
<path d="M65.5502 135.27C65.5002 135.22 65.4602 135.17 65.4102 135.11C65.4602 135.16 65.5002 135.22 65.5502 135.27Z" fill="#F35B74"/>
<path d="M65.7701 135.53C65.7201 135.48 65.6701 135.42 65.6301 135.37C65.6801 135.42 65.7301 135.48 65.7701 135.53Z" fill="#F35B74"/>
<path d="M65.7701 135.53C65.7201 135.48 65.6701 135.42 65.6301 135.37C65.6801 135.42 65.7301 135.48 65.7701 135.53Z" fill="#F35B74"/>
<path d="M69.2301 139.04C69.2301 139.04 69.1501 138.97 69.1101 138.93C69.1501 138.97 69.1901 139 69.2301 139.04Z" fill="#F35B74"/>
<path d="M69.2301 139.04C69.2301 139.04 69.1501 138.97 69.1101 138.93C69.1501 138.97 69.1901 139 69.2301 139.04Z" fill="#F35B74"/>
<path d="M69.0502 138.87C69.0502 138.87 68.9702 138.79 68.9202 138.75C68.9602 138.79 69.0002 138.83 69.0502 138.87Z" fill="#F35B74"/>
<path d="M69.0502 138.87C69.0502 138.87 68.9702 138.79 68.9202 138.75C68.9602 138.79 69.0002 138.83 69.0502 138.87Z" fill="#F35B74"/>
<path d="M69.41 139.2C69.41 139.2 69.33 139.13 69.3 139.1C69.34 139.13 69.38 139.17 69.41 139.2Z" fill="#F35B74"/>
<path d="M69.41 139.2C69.41 139.2 69.33 139.13 69.3 139.1C69.34 139.13 69.38 139.17 69.41 139.2Z" fill="#F35B74"/>
<path d="M69.58 139.35C69.58 139.35 69.51 139.29 69.47 139.25C69.51 139.29 69.54 139.32 69.58 139.35Z" fill="#F35B74"/>
<path d="M69.58 139.35C69.58 139.35 69.51 139.29 69.47 139.25C69.51 139.29 69.54 139.32 69.58 139.35Z" fill="#F35B74"/>
<path d="M68.87 138.69C68.87 138.69 68.78 138.61 68.74 138.56C68.79 138.6 68.83 138.65 68.87 138.69Z" fill="#F35B74"/>
<path d="M68.87 138.69C68.87 138.69 68.78 138.61 68.74 138.56C68.79 138.6 68.83 138.65 68.87 138.69Z" fill="#F35B74"/>
<path d="M68.2701 138.13C68.2101 138.07 68.1501 138.02 68.0901 137.95C68.1501 138.01 68.2101 138.07 68.2701 138.13Z" fill="#F35B74"/>
<path d="M68.2701 138.13C68.2101 138.07 68.1501 138.02 68.0901 137.95C68.1501 138.01 68.2101 138.07 68.2701 138.13Z" fill="#F35B74"/>
<path d="M68.4801 138.32C68.4301 138.27 68.3801 138.22 68.3201 138.17C68.3701 138.22 68.4301 138.27 68.4801 138.32Z" fill="#F35B74"/>
<path d="M68.4801 138.32C68.4301 138.27 68.3801 138.22 68.3201 138.17C68.3701 138.22 68.4301 138.27 68.4801 138.32Z" fill="#F35B74"/>
<path d="M68.67 138.51C68.67 138.51 68.57 138.42 68.53 138.37C68.58 138.42 68.63 138.46 68.67 138.51Z" fill="#F35B74"/>
<path d="M68.67 138.51C68.67 138.51 68.57 138.42 68.53 138.37C68.58 138.42 68.63 138.46 68.67 138.51Z" fill="#F35B74"/>
<path d="M64.2301 133.69C64.1801 133.63 64.1401 133.57 64.0901 133.51C64.1301 133.57 64.1801 133.63 64.2301 133.69Z" fill="#F35B74"/>
<path d="M64.2301 133.69C64.1801 133.63 64.1401 133.57 64.0901 133.51C64.1301 133.57 64.1801 133.63 64.2301 133.69Z" fill="#F35B74"/>
<path d="M62.29 130.83C62.26 130.78 62.23 130.73 62.2 130.67C62.23 130.72 62.26 130.78 62.29 130.83Z" fill="#F35B74"/>
<path d="M62.29 130.83C62.26 130.78 62.23 130.73 62.2 130.67C62.23 130.72 62.26 130.78 62.29 130.83Z" fill="#F35B74"/>
<path d="M62.7999 131.67C62.7599 131.61 62.7199 131.55 62.6899 131.49C62.7299 131.55 62.7599 131.61 62.7999 131.67Z" fill="#F35B74"/>
<path d="M62.7999 131.67C62.7599 131.61 62.7199 131.55 62.6899 131.49C62.7299 131.55 62.7599 131.61 62.7999 131.67Z" fill="#F35B74"/>
<path d="M61.9399 130.14C61.9399 130.14 61.9399 130.16 61.9499 130.16C61.9699 130.2 61.9899 130.23 61.9999 130.27C61.9799 130.22 61.9599 130.18 61.9399 130.13V130.14Z" fill="#F35B74"/>
<path d="M61.9399 130.14C61.9399 130.14 61.9399 130.16 61.9499 130.16C61.9699 130.2 61.9899 130.23 61.9999 130.27C61.9799 130.22 61.9599 130.18 61.9399 130.13V130.14Z" fill="#F35B74"/>
<path d="M62.9901 131.97C62.9501 131.9 62.9001 131.83 62.8601 131.77C62.9001 131.84 62.9501 131.9 62.9901 131.97Z" fill="#F35B74"/>
<path d="M62.9901 131.97C62.9501 131.9 62.9001 131.83 62.8601 131.77C62.9001 131.84 62.9501 131.9 62.9901 131.97Z" fill="#F35B74"/>
<path d="M67.2 137.05C67.5 137.35 67.79 137.65 68.07 137.92C67.79 137.64 67.5 137.35 67.2 137.05Z" fill="#F35B74"/>
<path d="M67.2 137.05C67.5 137.35 67.79 137.65 68.07 137.92C67.79 137.64 67.5 137.35 67.2 137.05Z" fill="#F35B74"/>
<path d="M64.4401 133.95C64.3901 133.9 64.3501 133.84 64.3101 133.78C64.3501 133.84 64.4001 133.9 64.4401 133.95Z" fill="#F35B74"/>
<path d="M64.4401 133.95C64.3901 133.9 64.3501 133.84 64.3101 133.78C64.3501 133.84 64.4001 133.9 64.4401 133.95Z" fill="#F35B74"/>
<path d="M64.87 134.49C64.82 134.44 64.78 134.38 64.73 134.33C64.77 134.38 64.82 134.44 64.87 134.49Z" fill="#F35B74"/>
<path d="M64.87 134.49C64.82 134.44 64.78 134.38 64.73 134.33C64.77 134.38 64.82 134.44 64.87 134.49Z" fill="#F35B74"/>
<path d="M64.66 134.23C64.61 134.17 64.57 134.12 64.52 134.06C64.56 134.12 64.61 134.17 64.66 134.23Z" fill="#F35B74"/>
<path d="M64.66 134.23C64.61 134.17 64.57 134.12 64.52 134.06C64.56 134.12 64.61 134.17 64.66 134.23Z" fill="#F35B74"/>
<path d="M69.7401 139.5C69.7401 139.5 69.6701 139.44 69.6301 139.4C69.6701 139.43 69.7001 139.46 69.7401 139.5Z" fill="#F35B74"/>
<path d="M69.7401 139.5C69.7401 139.5 69.6701 139.44 69.6301 139.4C69.6701 139.43 69.7001 139.46 69.7401 139.5Z" fill="#F35B74"/>
<path d="M63.41 132.6C63.34 132.5 63.28 132.41 63.22 132.32C63.28 132.42 63.35 132.51 63.41 132.6Z" fill="#F35B74"/>
<path d="M63.41 132.6C63.34 132.5 63.28 132.41 63.22 132.32C63.28 132.42 63.35 132.51 63.41 132.6Z" fill="#F35B74"/>
<path d="M63.6102 132.87C63.5402 132.78 63.4802 132.69 63.4102 132.59C63.4802 132.68 63.5402 132.77 63.6102 132.87Z" fill="#F35B74"/>
<path d="M63.6102 132.87C63.5402 132.78 63.4802 132.69 63.4102 132.59C63.4802 132.68 63.5402 132.77 63.6102 132.87Z" fill="#F35B74"/>
<path d="M66.69 136.53C66.64 136.48 66.58 136.42 66.53 136.36C66.58 136.41 66.64 136.47 66.69 136.53Z" fill="#F35B74"/>
<path d="M66.69 136.53C66.64 136.48 66.58 136.42 66.53 136.36C66.58 136.41 66.64 136.47 66.69 136.53Z" fill="#F35B74"/>
<path d="M70.78 140.43C70.78 140.43 70.75 140.4 70.73 140.38C70.75 140.4 70.77 140.41 70.78 140.43Z" fill="#F35B74"/>
<path d="M70.78 140.43C70.78 140.43 70.75 140.4 70.73 140.38C70.75 140.4 70.77 140.41 70.78 140.43Z" fill="#F35B74"/>
<path d="M70.7101 140.36C70.7101 140.36 70.6701 140.33 70.6501 140.31C70.6701 140.33 70.6901 140.35 70.7101 140.36Z" fill="#F35B74"/>
<path d="M70.7101 140.36C70.7101 140.36 70.6701 140.33 70.6501 140.31C70.6701 140.33 70.6901 140.35 70.7101 140.36Z" fill="#F35B74"/>
<path d="M69.89 139.64C69.89 139.64 69.82 139.58 69.79 139.55C69.82 139.58 69.86 139.61 69.89 139.64Z" fill="#F35B74"/>
<path d="M69.89 139.64C69.89 139.64 69.82 139.58 69.79 139.55C69.82 139.58 69.86 139.61 69.89 139.64Z" fill="#F35B74"/>
<path d="M70.6201 140.28C70.6201 140.28 70.5801 140.25 70.5601 140.23C70.5801 140.25 70.6001 140.26 70.6201 140.28Z" fill="#F35B74"/>
<path d="M70.6201 140.28C70.6201 140.28 70.5801 140.25 70.5601 140.23C70.5801 140.25 70.6001 140.26 70.6201 140.28Z" fill="#F35B74"/>
<path d="M70.8601 140.49C70.8601 140.49 70.8501 140.48 70.8401 140.47C70.8401 140.47 70.8501 140.48 70.8601 140.49Z" fill="#F35B74"/>
<path d="M70.8601 140.49C70.8601 140.49 70.8501 140.48 70.8401 140.47C70.8401 140.47 70.8501 140.48 70.8601 140.49Z" fill="#F35B74"/>
<path d="M70.1701 139.89C70.1701 139.89 70.1101 139.84 70.0801 139.81C70.1101 139.83 70.1401 139.86 70.1701 139.89Z" fill="#F35B74"/>
<path d="M70.1701 139.89C70.1701 139.89 70.1101 139.84 70.0801 139.81C70.1101 139.83 70.1401 139.86 70.1701 139.89Z" fill="#F35B74"/>
<path d="M70.0299 139.77C70.0299 139.77 69.9699 139.72 69.9399 139.69C69.9699 139.72 69.9999 139.74 70.0299 139.77Z" fill="#F35B74"/>
<path d="M70.0299 139.77C70.0299 139.77 69.9699 139.72 69.9399 139.69C69.9699 139.72 69.9999 139.74 70.0299 139.77Z" fill="#F35B74"/>
<path d="M70.52 140.2C70.52 140.2 70.47 140.16 70.45 140.14C70.48 140.16 70.5 140.18 70.52 140.2Z" fill="#F35B74"/>
<path d="M70.52 140.2C70.52 140.2 70.47 140.16 70.45 140.14C70.48 140.16 70.5 140.18 70.52 140.2Z" fill="#F35B74"/>
<path d="M70.3 140C70.3 140 70.25 139.95 70.22 139.93C70.25 139.95 70.28 139.98 70.3 140Z" fill="#F35B74"/>
<path d="M70.3 140C70.3 140 70.25 139.95 70.22 139.93C70.25 139.95 70.28 139.98 70.3 140Z" fill="#F35B74"/>
<path d="M70.4101 140.1C70.4101 140.1 70.3601 140.06 70.3301 140.03C70.3601 140.06 70.3801 140.08 70.4101 140.1Z" fill="#F35B74"/>
<path d="M70.4101 140.1C70.4101 140.1 70.3601 140.06 70.3301 140.03C70.3601 140.06 70.3801 140.08 70.4101 140.1Z" fill="#F35B74"/>
<path d="M61.2501 127.4C61.2501 124.28 63.7801 121.75 66.9001 121.75C67.2201 121.75 67.5201 121.77 67.8301 121.82C68.8801 121.95 69.8301 122.38 70.6201 123C70.5701 122.95 70.5101 122.9 70.4501 122.85C70.4401 122.84 70.4301 122.83 70.4101 122.82C70.3601 122.78 70.3001 122.73 70.2501 122.69C70.2301 122.68 70.2201 122.67 70.2001 122.65C70.1501 122.61 70.0901 122.57 70.0401 122.53C70.0201 122.52 70.0001 122.5 69.9801 122.49C69.9301 122.45 69.8701 122.42 69.8201 122.38C69.8001 122.37 69.7801 122.35 69.7601 122.34C69.7001 122.31 69.6501 122.27 69.5901 122.24C69.5701 122.23 69.5501 122.22 69.5301 122.21C69.4701 122.18 69.4101 122.14 69.3501 122.11C69.3501 122.11 69.3401 122.11 69.3301 122.11C69.2001 122.04 69.0601 121.98 68.9301 121.93C68.9101 121.93 68.9001 121.91 68.8801 121.91C68.8301 121.89 68.7801 121.87 68.7301 121.86C68.6901 121.85 68.6501 121.83 68.6101 121.82C68.5701 121.8 68.5201 121.79 68.4701 121.78C68.4301 121.76 68.3801 121.75 68.3401 121.74C68.2901 121.73 68.2501 121.72 68.2101 121.7C68.1601 121.7 68.1101 121.68 68.0701 121.67C68.0301 121.66 67.9801 121.65 67.9401 121.64C67.8901 121.64 67.8401 121.62 67.7901 121.61C67.7501 121.61 67.7101 121.59 67.6601 121.59C67.6101 121.59 67.5501 121.57 67.4901 121.57C67.4501 121.57 67.4101 121.56 67.3701 121.55C67.3101 121.55 67.2401 121.55 67.1801 121.54C67.1501 121.54 67.1201 121.54 67.0801 121.54C66.9801 121.54 66.8801 121.54 66.7901 121.54C65.6201 121.54 64.5401 121.89 63.6301 122.5C63.4001 122.65 63.1901 122.82 62.9901 123C62.8601 123.12 62.7301 123.25 62.6101 123.38C62.4901 123.51 62.3701 123.65 62.2701 123.8C62.1101 124.02 61.9601 124.25 61.8301 124.49C61.6501 124.81 61.5101 125.15 61.4001 125.5C61.3401 125.68 61.3001 125.86 61.2601 126.04C61.2201 126.22 61.1901 126.41 61.1701 126.6C61.1501 126.79 61.1401 126.98 61.1401 127.18C61.1401 127.26 61.1401 127.34 61.1401 127.42C61.1401 127.45 61.1401 127.47 61.1401 127.5C61.1401 127.56 61.1401 127.61 61.1501 127.67C61.1501 127.7 61.1501 127.73 61.1601 127.77C61.1601 127.82 61.1701 127.87 61.1801 127.92C61.1801 127.96 61.1901 127.99 61.2001 128.03C61.2001 128.08 61.2201 128.13 61.2301 128.17C61.2301 128.21 61.2501 128.25 61.2501 128.28C61.2601 128.33 61.2701 128.38 61.2801 128.43C61.2901 128.47 61.3001 128.51 61.3101 128.54C61.3201 128.59 61.3401 128.64 61.3501 128.69C61.3601 128.73 61.3701 128.77 61.3801 128.81C61.3901 128.86 61.4101 128.9 61.4301 128.95C61.4401 128.99 61.4601 129.03 61.4701 129.07C61.4901 129.12 61.5001 129.17 61.5201 129.22C61.5301 129.26 61.5501 129.3 61.5701 129.34C61.5901 129.39 61.6101 129.44 61.6301 129.49C61.6501 129.53 61.6601 129.57 61.6801 129.61C61.7001 129.66 61.7201 129.71 61.7401 129.76C61.7601 129.8 61.7701 129.84 61.7901 129.88C61.8101 129.93 61.8401 129.98 61.8601 130.03C61.8801 130.07 61.9001 130.11 61.9201 130.15C61.9201 130.15 61.9201 130.16 61.9201 130.17C61.4801 129.21 61.2201 128.28 61.2301 127.43L61.2501 127.4Z" fill="#F35B74"/>
<path d="M61.45 127.43C61.45 124.31 63.98 121.78 67.1 121.78C67.35 121.78 67.59 121.8 67.83 121.83C67.53 121.78 67.22 121.76 66.9 121.76C63.78 121.76 61.26 124.29 61.25 127.41C61.25 128.26 61.51 129.19 61.94 130.15C61.96 130.2 61.98 130.24 62 130.29C62.02 130.33 62.04 130.37 62.06 130.41C62.09 130.46 62.11 130.51 62.14 130.56C62.16 130.6 62.18 130.64 62.2 130.68C62.23 130.73 62.26 130.79 62.29 130.84C62.31 130.88 62.33 130.92 62.35 130.95C62.38 131 62.41 131.06 62.44 131.11C62.46 131.15 62.48 131.18 62.5 131.22C62.53 131.28 62.57 131.33 62.6 131.39C62.62 131.43 62.64 131.46 62.66 131.5C62.7 131.56 62.73 131.62 62.77 131.68C62.79 131.71 62.81 131.75 62.83 131.78C62.87 131.85 62.92 131.91 62.96 131.98C62.98 132 62.99 132.03 63.01 132.05C63.07 132.14 63.13 132.23 63.19 132.32C63.25 132.42 63.32 132.51 63.38 132.61C63.45 132.7 63.51 132.79 63.58 132.89C63.6 132.91 63.61 132.93 63.63 132.95C63.68 133.02 63.73 133.09 63.78 133.16C63.8 133.19 63.82 133.22 63.84 133.24C63.89 133.3 63.93 133.37 63.98 133.43C64 133.46 64.03 133.49 64.05 133.52C64.09 133.58 64.14 133.64 64.19 133.7C64.22 133.73 64.24 133.77 64.27 133.8C64.31 133.86 64.36 133.92 64.4 133.97C64.43 134 64.45 134.04 64.48 134.07C64.52 134.13 64.57 134.18 64.62 134.24C64.65 134.27 64.67 134.31 64.7 134.34C64.74 134.39 64.79 134.45 64.84 134.5C64.87 134.53 64.9 134.57 64.93 134.6C64.97 134.65 65.02 134.71 65.07 134.76C65.1 134.79 65.13 134.83 65.16 134.86C65.21 134.91 65.25 134.97 65.3 135.02C65.33 135.05 65.36 135.08 65.38 135.12C65.43 135.17 65.47 135.23 65.52 135.28C65.55 135.31 65.58 135.35 65.6 135.38C65.65 135.43 65.7 135.49 65.74 135.54C65.77 135.57 65.79 135.6 65.82 135.63C65.87 135.68 65.92 135.74 65.96 135.79C65.99 135.82 66.01 135.85 66.04 135.88C66.09 135.93 66.14 135.99 66.19 136.04C66.22 136.07 66.24 136.1 66.27 136.12C66.32 136.17 66.37 136.23 66.42 136.28C66.44 136.31 66.47 136.33 66.49 136.36C66.54 136.41 66.6 136.47 66.65 136.53C66.67 136.55 66.69 136.58 66.71 136.6C66.77 136.66 66.82 136.72 66.88 136.78C66.9 136.8 66.92 136.82 66.93 136.84C66.99 136.9 67.06 136.97 67.12 137.03C67.13 137.03 67.14 137.05 67.15 137.06C67.45 137.36 67.74 137.66 68.02 137.93C68.02 137.93 68.04 137.95 68.05 137.96C68.11 138.02 68.17 138.08 68.23 138.14C68.25 138.16 68.26 138.17 68.27 138.18C68.32 138.23 68.38 138.28 68.43 138.33C68.45 138.35 68.47 138.36 68.48 138.38C68.53 138.43 68.58 138.47 68.62 138.52C68.64 138.54 68.66 138.56 68.68 138.58C68.73 138.62 68.77 138.67 68.81 138.71C68.83 138.73 68.85 138.75 68.87 138.76C68.91 138.8 68.95 138.84 69 138.88C69.02 138.9 69.04 138.92 69.06 138.94C69.1 138.98 69.14 139.01 69.18 139.05C69.2 139.07 69.22 139.09 69.24 139.11C69.28 139.14 69.32 139.18 69.35 139.21C69.37 139.23 69.39 139.24 69.41 139.26C69.45 139.3 69.48 139.33 69.52 139.36C69.54 139.38 69.56 139.4 69.58 139.41C69.62 139.44 69.65 139.47 69.69 139.51C69.71 139.53 69.72 139.54 69.74 139.56C69.77 139.59 69.81 139.62 69.84 139.65C69.86 139.67 69.87 139.68 69.89 139.7C69.92 139.73 69.95 139.75 69.98 139.78C70 139.8 70.01 139.81 70.03 139.83C70.06 139.85 70.09 139.88 70.12 139.91C70.14 139.93 70.15 139.94 70.17 139.95C70.2 139.97 70.23 140 70.25 140.02C70.26 140.03 70.28 140.04 70.29 140.05C70.32 140.08 70.34 140.1 70.37 140.12C70.38 140.13 70.39 140.14 70.41 140.15C70.44 140.17 70.46 140.19 70.48 140.21C70.49 140.21 70.5 140.23 70.51 140.24C70.53 140.26 70.55 140.27 70.57 140.29C70.58 140.3 70.59 140.31 70.6 140.32C70.62 140.34 70.64 140.36 70.66 140.37C70.66 140.37 70.67 140.37 70.68 140.39C70.7 140.41 70.72 140.42 70.73 140.44C70.75 140.46 70.77 140.47 70.78 140.49C70.78 140.49 70.79 140.5 70.8 140.51C70.82 140.53 70.83 140.54 70.85 140.55C69.06 138.99 61.38 132.07 61.39 127.45L61.45 127.43Z" fill="#F35B74"/>
<path d="M61.4501 127.43C61.4501 124.31 63.9801 121.78 67.1001 121.78C67.3501 121.78 67.5901 121.8 67.8301 121.83C68.8801 121.96 69.8301 122.39 70.6201 123.01C70.5701 122.96 70.5101 122.91 70.4501 122.86C70.4401 122.85 70.4301 122.84 70.4101 122.83C70.3601 122.79 70.3001 122.74 70.2501 122.7C70.2301 122.69 70.2201 122.68 70.2001 122.66C70.1501 122.62 70.0901 122.58 70.0401 122.54C70.0201 122.53 70.0001 122.51 69.9801 122.5C69.9301 122.46 69.8701 122.43 69.8201 122.39C69.8001 122.38 69.7801 122.36 69.7601 122.35C69.7001 122.32 69.6501 122.28 69.5901 122.25C69.5701 122.24 69.5501 122.23 69.5301 122.22C69.4701 122.19 69.4101 122.15 69.3501 122.12C69.3501 122.12 69.3401 122.12 69.3301 122.12C69.2001 122.05 69.0601 121.99 68.9301 121.94C68.9101 121.94 68.9001 121.92 68.8801 121.92C68.8301 121.9 68.7801 121.88 68.7301 121.87C68.6901 121.86 68.6501 121.84 68.6101 121.83C68.5701 121.81 68.5201 121.8 68.4701 121.79C68.4301 121.77 68.3801 121.76 68.3401 121.75C68.2901 121.74 68.2501 121.73 68.2101 121.71C68.1601 121.71 68.1101 121.69 68.0701 121.68C68.0301 121.67 67.9801 121.66 67.9401 121.65C67.8901 121.65 67.8401 121.63 67.7901 121.62C67.7501 121.62 67.7101 121.6 67.6601 121.6C67.6101 121.6 67.5501 121.58 67.4901 121.58C67.4501 121.58 67.4101 121.57 67.3701 121.56C67.3101 121.56 67.2401 121.56 67.1801 121.55C67.1501 121.55 67.1201 121.55 67.0801 121.55C66.9801 121.55 66.8801 121.55 66.7901 121.55C65.6201 121.55 64.5401 121.9 63.6301 122.51C63.4001 122.66 63.1901 122.83 62.9901 123.01C62.8601 123.13 62.7301 123.26 62.6101 123.39C62.4901 123.52 62.3701 123.66 62.2701 123.81C62.1101 124.03 61.9601 124.26 61.8301 124.5C61.6501 124.82 61.5101 125.16 61.4001 125.51C61.3401 125.69 61.3001 125.87 61.2601 126.05C61.2201 126.23 61.1901 126.42 61.1701 126.61C61.1501 126.8 61.1401 126.99 61.1401 127.19C61.1401 127.27 61.1401 127.35 61.1401 127.43C61.1401 127.46 61.1401 127.48 61.1401 127.51C61.1401 127.57 61.1401 127.62 61.1501 127.68C61.1501 127.71 61.1501 127.74 61.1601 127.78C61.1601 127.83 61.1701 127.88 61.1801 127.93C61.1801 127.97 61.1901 128 61.2001 128.04C61.2001 128.09 61.2201 128.14 61.2301 128.18C61.2301 128.22 61.2501 128.26 61.2501 128.29C61.2601 128.34 61.2701 128.39 61.2801 128.44C61.2901 128.48 61.3001 128.52 61.3101 128.55C61.3201 128.6 61.3401 128.65 61.3501 128.7C61.3601 128.74 61.3701 128.78 61.3801 128.82C61.3901 128.87 61.4101 128.91 61.4301 128.96C61.4401 129 61.4601 129.04 61.4701 129.08C61.4901 129.13 61.5001 129.18 61.5201 129.23C61.5301 129.27 61.5501 129.31 61.5701 129.35C61.5901 129.4 61.6101 129.45 61.6301 129.5C61.6501 129.54 61.6601 129.58 61.6801 129.62C61.7001 129.67 61.7201 129.72 61.7401 129.77C61.7601 129.81 61.7701 129.85 61.7901 129.89C61.8101 129.94 61.8401 129.99 61.8601 130.04C61.8801 130.08 61.9001 130.12 61.9201 130.16C61.9201 130.16 61.9201 130.17 61.9201 130.18C61.9401 130.23 61.9601 130.27 61.9801 130.32C62.0001 130.36 62.0201 130.4 62.0401 130.44C62.0701 130.49 62.0901 130.54 62.1201 130.59C62.1401 130.63 62.1601 130.67 62.1801 130.71C62.2101 130.76 62.2401 130.82 62.2701 130.87C62.2901 130.91 62.3101 130.95 62.3301 130.98C62.3601 131.03 62.3901 131.09 62.4201 131.14C62.4401 131.18 62.4601 131.21 62.4801 131.25C62.5101 131.31 62.5501 131.36 62.5801 131.42C62.6001 131.46 62.6201 131.49 62.6401 131.53C62.6801 131.59 62.7101 131.65 62.7501 131.71C62.7701 131.74 62.7901 131.78 62.8101 131.81C62.8501 131.88 62.9001 131.94 62.9401 132.01C62.9601 132.03 62.9701 132.06 62.9901 132.08C63.0501 132.17 63.1101 132.26 63.1701 132.35C63.2301 132.45 63.3001 132.54 63.3601 132.64C63.4301 132.73 63.4901 132.82 63.5601 132.92C63.5801 132.94 63.5901 132.96 63.6101 132.98C63.6601 133.05 63.7101 133.12 63.7601 133.19C63.7801 133.22 63.8001 133.25 63.8201 133.27C63.8701 133.33 63.9101 133.4 63.9601 133.46C63.9801 133.49 64.0101 133.52 64.0301 133.55C64.0701 133.61 64.1201 133.67 64.1701 133.73C64.2001 133.76 64.2201 133.8 64.2501 133.83C64.2901 133.89 64.3401 133.95 64.3801 134C64.4101 134.03 64.4301 134.07 64.4601 134.1C64.5001 134.16 64.5501 134.21 64.6001 134.27C64.6301 134.3 64.6501 134.34 64.6801 134.37C64.7201 134.42 64.7701 134.48 64.8201 134.53C64.8501 134.56 64.8801 134.6 64.9101 134.63C64.9501 134.68 65.0001 134.74 65.0501 134.79C65.0801 134.82 65.1101 134.86 65.1401 134.89C65.1901 134.94 65.2301 135 65.2801 135.05C65.3101 135.08 65.3401 135.11 65.3601 135.15C65.4101 135.2 65.4501 135.26 65.5001 135.31C65.5301 135.34 65.5601 135.38 65.5801 135.41C65.6301 135.46 65.6801 135.52 65.7201 135.57C65.7501 135.6 65.7701 135.63 65.8001 135.66C65.8501 135.71 65.9001 135.77 65.9401 135.82C65.9701 135.85 65.9901 135.88 66.0201 135.91C66.0701 135.96 66.1201 136.02 66.1701 136.07C66.2001 136.1 66.2201 136.13 66.2501 136.15C66.3001 136.2 66.3501 136.26 66.4001 136.31C66.4201 136.34 66.4501 136.36 66.4701 136.39C66.5201 136.44 66.5801 136.5 66.6301 136.56C66.6501 136.58 66.6701 136.61 66.6901 136.63C66.7501 136.69 66.8001 136.75 66.8601 136.81C66.8801 136.83 66.9001 136.85 66.9101 136.87C66.9701 136.93 67.0401 137 67.1001 137.06C67.1101 137.06 67.1201 137.08 67.1301 137.09C67.4301 137.39 67.7201 137.69 68.0001 137.96C68.0001 137.96 68.0201 137.98 68.0301 137.99C68.0901 138.05 68.1501 138.11 68.2101 138.17C68.2301 138.19 68.2401 138.2 68.2501 138.21C68.3001 138.26 68.3601 138.31 68.4101 138.36C68.4301 138.38 68.4501 138.39 68.4601 138.41C68.5101 138.46 68.5601 138.5 68.6001 138.55C68.6201 138.57 68.6401 138.59 68.6601 138.61C68.7101 138.65 68.7501 138.7 68.7901 138.74C68.8101 138.76 68.8301 138.78 68.8501 138.79C68.8901 138.83 68.9301 138.87 68.9801 138.91C69.0001 138.93 69.0201 138.95 69.0401 138.97C69.0801 139.01 69.1201 139.04 69.1601 139.08C69.1801 139.1 69.2001 139.12 69.2201 139.14C69.2601 139.17 69.3001 139.21 69.3301 139.24C69.3501 139.26 69.3701 139.27 69.3901 139.29C69.4301 139.33 69.4601 139.36 69.5001 139.39C69.5201 139.41 69.5401 139.43 69.5601 139.44C69.6001 139.47 69.6301 139.5 69.6701 139.54C69.6901 139.56 69.7001 139.57 69.7201 139.59C69.7501 139.62 69.7901 139.65 69.8201 139.68C69.8401 139.7 69.8501 139.71 69.8701 139.73C69.9001 139.76 69.9301 139.78 69.9601 139.81C69.9801 139.83 69.9901 139.84 70.0101 139.86C70.0401 139.88 70.0701 139.91 70.1001 139.94C70.1201 139.96 70.1301 139.97 70.1501 139.98C70.1801 140 70.2101 140.03 70.2301 140.05C70.2401 140.06 70.2601 140.07 70.2701 140.08C70.3001 140.11 70.3201 140.13 70.3501 140.15C70.3601 140.16 70.3701 140.17 70.3901 140.18C70.4201 140.2 70.4401 140.22 70.4601 140.24C70.4701 140.24 70.4801 140.26 70.4901 140.27C70.5101 140.29 70.5301 140.3 70.5501 140.32C70.5601 140.33 70.5701 140.34 70.5801 140.35C70.6001 140.37 70.6201 140.39 70.6401 140.4C70.6401 140.4 70.6501 140.4 70.6601 140.42C70.6801 140.44 70.7001 140.45 70.7101 140.47C70.7301 140.49 70.7501 140.5 70.7601 140.52C70.7601 140.52 70.7701 140.53 70.7801 140.54C70.8001 140.56 70.8101 140.57 70.8301 140.58C69.0401 139.02 61.3601 132.1 61.3701 127.48L61.4501 127.43Z" fill="#F35B74"/>
<path d="M76.3801 121.65C76.3801 121.65 76.4801 121.67 76.5201 121.68C76.4701 121.67 76.4201 121.66 76.3801 121.65Z" fill="#F35B74"/>
<path d="M73.96 121.65C73.96 121.65 74.03 121.64 74.07 121.63C74.03 121.63 74 121.64 73.96 121.65Z" fill="#F35B74"/>
<path d="M74.26 121.59C74.26 121.59 74.35 121.58 74.39 121.57C74.34 121.57 74.3 121.58 74.26 121.59Z" fill="#F35B74"/>
<path d="M73.6799 121.72C73.6799 121.72 73.7299 121.7 73.7599 121.7C73.7299 121.7 73.6999 121.71 73.6799 121.72Z" fill="#F35B74"/>
<path d="M76.6401 121.72C76.6401 121.72 76.7301 121.74 76.7801 121.76C76.7301 121.74 76.6901 121.73 76.6401 121.72Z" fill="#F35B74"/>
<path d="M75.8401 121.56C75.8901 121.56 75.9501 121.57 76.0001 121.58C75.9501 121.58 75.8901 121.56 75.8401 121.56Z" fill="#F35B74"/>
<path d="M76.9001 121.8C76.9001 121.8 76.9901 121.83 77.0301 121.84C76.9901 121.83 76.9401 121.81 76.9001 121.8Z" fill="#F35B74"/>
<path d="M74.5601 121.55C74.6201 121.55 74.6801 121.54 74.7401 121.53C74.6801 121.53 74.6201 121.53 74.5601 121.55Z" fill="#F35B74"/>
<path d="M73.1201 121.9C73.1201 121.9 73.1501 121.89 73.1701 121.88C73.1601 121.88 73.1401 121.88 73.1201 121.9Z" fill="#F35B74"/>
<path d="M73.3901 121.8C73.3901 121.8 73.4301 121.79 73.4501 121.78C73.4301 121.78 73.4101 121.79 73.3901 121.8Z" fill="#F35B74"/>
<path d="M78.3 122.5C78.3 122.5 78.37 122.55 78.41 122.58C78.37 122.56 78.34 122.53 78.3 122.5Z" fill="#F35B74"/>
<path d="M78.0901 122.35C78.0901 122.35 78.1601 122.4 78.2001 122.43C78.1601 122.41 78.1301 122.38 78.0901 122.35Z" fill="#F35B74"/>
<path d="M75.54 121.53C75.6 121.53 75.66 121.53 75.73 121.55C75.67 121.55 75.61 121.54 75.54 121.53Z" fill="#F35B74"/>
<path d="M78.9 122.98C78.84 122.92 78.78 122.87 78.71 122.81C78.78 122.86 78.84 122.92 78.9 122.98Z" fill="#F35B74"/>
<path d="M78.51 122.65C78.51 122.65 78.58 122.71 78.62 122.74C78.58 122.71 78.55 122.68 78.51 122.65Z" fill="#F35B74"/>
<path d="M72.8501 122.01C72.8501 122.01 72.8701 122.01 72.8801 122C72.8701 122 72.8601 122 72.8501 122.01Z" fill="#F35B74"/>
<path d="M77.6301 122.1C77.6301 122.1 77.7101 122.14 77.7501 122.16C77.7101 122.14 77.6701 122.12 77.6301 122.1Z" fill="#F35B74"/>
<path d="M77.8601 122.22C77.8601 122.22 77.9401 122.26 77.9801 122.29C77.9401 122.27 77.9001 122.24 77.8601 122.22Z" fill="#F35B74"/>
<path d="M77.1501 121.89C77.1501 121.89 77.2401 121.92 77.2801 121.94C77.2401 121.92 77.2001 121.9 77.1501 121.89Z" fill="#F35B74"/>
<path d="M77.3901 121.99C77.3901 121.99 77.4701 122.03 77.5201 122.05C77.4801 122.03 77.4401 122.01 77.3901 121.99Z" fill="#F35B74"/>
<path d="M71.17 123.52C72.2 122.43 73.66 121.75 75.27 121.75C75.58 121.75 75.88 121.77 76.17 121.82C77.2 121.95 78.13 122.36 78.89 122.98C78.83 122.92 78.77 122.87 78.7 122.81C78.67 122.79 78.64 122.76 78.61 122.73C78.57 122.7 78.54 122.67 78.5 122.64C78.47 122.61 78.43 122.59 78.4 122.56C78.36 122.54 78.33 122.51 78.29 122.48C78.26 122.46 78.22 122.43 78.19 122.41C78.15 122.39 78.12 122.36 78.08 122.33C78.04 122.31 78.01 122.29 77.97 122.27C77.93 122.25 77.89 122.22 77.85 122.2C77.81 122.18 77.78 122.16 77.74 122.14C77.7 122.12 77.66 122.1 77.62 122.08C77.58 122.06 77.54 122.04 77.51 122.03C77.47 122.01 77.43 121.99 77.38 121.97C77.34 121.95 77.3 121.94 77.27 121.92C77.23 121.9 77.19 121.88 77.14 121.87C77.1 121.86 77.06 121.84 77.02 121.82C76.98 121.81 76.93 121.79 76.89 121.78C76.85 121.77 76.81 121.76 76.77 121.74C76.72 121.72 76.68 121.71 76.63 121.7C76.59 121.7 76.55 121.68 76.51 121.67C76.46 121.66 76.41 121.65 76.37 121.64C76.33 121.64 76.29 121.62 76.25 121.61C76.2 121.6 76.15 121.59 76.1 121.58C76.06 121.58 76.02 121.57 75.99 121.56C75.94 121.56 75.88 121.54 75.83 121.54C75.79 121.54 75.76 121.53 75.72 121.53C75.66 121.53 75.6 121.52 75.53 121.51C75.5 121.51 75.47 121.51 75.44 121.51C75.35 121.51 75.25 121.51 75.16 121.51C75.06 121.51 74.95 121.51 74.85 121.51C74.81 121.51 74.77 121.51 74.73 121.51C74.67 121.51 74.61 121.51 74.55 121.53C74.5 121.53 74.44 121.54 74.39 121.55C74.34 121.55 74.3 121.56 74.26 121.57C74.2 121.58 74.13 121.59 74.07 121.61C74.03 121.61 74 121.62 73.96 121.63C73.89 121.64 73.82 121.66 73.76 121.68C73.73 121.68 73.7 121.69 73.68 121.7C73.6 121.72 73.53 121.74 73.46 121.77C73.44 121.77 73.42 121.78 73.4 121.79C73.32 121.81 73.25 121.84 73.17 121.87C73.16 121.87 73.14 121.87 73.12 121.89C73.04 121.92 72.96 121.95 72.88 121.99C72.87 121.99 72.86 121.99 72.85 122C72.77 122.04 72.69 122.08 72.61 122.12C72.61 122.12 72.6 122.12 72.59 122.12C72.51 122.17 72.42 122.21 72.34 122.26C71.84 122.55 71.39 122.92 71 123.34C71.06 123.4 71.11 123.45 71.17 123.51V123.52Z" fill="#F35B74"/>
<path d="M75.4699 121.78C75.7099 121.78 75.9499 121.8 76.1799 121.83C75.8899 121.78 75.5899 121.76 75.2799 121.76C73.6599 121.76 72.2099 122.44 71.1799 123.53C71.2199 123.57 71.2599 123.61 71.2899 123.65C72.3199 122.51 73.8199 121.79 75.4799 121.79L75.4699 121.78Z" fill="#F35B74"/>
<path d="M78.71 122.81C78.71 122.81 78.65 122.76 78.62 122.73C78.58 122.7 78.55 122.67 78.51 122.64C78.48 122.61 78.44 122.59 78.41 122.56C78.37 122.54 78.34 122.51 78.3 122.48C78.27 122.46 78.23 122.43 78.2 122.41C78.16 122.39 78.13 122.36 78.09 122.33C78.05 122.31 78.02 122.29 77.98 122.27C77.94 122.25 77.9 122.22 77.86 122.2C77.82 122.18 77.79 122.16 77.75 122.14C77.71 122.12 77.67 122.1 77.63 122.08C77.59 122.06 77.55 122.04 77.52 122.03C77.48 122.01 77.44 121.99 77.39 121.97C77.35 121.95 77.31 121.94 77.28 121.92C77.24 121.9 77.2 121.88 77.15 121.87C77.11 121.86 77.07 121.84 77.03 121.82C76.99 121.81 76.94 121.79 76.9 121.78C76.86 121.77 76.82 121.76 76.78 121.74C76.73 121.72 76.69 121.71 76.64 121.7C76.6 121.7 76.56 121.68 76.52 121.67C76.47 121.66 76.42 121.65 76.38 121.64C76.34 121.64 76.3 121.62 76.26 121.61C76.21 121.6 76.16 121.59 76.11 121.58C76.07 121.58 76.03 121.57 76 121.56C75.95 121.56 75.89 121.54 75.84 121.54C75.8 121.54 75.77 121.53 75.73 121.53C75.67 121.53 75.61 121.52 75.54 121.51C75.51 121.51 75.48 121.51 75.45 121.51C75.36 121.51 75.26 121.51 75.17 121.51C75.07 121.51 74.96 121.51 74.86 121.51C74.82 121.51 74.78 121.51 74.74 121.51C74.68 121.51 74.62 121.51 74.56 121.53C74.51 121.53 74.45 121.54 74.4 121.55C74.35 121.55 74.31 121.56 74.27 121.57C74.21 121.58 74.14 121.59 74.08 121.61C74.04 121.61 74.01 121.62 73.97 121.63C73.9 121.64 73.83 121.66 73.77 121.68C73.74 121.68 73.71 121.69 73.69 121.7C73.61 121.72 73.54 121.74 73.47 121.77C73.45 121.77 73.43 121.78 73.41 121.79C73.33 121.81 73.26 121.84 73.18 121.87C73.17 121.87 73.15 121.87 73.13 121.89C73.05 121.92 72.97 121.95 72.89 121.99C72.88 121.99 72.87 121.99 72.86 122C72.78 122.04 72.7 122.08 72.62 122.12C72.62 122.12 72.61 122.12 72.6 122.12C72.52 122.17 72.43 122.21 72.35 122.26C71.85 122.55 71.4 122.92 71.01 123.34V124.02C71.01 124.02 71.27 123.64 71.29 123.62C72.32 122.48 73.82 121.76 75.48 121.76C75.72 121.76 75.96 121.78 76.19 121.81C77.22 121.94 78.15 122.35 78.91 122.97C78.85 122.91 78.79 122.86 78.72 122.8L78.71 122.81Z" fill="#F35B74"/>
<path d="M68.94 125.58V127.98H66.55V131.88H68.94V134.27H71V125.58H68.94Z" fill="white"/>
<path d="M72.84 127.98V125.58H71V134.27H72.84V131.88H75.23V127.98H72.84Z" fill="white"/>
<path d="M98.3499 126.55C98.3499 127.22 97.8099 127.76 97.1399 127.76C96.4699 127.76 95.9299 127.22 95.9299 126.55C95.9299 125.88 96.4699 125.34 97.1399 125.34C97.8099 125.34 98.3499 125.88 98.3499 126.55Z" fill="white"/>
<path d="M98.3499 133.15C98.3499 133.82 97.8099 134.36 97.1399 134.36C96.4699 134.36 95.9299 133.82 95.9299 133.15C95.9299 132.48 96.4699 131.94 97.1399 131.94C97.8099 131.94 98.3499 132.48 98.3499 133.15Z" fill="white"/>
<path d="M98.3499 139.75C98.3499 140.42 97.8099 140.96 97.1399 140.96C96.4699 140.96 95.9299 140.42 95.9299 139.75C95.9299 139.08 96.4699 138.54 97.1399 138.54C97.8099 138.54 98.3499 139.08 98.3499 139.75Z" fill="white"/>
<path d="M98.3499 146.35C98.3499 147.02 97.8099 147.56 97.1399 147.56C96.4699 147.56 95.9299 147.02 95.9299 146.35C95.9299 145.68 96.4699 145.14 97.1399 145.14C97.8099 145.14 98.3499 145.68 98.3499 146.35Z" fill="white"/>
<path d="M113.31 27.4698C110.49 17.9998 100.16 16.2398 94.3601 15.7998V39.3698C100.33 41.7798 106.54 42.1298 105.66 41.2398C104.3 39.8798 104.47 34.7798 104.47 34.7798C104.47 34.7798 108.29 39.6798 110.19 45.4698C110.19 45.4698 110.19 45.4698 110.19 45.4798C110.41 46.1398 110.6 46.8098 110.76 47.4898C110.76 47.4898 112.15 45.7998 113.15 42.3898C114.13 39.0598 114.73 34.0998 113.31 27.4598V27.4698Z" fill="#694A2B"/>
<path d="M90.55 15.5696C88.52 15.2296 83.23 14.3796 80 19.9896C67.43 19.1396 71.01 44.4896 72.37 43.8596C73.73 43.1796 76.6 48.8896 76.6 48.8896C75.75 45.4896 76.94 33.0796 76.94 33.0796C76.94 33.0796 81.58 27.4396 86.16 33.6196C88.08 36.2096 91.19 38.0896 94.37 39.3696V15.7996C92.47 15.6596 91.05 15.6496 90.55 15.5696Z" fill="#8C6239"/>
<path d="M115.32 35.5398L114.15 34.7798C114.15 34.7798 113.96 39.3498 113.81 39.4398L115.07 39.9898C115.32 38.6098 115.32 35.5398 115.32 35.5398Z" fill="#868686"/>
<path d="M70.8401 34.7798C70.8401 34.7798 70.8901 38.4098 71.1301 39.6098L94.3601 39.5198V34.7798H70.8401Z" fill="#F2F2F2"/>
<path d="M114.16 34.7798H94.3701V39.5198L113.82 39.4398C114.12 38.4598 114.16 34.7798 114.16 34.7798Z" fill="#B3B3B3"/>
<path d="M119.04 18.3599L102.21 35.1899C102.6 35.4099 103.01 35.6199 103.43 35.7999L119.65 19.5799C119.47 19.1599 119.26 18.7599 119.04 18.3599Z" fill="#CCCCCC"/>
<path d="M107.93 36.7698C108.05 36.7698 108.16 36.7898 108.28 36.7898C115.1 36.7898 120.64 31.2598 120.64 24.4298C120.64 24.3098 120.63 24.1898 120.62 24.0698L107.93 36.7598V36.7698Z" fill="#CCCCCC"/>
<path d="M95.99 23.1599L107.02 12.1299C101.21 12.7199 96.59 17.3399 95.99 23.1599Z" fill="#CCCCCC"/>
<path d="M105.51 24.4299C105.51 22.8999 106.75 21.6499 108.29 21.6499C108.86 21.6499 109.38 21.8199 109.82 22.1099L116.61 15.3099C115.3 14.1099 113.73 13.1799 111.99 12.6299L96.5 28.1199C97.05 29.8599 97.98 31.4199 99.17 32.7399L105.97 25.9399C105.68 25.4999 105.51 24.9799 105.51 24.4099V24.4299Z" fill="#CCCCCC"/>
<path d="M108.28 12.0698C107.85 12.0698 107.43 12.0898 107.01 12.1298L95.9802 23.1598C95.9402 23.5798 95.9202 23.9998 95.9202 24.4298C95.9202 25.7198 96.1202 26.9598 96.4902 28.1298L111.98 12.6398C110.81 12.2698 109.57 12.0698 108.27 12.0698H108.28Z" fill="white"/>
<path d="M116.61 15.3101L109.82 22.1101C110.57 22.6101 111.07 23.4601 111.07 24.4301C111.07 25.9701 109.83 27.2101 108.29 27.2101C107.32 27.2101 106.47 26.7101 105.97 25.9601L99.1702 32.7601C100.05 33.7201 101.07 34.5501 102.21 35.1901L119.04 18.3601C118.39 17.2201 117.57 16.1901 116.61 15.3201V15.3101Z" fill="white"/>
<path d="M119.65 19.5698L103.43 35.7898C104.82 36.3798 106.34 36.7198 107.93 36.7698L120.62 24.0798C120.58 22.4898 120.24 20.9698 119.64 19.5798L119.65 19.5698Z" fill="white"/>
</g>
</g>
<defs>
<clipPath id="clip0_143_361">
<rect width="188.23" height="188.23" fill="white"/>
</clipPath>
</defs>
</svg>
