<svg width="280" height="76" viewBox="0 0 280 76" fill="none" xmlns="http://www.w3.org/2000/svg">
<path d="M44.4771 42.7808L43.6939 43.566L42.6121 44.6478L41.5303 45.7296L24.8712 62.3887L22.7828 64.475L2.74885 44.439C-0.916283 40.7738 -0.916283 34.8365 2.74885 31.1735L23.0439 10.8784L24.867 12.7016L41.5262 29.3607L44.4771 32.3116C47.3695 35.2041 47.3695 39.8925 44.4771 42.7849V42.7808Z" fill="url(#paint0_linear_216_20)"/>
<path d="M47.2526 44.7272C49.1676 42.8121 50.2243 40.2622 50.2243 37.5473C50.2243 34.8323 49.1676 32.2824 47.2484 30.3632L31.6376 14.7524L33.394 12.9919C34.7055 11.6804 36.4221 11.0226 38.1472 11.0226C39.8722 11.0226 41.5847 11.6804 42.8962 12.9919L45.3396 15.4395L60.4512 30.549L61.4328 31.5306L62.4143 32.5142L63.1285 33.2285C65.7536 35.8515 65.7536 40.1035 63.1285 42.7265L62.4185 43.4407L61.4369 44.4223L60.4554 45.4059L45.3417 60.5154L42.8941 62.9589C41.5826 64.2724 39.8617 64.9303 38.1451 64.9303C36.4284 64.9303 34.7034 64.2724 33.3919 62.9589L31.2095 60.7765L44.3873 47.5987L45.4377 46.5461L46.4882 45.4957L47.2505 44.7292L47.2526 44.7272Z" fill="url(#paint1_linear_216_20)"/>
<path d="M73.3596 44.4619L72.3655 45.4623L70.9872 46.8364L69.6088 48.2148L48.4158 69.4078L44.9804 72.8349C43.1426 74.6768 40.7326 75.5957 38.3184 75.5957C35.9042 75.5957 33.4921 74.6768 31.6543 72.8349L25.5854 66.766L28.6032 63.7483L30.8628 66.01C32.7591 67.9042 35.2777 68.9484 37.9571 68.9484C40.6365 68.9484 43.153 67.9021 45.0493 66.01L63.2183 47.841L64.2375 46.826L65.2524 45.8069L65.9917 45.0655C67.8817 43.1755 68.9238 40.6611 68.9238 37.9796C68.9238 35.2981 67.8817 32.7815 65.9875 30.8874L65.2482 30.1502L64.2333 29.1352L63.2142 28.1202L47.5783 12.4802L45.0493 9.9512C43.153 8.05494 40.6344 7.01283 37.9571 7.01283C35.2798 7.01283 32.7591 8.05494 30.8628 9.9512L29.0438 11.7702L25.8444 8.57077L31.6543 2.76086C33.4921 0.923071 35.9021 0 38.3184 0C40.7347 0 43.1405 0.923071 44.9804 2.76086L48.4116 6.18791L69.6046 27.3809L70.983 28.7593L72.3571 30.1376L73.3575 31.1359C77.0352 34.8177 77.0352 40.7801 73.3575 44.4619H73.3596Z" fill="url(#paint2_linear_216_20)"/>
<path d="M105.671 55.1065C107.812 55.1065 109.543 54.457 110.865 53.1538C112.187 51.8528 112.847 50.1319 112.847 47.9913V30.8665H119.772V47.7386C119.772 49.8792 119.436 51.811 118.765 53.5297C118.093 55.2506 117.149 56.7208 115.932 57.9363C114.714 59.1538 113.233 60.0873 111.494 60.7389C109.752 61.3884 107.812 61.7142 105.671 61.7142C103.531 61.7142 101.588 61.3884 99.8488 60.7389C98.1071 60.0894 96.6159 59.1559 95.3796 57.9363C94.1412 56.7187 93.1868 55.2506 92.5143 53.5297C91.8419 51.8089 91.5077 49.8792 91.5077 47.7386V30.8665H98.4328V47.9913C98.4328 50.1319 99.1032 51.8528 100.448 53.1538C101.791 54.4549 103.533 55.1065 105.673 55.1065H105.671Z" fill="#065084"/>
<path d="M140.236 37.163C138.012 37.163 136.247 37.7728 134.948 38.9882C133.647 40.2058 132.996 41.864 132.996 43.9628V61.0876H126.071V44.2155C126.071 42.0749 126.407 40.1452 127.077 38.4244C127.748 36.7035 128.704 35.2354 129.943 34.0179C131.181 32.8003 132.67 31.8668 134.412 31.2152C136.153 30.5658 138.096 30.24 140.234 30.24V37.1651L140.236 37.163Z" fill="#065084"/>
<path d="M142.755 45.9781C142.755 43.754 143.164 41.6864 143.983 39.7777C144.801 37.8689 145.913 36.2002 147.32 34.7718C148.726 33.3454 150.394 32.2323 152.326 31.4345C154.256 30.6367 156.313 30.2379 158.495 30.2379C160.677 30.2379 162.787 30.6367 164.696 31.4345C166.604 32.2323 168.273 33.3454 169.701 34.7718C171.128 36.1981 172.241 37.8668 173.039 39.7777C173.836 41.6885 174.235 43.754 174.235 45.9781C174.235 48.2022 173.836 50.2175 173.039 52.1472C172.241 54.079 171.128 55.7476 169.701 57.1531C168.275 58.5607 166.606 59.6717 164.696 60.4904C162.785 61.309 160.719 61.7183 158.495 61.7183C156.271 61.7183 154.256 61.309 152.326 60.4904C150.394 59.6717 148.726 58.5607 147.32 57.1531C145.913 55.7476 144.801 54.079 143.983 52.1472C143.164 50.2175 142.755 48.1605 142.755 45.9781ZM149.68 45.9781C149.68 47.2374 149.91 48.4027 150.373 49.472C150.835 50.5433 151.453 51.4664 152.23 52.2412C153.007 53.0181 153.93 53.6362 154.999 54.0978C156.068 54.5593 157.234 54.7911 158.493 54.7911C159.752 54.7911 160.918 54.5614 161.987 54.0978C163.058 53.6362 163.992 53.0181 164.789 52.2412C165.587 51.4643 166.205 50.5412 166.646 49.472C167.087 48.4027 167.308 47.2374 167.308 45.9781C167.308 44.7188 167.089 43.5535 166.646 42.4842C166.205 41.415 165.585 40.4814 164.789 39.6816C163.992 38.8859 163.058 38.2657 161.987 37.825C160.918 37.3843 159.752 37.163 158.493 37.163C157.234 37.163 156.068 37.3843 154.999 37.825C153.93 38.2657 153.005 38.8859 152.23 39.6816C151.453 40.4794 150.833 41.4129 150.373 42.4842C149.912 43.5535 149.68 44.7188 149.68 45.9781Z" fill="#065084"/>
<path d="M186.193 73.05H179.268V42.2002H186.193V46.2914C186.193 47.4671 186.413 48.5802 186.856 49.6286C187.296 50.6791 187.893 51.5813 188.649 52.3352C189.405 53.0912 190.295 53.6885 191.325 54.1291C192.352 54.5698 193.476 54.7911 194.693 54.7911C195.911 54.7911 196.97 54.5698 197.999 54.1291C199.027 53.6885 199.929 53.0912 200.706 52.3352C201.483 51.5792 202.09 50.677 202.531 49.6286C202.972 48.5802 203.193 47.4671 203.193 46.2914C203.193 45.1156 202.972 43.9524 202.531 42.9228C202.09 41.8953 201.481 41.0015 200.706 40.2476C199.929 39.4916 199.027 38.8943 197.999 38.4536C196.97 38.013 195.869 37.7916 194.693 37.7916H179.268V30.8665H194.693C196.834 30.8665 198.849 31.2654 200.737 32.0631C202.625 32.8609 204.262 33.951 205.647 35.3377C207.031 36.7223 208.124 38.3492 208.921 40.2162C209.719 42.0832 210.118 44.109 210.118 46.2914C210.118 48.4737 209.73 50.4473 208.953 52.3352C208.176 54.2231 207.128 55.8604 205.806 57.245C204.484 58.6296 202.919 59.7218 201.115 60.5196C199.311 61.3153 197.358 61.7162 195.259 61.7162C193.497 61.7162 191.859 61.4427 190.349 60.8976C188.839 60.3525 187.453 59.5965 186.193 58.6317V73.05Z" fill="#065084"/>
<path d="M213.896 45.9781C213.896 43.7122 214.282 41.6134 215.061 39.6816C215.838 37.7519 216.918 36.0833 218.305 34.6757C219.689 33.2702 221.337 32.178 223.246 31.4011C225.155 30.6242 227.243 30.2358 229.511 30.2358C231.779 30.2358 233.865 30.6242 235.774 31.4011C237.683 32.178 239.331 33.2702 240.717 34.6757C242.102 36.0833 243.182 37.7498 243.961 39.6816C244.737 41.6134 245.126 43.7101 245.126 45.9781C245.126 46.2726 245.115 46.5566 245.095 46.8281C245.074 47.1017 245.021 47.4483 244.938 47.866H220.951C221.329 50.0066 222.262 51.6961 223.753 52.9345C225.242 54.173 227.164 54.7911 229.513 54.7911C231.106 54.7911 232.525 54.4987 233.763 53.9098C235.001 53.323 235.998 52.4626 236.754 51.3286H244.309C243.806 52.9241 243.092 54.3609 242.169 55.6411C241.246 56.9213 240.143 58.0135 238.863 58.9157C237.583 59.8179 236.156 60.5112 234.582 60.9937C233.007 61.4761 231.317 61.7183 229.513 61.7183C227.247 61.7183 225.159 61.3299 223.248 60.553C221.337 59.7761 219.691 58.6964 218.307 57.3097C216.922 55.9251 215.84 54.2669 215.063 52.3352C214.287 50.4055 213.898 48.2858 213.898 45.976L213.896 45.9781ZM237.756 42.8309C237.167 41.0683 236.16 39.6837 234.734 38.675C233.308 37.6684 231.564 37.163 229.509 37.163C227.454 37.163 225.647 37.6663 224.221 38.675C222.795 39.6816 221.807 41.0683 221.262 42.8309H237.756Z" fill="#065084"/>
<path d="M264.638 37.163C263.378 37.163 262.213 37.3843 261.144 37.825C260.075 38.2657 259.149 38.8859 258.375 39.6816C257.598 40.4794 256.978 41.4129 256.518 42.4842C256.057 43.5535 255.825 44.7188 255.825 45.9781C255.825 47.2374 256.054 48.4027 256.518 49.472C256.98 50.5433 257.598 51.4664 258.375 52.2412C259.152 53.0181 260.075 53.6362 261.144 54.0978C262.213 54.5593 263.378 54.7911 264.638 54.7911C266.526 54.7911 268.194 54.3087 269.644 53.3439C271.091 52.379 271.924 51.7588 272.76 50.1716H280C279.476 52.0866 278.962 52.9032 278.016 54.4131C277.072 55.923 275.928 57.2137 274.585 58.285C273.24 59.3564 271.72 60.1959 270.02 60.8036C268.32 61.4113 266.526 61.7162 264.636 61.7162C262.453 61.7162 260.396 61.3069 258.467 60.4883C256.535 59.6696 254.866 58.5586 253.461 57.151C252.053 55.7455 250.942 54.0769 250.123 52.1451C249.305 50.2154 248.895 48.1584 248.895 45.976C248.895 43.7936 249.305 41.6844 250.123 39.7756C250.942 37.8668 252.053 36.1981 253.461 34.7697C254.866 33.3433 256.535 32.2302 258.467 31.4324C260.396 30.6347 262.453 30.2358 264.636 30.2358C266.524 30.2358 268.32 30.5407 270.02 31.1484C271.72 31.7582 273.24 32.5957 274.585 33.667C275.928 34.7363 277.11 36.0039 278.016 37.5389C278.711 38.7167 279.248 39.5103 280 41.9162H272.76C272.196 40.6318 271.091 39.5751 269.644 38.6081C268.196 37.6433 266.528 37.1609 264.638 37.1609V37.163Z" fill="#065084"/>
<path d="M95.7785 19.5704H98.0966C98.0883 20.0026 97.9901 20.3786 97.8063 20.6981C97.6121 21.0364 97.3302 21.2954 96.9626 21.4812C96.5951 21.665 96.1544 21.759 95.6365 21.759C95.0664 21.759 94.5735 21.6212 94.1558 21.3455C93.7381 21.0698 93.4144 20.6688 93.1868 20.1405C92.9592 19.6142 92.8443 18.9731 92.8443 18.2213C92.8443 17.4694 92.9613 16.8325 93.1931 16.3104C93.4249 15.7883 93.7486 15.3915 94.1663 15.1158C94.5818 14.8422 95.0664 14.7044 95.6177 14.7044C95.9122 14.7044 96.1816 14.742 96.4259 14.8151C96.6702 14.8882 96.8874 14.9947 97.0796 15.1346C97.2717 15.2745 97.4325 15.4416 97.5662 15.64C97.6998 15.8384 97.8042 16.066 97.8773 16.3229H100.198C100.124 15.7883 99.9574 15.2996 99.6963 14.8548C99.4353 14.4099 99.1011 14.0257 98.6918 13.702C98.2825 13.3783 97.8147 13.1277 97.2863 12.9501C96.76 12.7726 96.1899 12.6849 95.578 12.6849C94.8638 12.6849 94.2018 12.8102 93.5899 13.0587C92.978 13.3093 92.4433 13.6727 91.9818 14.151C91.5224 14.6292 91.1631 15.2119 90.9084 15.899C90.6536 16.586 90.5262 17.3671 90.5262 18.2421C90.5262 19.3803 90.7392 20.3639 91.1673 21.1909C91.5934 22.018 92.1906 22.657 92.9571 23.1039C93.7235 23.5529 94.6132 23.7764 95.624 23.7764C96.5303 23.7764 97.3344 23.5926 98.0381 23.225C98.7419 22.8575 99.2933 22.3333 99.6942 21.6546C100.095 20.9758 100.296 20.1593 100.296 19.2111V17.8516H95.7785V19.5704Z" fill="#065084"/>
<path d="M108.334 19.3907C108.919 19.1172 109.366 18.7225 109.675 18.2066C109.984 17.6908 110.138 17.0768 110.138 16.3584C110.138 15.64 109.986 15.0239 109.683 14.4955C109.38 13.9672 108.937 13.5579 108.359 13.2676C107.781 12.9773 107.085 12.8332 106.269 12.8332H102.008V23.6281H104.291V19.8001H105.957L108.002 23.6281H110.523L108.232 19.4325C108.265 19.4179 108.301 19.4054 108.332 19.3887L108.334 19.3907ZM104.293 14.7002H105.832C106.271 14.7002 106.636 14.765 106.926 14.8923C107.217 15.0197 107.432 15.2077 107.574 15.4541C107.716 15.7006 107.787 16.0034 107.787 16.3605C107.787 16.7176 107.716 17.0121 107.574 17.2522C107.432 17.4903 107.217 17.6699 106.928 17.7889C106.64 17.908 106.279 17.9685 105.842 17.9685H104.293V14.7002Z" fill="#065084"/>
<path d="M118.419 19.6497C118.419 20.0611 118.329 20.4266 118.147 20.7461C117.966 21.0656 117.711 21.3162 117.383 21.5C117.055 21.6838 116.669 21.7736 116.226 21.7736C115.783 21.7736 115.401 21.6817 115.071 21.5C114.741 21.3183 114.484 21.0656 114.305 20.7461C114.123 20.4266 114.033 20.0611 114.033 19.6497V12.8332H111.751V19.8439C111.751 20.6313 111.936 21.3204 112.31 21.9093C112.684 22.4983 113.204 22.9598 113.877 23.2877C114.547 23.6156 115.332 23.7806 116.228 23.7806C117.124 23.7806 117.903 23.6156 118.573 23.2877C119.244 22.9598 119.768 22.5004 120.142 21.9093C120.516 21.3183 120.703 20.6313 120.703 19.8439V12.8332H118.421V19.6497H118.419Z" fill="#065084"/>
<path d="M128.932 13.2989C128.355 12.9877 127.658 12.8332 126.839 12.8332H122.579V23.6281H124.861V20.1279H126.781C127.61 20.1279 128.318 19.9755 128.903 19.6685C129.487 19.3636 129.934 18.9355 130.243 18.3883C130.552 17.8391 130.707 17.2084 130.707 16.49C130.707 15.7716 130.554 15.1388 130.252 14.5895C129.947 14.0403 129.508 13.608 128.932 13.2989ZM128.142 17.4318C128 17.7033 127.785 17.9163 127.499 18.0688C127.213 18.2212 126.85 18.2985 126.411 18.2985H124.861V14.6981H126.401C126.843 14.6981 127.209 14.7733 127.497 14.9216C127.785 15.0719 128 15.2808 128.142 15.5481C128.284 15.8154 128.355 16.1308 128.355 16.49C128.355 16.8492 128.284 17.1583 128.142 17.4318Z" fill="#065084"/>
<path d="M141.448 15.2265C141.003 14.4016 140.399 13.7709 139.635 13.3365C138.87 12.9021 138.012 12.6849 137.06 12.6849C136.107 12.6849 135.239 12.9021 134.476 13.3365C133.714 13.7709 133.111 14.3995 132.668 15.2265C132.225 16.0514 132.004 17.0538 132.004 18.2317C132.004 19.4095 132.225 20.4057 132.668 21.2306C133.111 22.0555 133.714 22.6883 134.476 23.1227C135.239 23.5592 136.099 23.7764 137.06 23.7764C138.02 23.7764 138.87 23.5592 139.635 23.1248C140.399 22.6904 141.003 22.0618 141.448 21.2348C141.892 20.4099 142.114 19.4075 142.114 18.2296C142.114 17.0517 141.892 16.0514 141.448 15.2244V15.2265ZM139.459 20.1614C139.232 20.6856 138.914 21.0823 138.503 21.3518C138.091 21.6232 137.611 21.7569 137.058 21.7569C136.504 21.7569 136.024 21.6212 135.613 21.3518C135.201 21.0803 134.882 20.6835 134.656 20.1614C134.428 19.6372 134.316 18.994 134.316 18.2317C134.316 17.4694 134.428 16.8262 134.656 16.302C134.884 15.7778 135.201 15.381 135.613 15.1116C136.024 14.8401 136.504 14.7065 137.058 14.7065C137.611 14.7065 138.091 14.8422 138.503 15.1116C138.914 15.3831 139.234 15.7799 139.459 16.302C139.687 16.8262 139.8 17.4694 139.8 18.2317C139.8 18.994 139.687 19.6372 139.459 20.1614Z" fill="#065084"/>
<defs>
<linearGradient id="paint0_linear_216_20" x1="-2.44708" y1="38.0798" x2="55.7231" y2="37.1505" gradientUnits="userSpaceOnUse">
<stop stop-color="#065084"/>
<stop offset="1" stop-color="#497D74"/>
</linearGradient>
<linearGradient id="paint1_linear_216_20" x1="-2.43872" y1="38.6249" x2="55.7314" y2="37.6955" gradientUnits="userSpaceOnUse">
<stop stop-color="#065084"/>
<stop offset="1" stop-color="#497D74"/>
</linearGradient>
<linearGradient id="paint2_linear_216_20" x1="-2.44081" y1="38.4494" x2="55.7293" y2="37.5222" gradientUnits="userSpaceOnUse">
<stop stop-color="#065084"/>
<stop offset="1" stop-color="#497D74"/>
</linearGradient>
</defs>
</svg>
