<svg width="188" height="188" viewBox="0 0 188 188" fill="none" xmlns="http://www.w3.org/2000/svg">
<g clip-path="url(#clip0_143_344)">
<path d="M187.12 93.56C187.12 145.23 145.23 187.12 93.56 187.12C41.89 187.12 0 145.23 0 93.56C0 41.89 41.89 0 93.56 0C145.23 0 187.12 41.89 187.12 93.56Z" fill="#029383"/>
<mask id="mask0_143_344" style="mask-type:luminance" maskUnits="userSpaceOnUse" x="0" y="0" width="188" height="188">
<path d="M187.12 93.56C187.12 145.23 145.23 187.12 93.56 187.12C41.89 187.12 0 145.23 0 93.56C0 41.89 41.89 0 93.56 0C145.23 0 187.12 41.89 187.12 93.56Z" fill="white"/>
</mask>
<g mask="url(#mask0_143_344)">
<path d="M138.78 24.6699L294.48 89.1399L202.29 228.11L49.59 158.7L63.71 135.15L46.27 107.07L83.16 109.48L122.28 124.21L127 97.1099L89.56 83.6699L138.78 24.6699Z" fill="#026E6A"/>
<path d="M96.32 132.03C77.11 136.12 58.21 123.85 54.13 104.64L39.63 107.73C45.42 134.96 72.19 152.33 99.41 146.54C126.63 140.75 144.01 113.98 138.22 86.7598L123.72 89.8398C127.81 109.05 115.54 127.95 96.33 132.03H96.32Z" fill="white"/>
<path d="M127.32 158.75L90.92 149.14C90.14 148.93 89.32 148.93 88.53 149.14L52.13 158.75C49.16 159.53 46.26 157.3 46.26 154.23V142.03C46.26 139.45 48.35 137.35 50.94 137.35H128.51C131.09 137.35 133.19 139.45 133.19 142.03V154.23C133.19 157.3 130.29 159.54 127.32 158.75Z" fill="white"/>
<path d="M83.16 104.65H23.84V109.48H83.16V104.65Z" fill="#6D4C5B"/>
<path d="M131.848 54.3661L110.754 59.0581L122.202 110.53L143.297 105.838L131.848 54.3661Z" fill="#CCCCCC"/>
<path d="M145.71 101.33C145.71 109.33 139.22 115.82 131.22 115.82C123.22 115.82 116.73 109.33 116.73 101.33C116.73 93.3298 123.22 86.8398 131.22 86.8398C139.22 86.8398 145.71 93.3298 145.71 101.33Z" fill="#523944"/>
<path d="M135.44 101.33C135.44 103.66 133.55 105.55 131.22 105.55C128.89 105.55 127 103.66 127 101.33C127 98.9999 128.89 97.1099 131.22 97.1099C133.55 97.1099 135.44 98.9999 135.44 101.33Z" fill="white"/>
<path d="M138.81 24.6699L138.03 25.2999L138.61 26.0099L136.1 28.0599C133.95 26.4599 131.15 26.2899 129.25 27.8299L84.35 64.1699C82.4 65.7399 82.01 68.6099 83.23 71.0799L81.92 72.1399L82.53 72.8999L81.49 73.7499C82.42 75.6499 83.53 77.3999 84.83 79.0199L143.77 30.7599L138.82 24.6799L138.81 24.6699Z" fill="white"/>
<path d="M143.76 30.7598L84.8201 79.0198C86.1901 80.7298 87.7701 82.2798 89.5501 83.6698L90.5901 82.8198L91.2101 83.5798L92.5301 82.4998C94.6801 84.0998 97.4801 84.2698 99.3801 82.7298L144.28 46.3898C146.23 44.8198 146.62 41.9498 145.4 39.4798L147.9 37.4498L148.43 38.0998L149.21 37.4698L143.76 30.7698V30.7598Z" fill="#CCCCCC"/>
</g>
</g>
<defs>
<clipPath id="clip0_143_344">
<rect width="187.12" height="187.12" fill="white"/>
</clipPath>
</defs>
</svg>
