<svg width="220" height="61" viewBox="0 0 220 61" fill="none" xmlns="http://www.w3.org/2000/svg">
<path d="M35.0349 34.3855L34.418 35.004L33.5658 35.8562L32.7137 36.7083L19.5912 49.8308L17.9462 51.4742L2.16529 35.6917C-0.721762 32.8046 -0.721762 28.1278 2.16529 25.2424L18.1518 9.25586L19.5879 10.692L32.7104 23.8145L35.0349 26.1389C37.3132 28.4173 37.3132 32.1104 35.0349 34.3888V34.3855Z" fill="white"/>
<path d="M37.2227 35.9185C38.7312 34.41 39.5636 32.4014 39.5636 30.2628C39.5636 28.1243 38.7312 26.1157 37.2194 24.6039L24.9227 12.3072L26.3062 10.9204C27.3393 9.88733 28.6915 9.36914 30.0503 9.36914C31.4091 9.36914 32.7581 9.88733 33.7912 10.9204L35.7159 12.8484L47.6194 24.7503L48.3925 25.5234L49.1657 26.2983L49.7283 26.8609C51.7961 28.927 51.7961 32.2763 49.7283 34.3425L49.169 34.9051L48.3958 35.6783L47.6227 36.4531L35.7175 48.355L33.7895 50.2797C32.7564 51.3144 31.4009 51.8326 30.0487 51.8326C28.6965 51.8326 27.3377 51.3144 26.3046 50.2797L24.5855 48.5606L34.9657 38.1804L35.7932 37.3513L36.6206 36.5238L37.2211 35.9201L37.2227 35.9185Z" fill="white"/>
<path d="M57.7858 35.7095L57.0027 36.4974L55.917 37.5799L54.8313 38.6656L38.1374 55.3595L35.4313 58.059C33.9837 59.5099 32.0853 60.2337 30.1836 60.2337C28.282 60.2337 26.3819 59.5099 24.9343 58.059L20.1538 53.2785L22.5309 50.9014L24.3108 52.683C25.8045 54.175 27.7884 54.9976 29.899 54.9976C32.0096 54.9976 33.9919 54.1734 35.4856 52.683L49.7975 38.3711L50.6002 37.5716L51.3997 36.7689L51.9821 36.1849C53.4708 34.6961 54.2917 32.7155 54.2917 30.6032C54.2917 28.491 53.4708 26.5087 51.9788 25.0167L51.3964 24.436L50.5969 23.6365L49.7942 22.837L37.4777 10.5173L35.4856 8.52514C33.9919 7.03145 32.008 6.21057 29.899 6.21057C27.7901 6.21057 25.8045 7.03145 24.3108 8.52514L22.878 9.95797L20.3578 7.43777L24.9343 2.86127C26.3819 1.41363 28.2803 0.686523 30.1836 0.686523C32.0869 0.686523 33.982 1.41363 35.4313 2.86127L38.1341 5.56078L54.828 22.2547L55.9137 23.3404L56.9962 24.4261L57.7841 25.2124C60.681 28.1126 60.681 32.8092 57.7841 35.7095H57.7858Z" fill="white"/>
<path d="M76.8979 12.1396V42.9003H71.9233V12.1396H76.8979Z" fill="white"/>
<path d="M113.985 51.0369H109.011V28.8749H113.985V31.8146C113.985 32.6585 114.143 33.458 114.461 34.2114C114.777 34.9648 115.208 35.613 115.75 36.1558C116.293 36.6987 116.933 37.1281 117.673 37.4456C118.412 37.7614 119.218 37.921 120.093 37.921C120.968 37.921 121.729 37.763 122.467 37.4456C123.206 37.1297 123.854 36.6987 124.412 36.1558C124.969 35.613 125.407 34.9648 125.723 34.2114C126.038 33.458 126.198 32.6585 126.198 31.8146C126.198 30.9707 126.04 30.1333 125.723 29.3947C125.407 28.6561 124.969 28.0145 124.412 27.4717C123.854 26.9288 123.206 26.4994 122.467 26.182C121.729 25.8661 120.936 25.7065 120.093 25.7065H109.012V20.7319H120.093C121.631 20.7319 123.079 21.0182 124.435 21.5906C125.792 22.1631 126.968 22.9478 127.962 23.9431C128.957 24.9383 129.74 26.1063 130.314 27.4486C130.886 28.791 131.173 30.2452 131.173 31.8129C131.173 33.3807 130.893 34.7987 130.335 36.1542C129.778 37.5113 129.024 38.6876 128.073 39.6828C127.124 40.6781 126.001 41.4627 124.704 42.0352C123.408 42.6077 122.005 42.8939 120.498 42.8939C119.231 42.8939 118.055 42.6982 116.969 42.3066C115.884 41.9151 114.888 41.3723 113.984 40.6781V51.0352L113.985 51.0369Z" fill="white"/>
<path d="M133.208 20.7334H135.922V14.854H140.897V20.7334H146.098V25.708H140.897V32.9445C140.897 34.5731 141.341 35.8102 142.231 36.6524C143.119 37.4964 144.409 37.9191 146.098 37.9191V42.8937C144.56 42.8937 143.165 42.6519 141.915 42.1699C140.663 41.6879 139.592 41.0167 138.704 40.1564C137.814 39.2977 137.128 38.2498 136.646 37.0127C136.164 35.7773 135.922 34.4201 135.922 32.9429V25.7063H133.208V20.7317V20.7334Z" fill="white"/>
<path d="M148.586 31.5888C148.586 29.9602 148.864 28.4533 149.423 27.0666C149.981 25.6798 150.757 24.4822 151.752 23.4705C152.748 22.4604 153.93 21.6774 155.302 21.1181C156.674 20.5604 158.175 20.2808 159.803 20.2808C161.432 20.2808 162.93 20.5604 164.304 21.1181C165.676 21.6758 166.859 22.4604 167.854 23.4705C168.849 24.4806 169.626 25.6798 170.183 27.0666C170.741 28.4533 171.021 29.9618 171.021 31.5888C171.021 31.7993 171.012 32.0033 170.998 32.1991C170.981 32.3948 170.945 32.6449 170.884 32.9459H153.652C153.924 34.484 154.595 35.6981 155.666 36.5864C156.735 37.4764 158.115 37.9205 159.805 37.9205C160.95 37.9205 161.968 37.71 162.858 37.2872C163.748 36.8661 164.463 36.2475 165.006 35.4332H170.433C170.071 36.5798 169.558 37.6113 168.895 38.5308C168.232 39.4504 167.441 40.2351 166.521 40.8833C165.602 41.5314 164.577 42.0299 163.447 42.3753C162.317 42.7224 161.103 42.8951 159.806 42.8951C158.178 42.8951 156.678 42.6155 155.306 42.0578C153.934 41.5001 152.751 40.7237 151.756 39.7284C150.76 38.7332 149.984 37.5422 149.426 36.1554C148.869 34.7686 148.589 33.2453 148.589 31.5871L148.586 31.5888ZM165.727 29.3268C165.304 28.0602 164.58 27.0649 163.555 26.3411C162.531 25.6173 161.279 25.2554 159.801 25.2554C158.324 25.2554 157.026 25.6173 156.001 26.3411C154.977 27.0649 154.268 28.0602 153.876 29.3268H165.725H165.727Z" fill="white"/>
<path d="M185.04 25.257C184.135 25.257 183.299 25.4149 182.529 25.7324C181.761 26.0482 181.096 26.494 180.539 27.0665C179.981 27.639 179.535 28.3101 179.205 29.08C178.872 29.8483 178.708 30.6856 178.708 31.5904C178.708 32.4951 178.872 33.3308 179.205 34.1007C179.535 34.8689 179.981 35.5335 180.539 36.0912C181.096 36.6489 181.759 37.0947 182.529 37.4253C183.297 37.7576 184.135 37.9221 185.04 37.9221C186.397 37.9221 187.594 37.575 188.636 36.8825C189.675 36.1899 190.422 35.2539 190.875 34.0777H196.076C195.805 35.374 195.329 36.565 194.652 37.6507C193.974 38.7364 193.151 39.6626 192.187 40.4325C191.222 41.2007 190.129 41.8044 188.909 42.242C187.688 42.6796 186.398 42.8984 185.041 42.8984C183.474 42.8984 181.995 42.6039 180.609 42.0166C179.223 41.4294 178.023 40.6299 177.013 39.6198C176.003 38.6098 175.204 37.4105 174.617 36.0238C174.029 34.637 173.735 33.1597 173.735 31.592C173.735 30.0243 174.029 28.5092 174.617 27.1372C175.206 25.7653 176.003 24.5677 177.013 23.5412C178.023 22.5163 179.223 21.7168 180.609 21.1444C181.996 20.5719 183.474 20.2856 185.041 20.2856C186.398 20.2856 187.686 20.5044 188.909 20.942C190.129 21.3796 191.222 21.9817 192.187 22.7516C193.151 23.5198 193.974 24.4476 194.652 25.5333C195.329 26.6191 195.805 27.8101 196.076 29.1064H190.875C190.422 27.9302 189.675 26.9958 188.636 26.3016C187.596 25.609 186.397 25.2619 185.04 25.2619V25.257Z" fill="white"/>
<path d="M204.668 12.1396V22.2715C205.451 21.6381 206.341 21.1479 207.337 20.8008C208.332 20.4537 209.401 20.281 210.548 20.281C211.934 20.281 213.208 20.5294 214.369 21.0278C215.529 21.5246 216.524 22.2188 217.355 23.1088C218.184 23.9988 218.832 25.0614 219.299 26.2969C219.766 27.5339 220 28.8747 220 30.3223V42.443H215.025V30.3223C215.025 28.7842 214.558 27.557 213.624 26.6358C212.689 25.7162 211.438 25.2556 209.87 25.2556C208.302 25.2556 207.044 25.7162 206.093 26.6358C205.144 27.5553 204.668 28.7842 204.668 30.3223V42.443H199.694V12.1396H204.668Z" fill="white"/>
<path d="M99.1339 20.585V24.2354L98.2341 23.3898C97.2109 22.4341 96.0857 21.7069 94.8897 21.2315C93.6987 20.7578 92.4024 20.5176 91.042 20.5176C88.076 20.5176 85.5196 21.5688 83.4419 23.6448C81.3543 25.7307 80.2949 28.4533 80.2949 31.7384C80.2949 35.0236 81.3889 37.5767 83.5488 39.6955C85.6989 41.8077 88.2783 42.8786 91.2164 42.8786C92.5209 42.8786 93.7481 42.6598 94.8618 42.2305C95.982 41.8011 97.1171 41.0822 98.2423 40.0936L99.1306 39.3138V42.8326H104.109V20.5834H99.1306L99.1339 20.585ZM96.594 36.7739C95.25 38.085 93.5375 38.7496 91.5026 38.7496C89.4677 38.7496 87.8374 38.0751 86.4869 36.7393C85.1429 35.4167 84.4635 33.7125 84.4635 31.6775C84.4635 29.6426 85.1346 27.968 86.454 26.6651C87.7848 25.3524 89.4775 24.6861 91.4828 24.6861C93.4882 24.6861 95.25 25.3392 96.5923 26.6289C97.9331 27.9137 98.6108 29.6048 98.6108 31.6562C98.6108 33.7075 97.9331 35.4677 96.594 36.7739Z" fill="white"/>
</svg>
