<svg width="249" height="68" viewBox="0 0 249 68" fill="none" xmlns="http://www.w3.org/2000/svg">
<path d="M39.6531 38.1408L38.9549 38.8409L37.9904 39.8053L37.026 40.7698L22.1737 55.6221L20.3118 57.4821L2.45071 39.6191C-0.816903 36.3515 -0.816903 31.0582 2.45071 27.7924L20.5445 9.69861L22.17 11.324L37.0222 26.1763L39.6531 28.8072C42.2318 31.3859 42.2318 35.5658 39.6531 38.1445V38.1408Z" fill="#065084"/>
<path d="M42.1293 39.8762C43.8367 38.1688 44.7788 35.8954 44.7788 33.475C44.7788 31.0545 43.8367 28.7812 42.1256 27.0701L28.208 13.1525L29.7738 11.5829C30.9431 10.4136 32.4736 9.82715 34.0115 9.82715C35.5494 9.82715 37.0762 10.4136 38.2454 11.5829L40.4238 13.765L53.8964 27.2358L54.7715 28.1109L55.6466 28.9878L56.2834 29.6246C58.6238 31.9631 58.6238 35.7539 56.2834 38.0925L55.6504 38.7292L54.7753 39.6043L53.9002 40.4813L40.4257 53.952L38.2436 56.1304C37.0743 57.3016 35.5401 57.8881 34.0096 57.8881C32.4792 57.8881 30.9412 57.3016 29.772 56.1304L27.8263 54.1848L39.5748 42.4363L40.5113 41.4979L41.4479 40.5613L42.1275 39.878L42.1293 39.8762Z" fill="#065084"/>
<path d="M65.403 39.6396L64.5167 40.5314L63.2879 41.7566L62.059 42.9854L43.1646 61.8798L40.1018 64.9352C38.4633 66.5774 36.3147 67.3966 34.1624 67.3966C32.01 67.3966 29.8595 66.5774 28.2211 64.9352L22.8104 59.5246L25.5009 56.8341L27.5154 58.8506C29.206 60.5393 31.4514 61.4702 33.8403 61.4702C36.2291 61.4702 38.4726 60.5374 40.1632 58.8506L56.3616 42.6521L57.2702 41.7472L58.1751 40.8387L58.8342 40.1777C60.5192 38.4927 61.4483 36.251 61.4483 33.8603C61.4483 31.4696 60.5192 29.2261 58.8305 27.5373L58.1714 26.8801L57.2665 25.9752L56.3579 25.0703L42.418 11.1266L40.1632 8.8719C38.4726 7.1813 36.2272 6.25222 33.8403 6.25222C31.4533 6.25222 29.206 7.1813 27.5154 8.8719L25.8937 10.4936L23.0413 7.64119L28.2211 2.46142C29.8595 0.822955 32.0082 0 34.1624 0C36.3166 0 38.4615 0.822955 40.1018 2.46142L43.1609 5.51678L62.0553 24.4112L63.2841 25.6401L64.5093 26.8689L65.4011 27.7589C68.6799 31.0414 68.6799 36.3571 65.4011 39.6396H65.403Z" fill="#065084"/>
<path d="M87.0344 12.9624V47.7778H81.4041V12.9624H87.0344Z" fill="#065084"/>
<path d="M129.011 56.9867H123.38V31.9033H129.011V35.2305C129.011 36.1857 129.189 37.0906 129.549 37.9433C129.906 38.7961 130.394 39.5296 131.008 40.1441C131.623 40.7585 132.347 41.2444 133.185 41.6038C134.021 41.9613 134.933 42.1419 135.924 42.1419C136.914 42.1419 137.775 41.9631 138.611 41.6038C139.447 41.2463 140.18 40.7585 140.811 40.1441C141.442 39.5296 141.938 38.7961 142.295 37.9433C142.653 37.0906 142.833 36.1857 142.833 35.2305C142.833 34.2754 142.655 33.3277 142.295 32.4917C141.938 31.6557 141.442 30.9296 140.811 30.3152C140.18 29.7007 139.447 29.2148 138.611 28.8554C137.775 28.498 136.877 28.3174 135.924 28.3174H123.382V22.687H135.924C137.665 22.687 139.303 23.011 140.837 23.6589C142.373 24.3069 143.705 25.195 144.829 26.3214C145.956 27.4479 146.842 28.7698 147.492 30.2891C148.14 31.8084 148.464 33.4543 148.464 35.2287C148.464 37.0031 148.147 38.608 147.516 40.1422C146.885 41.6783 146.032 43.0095 144.956 44.136C143.882 45.2624 142.61 46.1505 141.143 46.7985C139.676 47.4464 138.087 47.7704 136.382 47.7704C134.948 47.7704 133.617 47.5488 132.388 47.1057C131.159 46.6625 130.033 46.0481 129.009 45.2624V56.9848L129.011 56.9867Z" fill="#065084"/>
<path d="M150.767 22.6888H153.839V16.0344H159.469V22.6888H165.357V28.3192H159.469V36.5096C159.469 38.3529 159.972 39.753 160.979 40.7063C161.985 41.6615 163.444 42.14 165.357 42.14V47.7703C163.616 47.7703 162.037 47.4966 160.622 46.9511C159.205 46.4055 157.993 45.6459 156.987 44.6721C155.98 43.7002 155.204 42.5142 154.658 41.1141C154.113 39.7158 153.839 38.1797 153.839 36.5077V28.3173H150.767V22.687V22.6888Z" fill="#065084"/>
<path d="M168.172 34.9755C168.172 33.1322 168.486 31.4267 169.119 29.8572C169.751 28.2876 170.629 26.9321 171.756 25.7871C172.882 24.6439 174.221 23.7576 175.774 23.1246C177.327 22.4934 179.025 22.1769 180.868 22.1769C182.711 22.1769 184.407 22.4934 185.962 23.1246C187.515 23.7558 188.854 24.6439 189.98 25.7871C191.106 26.9303 191.985 28.2876 192.616 29.8572C193.248 31.4267 193.564 33.1341 193.564 34.9755C193.564 35.2138 193.555 35.4447 193.538 35.6663C193.519 35.8878 193.479 36.1708 193.41 36.5116H173.906C174.214 38.2524 174.973 39.6265 176.185 40.6319C177.396 41.6392 178.958 42.1419 180.87 42.1419C182.166 42.1419 183.318 41.9036 184.325 41.4251C185.333 40.9484 186.143 40.2484 186.757 39.3267H192.899C192.49 40.6245 191.909 41.7919 191.159 42.8327C190.408 43.8735 189.513 44.7616 188.472 45.4952C187.431 46.2287 186.271 46.7929 184.992 47.1839C183.713 47.5768 182.339 47.7723 180.872 47.7723C179.028 47.7723 177.33 47.4557 175.778 46.8246C174.225 46.1934 172.886 45.3146 171.76 44.1881C170.633 43.0617 169.754 41.7137 169.123 40.1441C168.492 38.5745 168.175 36.8504 168.175 34.9736L168.172 34.9755ZM187.573 32.4154C187.094 30.9817 186.275 29.8553 185.115 29.0361C183.955 28.2168 182.538 27.8072 180.866 27.8072C179.194 27.8072 177.725 28.2168 176.565 29.0361C175.405 29.8553 174.603 30.9817 174.16 32.4154H187.571H187.573Z" fill="#065084"/>
<path d="M209.431 27.8091C208.407 27.8091 207.461 27.9879 206.59 28.3472C205.72 28.7047 204.968 29.2093 204.337 29.8572C203.706 30.5051 203.201 31.2648 202.827 32.1361C202.451 33.0056 202.265 33.9533 202.265 34.9774C202.265 36.0014 202.451 36.9473 202.827 37.8186C203.201 38.6881 203.706 39.4403 204.337 40.0715C204.968 40.7027 205.719 41.2073 206.59 41.5815C207.459 41.9576 208.407 42.1438 209.431 42.1438C210.967 42.1438 212.323 41.7509 213.501 40.9671C214.678 40.1832 215.523 39.1238 216.035 37.7926H221.923C221.615 39.2597 221.077 40.6077 220.31 41.8366C219.543 43.0654 218.612 44.1137 217.521 44.985C216.428 45.8545 215.192 46.5378 213.81 47.0331C212.429 47.5284 210.969 47.776 209.433 47.776C207.659 47.776 205.985 47.4427 204.417 46.778C202.848 46.1133 201.49 45.2085 200.347 44.0653C199.204 42.9221 198.299 41.5647 197.634 39.9952C196.97 38.4256 196.636 36.7536 196.636 34.9792C196.636 33.2049 196.97 31.4901 197.634 29.9373C198.301 28.3844 199.204 27.029 200.347 25.8672C201.49 24.7072 202.848 23.8023 204.417 23.1544C205.987 22.5065 207.659 22.1825 209.433 22.1825C210.969 22.1825 212.427 22.4301 213.81 22.9254C215.192 23.4206 216.428 24.1021 217.521 24.9735C218.612 25.843 219.543 26.8931 220.31 28.1219C221.077 29.3508 221.615 30.6988 221.923 32.1659H216.035C215.523 30.8347 214.678 29.7771 213.501 28.9914C212.325 28.2076 210.967 27.8147 209.431 27.8147V27.8091Z" fill="#065084"/>
<path d="M231.647 12.9624V24.4298C232.534 23.7129 233.541 23.1581 234.667 22.7652C235.794 22.3724 237.004 22.1769 238.302 22.1769C239.871 22.1769 241.312 22.458 242.627 23.0222C243.939 23.5845 245.066 24.3702 246.006 25.3775C246.945 26.3848 247.678 27.5875 248.207 28.9858C248.736 30.386 249 31.9034 249 33.5419V47.2602H243.37V33.5419C243.37 31.801 242.841 30.412 241.783 29.3694C240.726 28.3286 239.309 27.8072 237.535 27.8072C235.76 27.8072 234.336 28.3286 233.26 29.3694C232.185 30.4102 231.647 31.801 231.647 33.5419V47.2602H226.017V12.9624H231.647Z" fill="#065084"/>
<path d="M112.201 22.5213V26.6528L111.183 25.6958C110.025 24.614 108.751 23.7911 107.398 23.253C106.05 22.7168 104.583 22.4449 103.043 22.4449C99.6859 22.4449 96.7925 23.6347 94.4409 25.9844C92.0782 28.3453 90.8792 31.4267 90.8792 35.1449C90.8792 38.8631 92.1173 41.7527 94.562 44.1508C96.9955 46.5415 99.9149 47.7536 103.24 47.7536C104.717 47.7536 106.106 47.506 107.366 47.02C108.634 46.534 109.919 45.7204 111.192 44.6014L112.198 43.7189V47.7015H117.832V22.5194H112.198L112.201 22.5213ZM109.327 40.8441C107.806 42.328 105.867 43.0803 103.564 43.0803C101.261 43.0803 99.4159 42.3169 97.8873 40.805C96.3661 39.3081 95.5972 37.3792 95.5972 35.076C95.5972 32.7728 96.3568 30.8774 97.8501 29.4028C99.3563 27.917 101.272 27.163 103.542 27.163C105.811 27.163 107.806 27.9021 109.325 29.3619C110.842 30.816 111.609 32.73 111.609 35.0518C111.609 37.3736 110.842 39.3658 109.327 40.8441Z" fill="#065084"/>
</svg>
