<svg width="260" height="187" viewBox="0 0 260 187" fill="none" xmlns="http://www.w3.org/2000/svg">
<path d="M19.4811 161.613C22.4238 161.613 24.8049 160.719 26.6217 158.929C28.4385 157.14 29.3469 154.775 29.3469 151.833V128.289H38.8686V151.486C38.8686 154.429 38.4062 157.085 37.484 159.45C36.5591 161.817 35.2626 163.835 33.5889 165.508C31.9152 167.182 29.8809 168.467 27.4861 169.359C25.0912 170.254 22.4238 170.7 19.4784 170.7C16.5329 170.7 13.8655 170.251 11.4706 169.359C9.07577 168.465 7.02498 167.182 5.32379 165.508C3.61985 163.835 2.30679 161.817 1.38463 159.45C0.459707 157.085 0 154.429 0 151.486V128.289H9.52172V151.833C9.52172 154.775 10.4439 157.143 12.291 158.929C14.1381 160.719 16.5329 161.613 19.4756 161.613H19.4811Z" fill="white"/>
<path d="M67.0044 136.943C63.9461 136.943 61.5209 137.78 59.7344 139.454C57.9451 141.127 57.0505 143.407 57.0505 146.292V169.836H47.5287V146.638C47.5287 143.696 47.9912 141.042 48.9134 138.675C49.8355 136.31 51.1486 134.29 52.8525 132.616C54.5537 130.942 56.6045 129.66 58.9994 128.765C61.3943 127.87 64.0644 127.424 67.0071 127.424V136.946L67.0044 136.943Z" fill="white"/>
<path d="M70.4673 149.06C70.4673 146.002 71.0288 143.161 72.1547 140.535C73.2806 137.909 74.8083 135.616 76.7435 133.653C78.6759 131.693 80.969 130.163 83.6254 129.065C86.279 127.969 89.1061 127.418 92.1093 127.418C95.1125 127.418 98.0084 127.969 100.635 129.065C103.261 130.16 105.554 131.691 107.516 133.653C109.476 135.616 111.007 137.909 112.105 140.535C113.201 143.161 113.751 146.002 113.751 149.06C113.751 152.119 113.201 154.891 112.105 157.544C111.01 160.201 109.479 162.494 107.516 164.426C105.554 166.361 103.261 167.889 100.635 169.015C98.0084 170.141 95.1676 170.702 92.1093 170.702C89.051 170.702 86.279 170.141 83.6254 169.015C80.969 167.889 78.6759 166.361 76.7435 164.426C74.8083 162.494 73.2806 160.201 72.1547 157.544C71.0288 154.891 70.4673 152.064 70.4673 149.06ZM79.989 149.06C79.989 150.792 80.3056 152.394 80.9414 153.864C81.5746 155.337 82.4279 156.606 83.496 157.674C84.5641 158.742 85.8331 159.592 87.3058 160.228C88.7785 160.864 90.3778 161.181 92.1093 161.181C93.8408 161.181 95.4429 160.864 96.9128 160.228C98.3855 159.592 99.6683 158.742 100.764 157.674C101.859 156.606 102.71 155.337 103.318 153.864C103.924 152.391 104.227 150.792 104.227 149.06C104.227 147.329 103.924 145.727 103.318 144.257C102.713 142.784 101.859 141.501 100.764 140.406C99.6656 139.31 98.3828 138.46 96.9128 137.851C95.4401 137.246 93.8408 136.943 92.1093 136.943C90.3778 136.943 88.7757 137.246 87.3058 137.851C85.8331 138.457 84.5641 139.31 83.496 140.406C82.4279 141.504 81.5773 142.787 80.9414 144.257C80.3056 145.73 79.989 147.329 79.989 149.06Z" fill="white"/>
<path d="M130.193 186.283H120.672V143.869H130.193V149.495C130.193 151.111 130.496 152.642 131.102 154.084C131.707 155.527 132.53 156.768 133.568 157.806C134.606 158.844 135.831 159.667 137.246 160.272C138.658 160.878 140.202 161.181 141.876 161.181C143.55 161.181 145.006 160.878 146.421 160.272C147.833 159.667 149.074 158.844 150.142 157.806C151.211 156.768 152.047 155.527 152.653 154.084C153.259 152.642 153.561 151.114 153.561 149.495C153.561 147.877 153.259 146.28 152.653 144.865C152.047 143.453 151.211 142.225 150.142 141.188C149.074 140.15 147.833 139.327 146.421 138.721C145.006 138.116 143.492 137.813 141.876 137.813H120.669V128.291H141.876C144.819 128.291 147.588 128.842 150.187 129.934C152.782 131.033 155.034 132.53 156.939 134.435C158.844 136.34 160.344 138.575 161.44 141.144C162.535 143.712 163.086 146.498 163.086 149.495C163.086 152.493 162.552 155.207 161.484 157.806C160.416 160.402 158.973 162.653 157.156 164.558C155.34 166.463 153.187 167.963 150.707 169.059C148.224 170.155 145.543 170.702 142.658 170.702C140.233 170.702 137.984 170.325 135.905 169.577C133.827 168.828 131.925 167.787 130.193 166.46V186.283Z" fill="white"/>
<path d="M168.28 149.06C168.28 145.944 168.812 143.059 169.882 140.403C170.95 137.749 172.437 135.456 174.342 133.521C176.247 131.589 178.509 130.089 181.136 129.021C183.762 127.952 186.633 127.418 189.749 127.418C192.865 127.418 195.736 127.952 198.362 129.021C200.988 130.089 203.254 131.589 205.159 133.521C207.064 135.456 208.547 137.749 209.618 140.403C210.686 143.059 211.22 145.944 211.22 149.06C211.22 149.465 211.206 149.853 211.176 150.23C211.146 150.608 211.074 151.081 210.959 151.659H177.978C178.498 154.602 179.781 156.925 181.829 158.626C183.877 160.33 186.517 161.181 189.749 161.181C191.94 161.181 193.889 160.779 195.59 159.97C197.291 159.163 198.662 157.979 199.703 156.421H210.092C209.398 158.615 208.418 160.592 207.149 162.351C205.88 164.112 204.363 165.613 202.604 166.851C200.842 168.093 198.882 169.045 196.719 169.709C194.555 170.372 192.232 170.705 189.752 170.705C186.636 170.705 183.764 170.171 181.138 169.103C178.512 168.035 176.247 166.549 174.345 164.646C172.44 162.742 170.953 160.462 169.885 157.809C168.817 155.155 168.283 152.24 168.283 149.066L168.28 149.06ZM201.087 144.733C200.278 142.311 198.893 140.406 196.933 139.021C194.971 137.637 192.576 136.943 189.749 136.943C186.922 136.943 184.439 137.637 182.479 139.021C180.516 140.406 179.159 142.311 178.41 144.733H201.09H201.087Z" fill="white"/>
<path d="M238.048 136.943C236.317 136.943 234.715 137.246 233.245 137.852C231.772 138.457 230.503 139.31 229.435 140.406C228.367 141.504 227.516 142.787 226.88 144.257C226.245 145.73 225.928 147.329 225.928 149.061C225.928 150.792 226.245 152.394 226.88 153.864C227.514 155.337 228.367 156.606 229.435 157.674C230.503 158.742 231.772 159.593 233.245 160.228C234.718 160.864 236.317 161.181 238.048 161.181C240.644 161.181 242.94 160.518 244.93 159.191C246.92 157.864 248.066 157.013 249.216 154.83H259.17C258.449 157.462 257.741 158.585 256.442 160.663C255.143 162.742 253.571 164.514 251.724 165.987C249.877 167.46 247.785 168.613 245.448 169.45C243.111 170.287 240.644 170.705 238.046 170.705C235.045 170.705 232.215 170.144 229.562 169.018C226.905 167.892 224.612 166.364 222.68 164.429C220.745 162.497 219.217 160.204 218.091 157.547C216.965 154.894 216.404 152.067 216.404 149.063C216.404 146.06 216.965 143.164 218.091 140.538C219.217 137.912 220.745 135.619 222.68 133.656C224.612 131.696 226.905 130.166 229.562 129.068C232.215 127.972 235.042 127.421 238.046 127.421C240.641 127.421 243.111 127.84 245.448 128.677C247.785 129.513 249.877 130.667 251.724 132.14C253.571 133.612 255.195 135.352 256.442 137.463C257.397 139.082 258.135 140.175 259.17 143.481H249.216C248.44 141.714 246.923 140.263 244.93 138.933C242.94 137.607 240.644 136.943 238.048 136.943Z" fill="white"/>
<path d="M138.41 58.8178L137.334 59.8996L135.848 61.3861L134.361 62.8726L111.458 85.7754L108.587 88.6437L81.0433 61.0943C76.0058 56.0568 76.0058 47.8922 81.0433 42.8547L108.948 14.9502L111.456 17.4579L134.358 40.3607L138.413 44.4155C142.391 48.3932 142.391 54.8373 138.413 58.815L138.41 58.8178Z" fill="white"/>
<path d="M142.228 61.496C144.863 58.8616 146.316 55.3574 146.316 51.6247C146.316 47.892 144.863 44.3877 142.226 41.7479L120.763 20.2848L123.179 17.8651C124.982 16.0621 127.344 15.1592 129.714 15.1592C132.085 15.1592 134.441 16.0621 136.244 17.8651L139.605 21.229L160.383 42.0039L161.731 43.3527L163.08 44.707L164.06 45.687C167.669 49.2931 167.669 55.1399 164.06 58.746L163.083 59.726L161.734 61.0748L160.385 62.4292L139.608 83.2041L136.244 86.5652C134.441 88.3737 132.076 89.2766 129.714 89.2766C127.353 89.2766 124.982 88.3737 123.179 86.5652L120.179 83.5647L138.297 65.4462L139.743 63.9982L141.188 62.553L142.237 61.4987L142.228 61.496Z" fill="white"/>
<path d="M178.121 61.1328L176.753 62.5091L174.859 64.3975L172.965 66.2914L143.828 95.4291L139.104 100.142C136.577 102.674 133.263 103.938 129.946 103.938C126.629 103.938 123.312 102.674 120.782 100.142L112.436 91.7955L116.584 87.6471L119.689 90.7577C122.296 93.3618 125.762 94.7987 129.445 94.7987C133.128 94.7987 136.588 93.3618 139.195 90.7577L164.176 65.7766L165.577 64.381L166.973 62.9798L167.988 61.9613C170.587 59.3628 172.021 55.9053 172.021 52.2194C172.021 48.5335 170.587 45.0733 167.986 42.4692L166.97 41.4535L165.574 40.0578L164.173 38.6622L142.674 17.1606L139.198 13.6839C136.591 11.077 133.125 9.64283 129.447 9.64283C125.77 9.64283 122.301 11.077 119.692 13.6839L117.192 16.1833L112.793 11.7845L120.782 3.79602C123.309 1.26901 126.623 0 129.946 0C133.268 0 136.577 1.26901 139.104 3.79602L143.822 8.50871L172.96 37.6464L174.854 39.5403L176.742 41.4342L178.119 42.805C183.175 47.8673 183.175 56.065 178.119 61.1273L178.121 61.1328Z" fill="white"/>
</svg>
