<svg width="256" height="69" viewBox="0 0 256 69" fill="none" xmlns="http://www.w3.org/2000/svg">
<path d="M96.4514 43.2913C98.4053 43.2913 99.9855 42.6985 101.192 41.509C102.399 40.3215 103.001 38.7508 103.001 36.797V21.1663H109.322V36.5663C109.322 38.5201 109.015 40.2834 108.403 41.8522C107.789 43.4228 106.928 44.7648 105.817 45.8742C104.705 46.9855 103.354 47.8376 101.766 48.4323C100.176 49.0251 98.4053 49.3225 96.4514 49.3225C94.4976 49.3225 92.7249 49.0251 91.137 48.4323C89.5472 47.8395 88.1862 46.9874 87.0578 45.8742C85.9274 44.7629 85.0563 43.4228 84.4425 41.8522C83.8287 40.2815 83.5237 38.5201 83.5237 36.5663V21.1663H89.8446V36.797C89.8446 38.7508 90.4565 40.3215 91.6841 41.509C92.9098 42.6966 94.4995 43.2913 96.4534 43.2913H96.4514Z" fill="#065084"/>
<path d="M128.001 26.9134C125.971 26.9134 124.36 27.47 123.174 28.5794C121.987 29.6907 121.392 31.2042 121.392 33.1199V48.7506H115.071V33.3505C115.071 31.3967 115.378 29.6354 115.99 28.0647C116.602 26.494 117.475 25.1539 118.605 24.0426C119.735 22.9313 121.095 22.0793 122.684 21.4846C124.274 20.8917 126.047 20.5944 127.999 20.5944V26.9153L128.001 26.9134Z" fill="#065084"/>
<path d="M130.299 34.9575C130.299 32.9274 130.673 31.0403 131.42 29.298C132.168 27.5558 133.182 26.0327 134.466 24.7289C135.749 23.427 137.272 22.411 139.036 21.6828C140.797 20.9547 142.674 20.5906 144.666 20.5906C146.658 20.5906 148.584 20.9547 150.326 21.6828C152.068 22.411 153.591 23.427 154.895 24.7289C156.197 26.0308 157.213 27.5539 157.941 29.298C158.669 31.0422 159.033 32.9274 159.033 34.9575C159.033 36.9876 158.669 38.827 157.941 40.5883C157.213 42.3516 156.197 43.8746 154.895 45.1575C153.593 46.4422 152.07 47.4563 150.326 48.2035C148.582 48.9508 146.696 49.3244 144.666 49.3244C142.636 49.3244 140.797 48.9508 139.036 48.2035C137.272 47.4563 135.749 46.4422 134.466 45.1575C133.182 43.8746 132.168 42.3516 131.42 40.5883C130.673 38.827 130.299 36.9494 130.299 34.9575ZM136.62 34.9575C136.62 36.1069 136.83 37.1705 137.253 38.1465C137.675 39.1244 138.239 39.9669 138.948 40.6741C139.657 41.3832 140.499 41.9474 141.475 42.3687C142.451 42.79 143.515 43.0016 144.664 43.0016C145.814 43.0016 146.878 42.7919 147.854 42.3687C148.831 41.9474 149.683 41.3832 150.412 40.6741C151.14 39.965 151.704 39.1225 152.106 38.1465C152.508 37.1705 152.71 36.1069 152.71 34.9575C152.71 33.808 152.51 32.7444 152.106 31.7684C151.704 30.7925 151.138 29.9404 150.412 29.2103C149.683 28.4841 148.831 27.9179 147.854 27.5157C146.878 27.1135 145.814 26.9115 144.664 26.9115C143.515 26.9115 142.451 27.1135 141.475 27.5157C140.499 27.9179 139.655 28.4841 138.948 29.2103C138.239 29.9385 137.673 30.7906 137.253 31.7684C136.832 32.7444 136.62 33.808 136.62 34.9575Z" fill="#065084"/>
<path d="M169.948 59.6673H163.627V31.5092H169.948V35.2434C169.948 36.3165 170.148 37.3325 170.552 38.2894C170.955 39.2483 171.5 40.0717 172.19 40.7599C172.88 41.4499 173.692 41.9951 174.632 42.3973C175.569 42.7995 176.595 43.0015 177.706 43.0015C178.818 43.0015 179.784 42.7995 180.724 42.3973C181.662 41.9951 182.485 41.4499 183.194 40.7599C183.903 40.0698 184.458 39.2463 184.86 38.2894C185.262 37.3325 185.464 36.3165 185.464 35.2434C185.464 34.1702 185.262 33.1084 184.86 32.1687C184.458 31.2309 183.901 30.415 183.194 29.7269C182.485 29.0368 181.662 28.4917 180.724 28.0895C179.784 27.6873 178.779 27.4852 177.706 27.4852H163.627V21.1643H177.706C179.66 21.1643 181.5 21.5284 183.223 22.2565C184.946 22.9847 186.44 23.9797 187.704 25.2454C188.968 26.5092 189.965 27.9942 190.693 29.6983C191.421 31.4024 191.785 33.2514 191.785 35.2434C191.785 37.2353 191.431 39.0367 190.722 40.7599C190.013 42.483 189.056 43.9775 187.849 45.2413C186.642 46.5051 185.215 47.502 183.568 48.2302C181.921 48.9564 180.139 49.3224 178.223 49.3224C176.614 49.3224 175.12 49.0727 173.741 48.5752C172.363 48.0777 171.098 47.3877 169.948 46.507V59.6673Z" fill="#065084"/>
<path d="M195.234 34.9573C195.234 32.8891 195.586 30.9734 196.297 29.2102C197.006 27.4488 197.992 25.9258 199.258 24.641C200.521 23.3582 202.025 22.3613 203.768 21.6522C205.51 20.9431 207.416 20.5885 209.486 20.5885C211.556 20.5885 213.461 20.9431 215.203 21.6522C216.945 22.3613 218.449 23.3582 219.715 24.641C220.979 25.9258 221.964 27.4469 222.675 29.2102C223.384 30.9734 223.739 32.8872 223.739 34.9573C223.739 35.2261 223.729 35.4853 223.71 35.7331C223.691 35.9828 223.643 36.2993 223.567 36.6805H201.673C202.018 38.6343 202.87 40.1764 204.231 41.3068C205.59 42.4372 207.344 43.0014 209.488 43.0014C210.942 43.0014 212.237 42.7345 213.367 42.197C214.498 41.6613 215.407 40.876 216.097 39.8409H222.993C222.534 41.2973 221.882 42.6087 221.04 43.7772C220.197 44.9457 219.191 45.9426 218.022 46.7661C216.854 47.5896 215.552 48.2224 214.114 48.6628C212.677 49.1031 211.135 49.3242 209.488 49.3242C207.42 49.3242 205.514 48.9697 203.77 48.2606C202.025 47.5515 200.523 46.566 199.259 45.3003C197.996 44.0365 197.008 42.5229 196.299 40.7597C195.59 38.9984 195.236 37.0636 195.236 34.9554L195.234 34.9573ZM217.012 32.0847C216.474 30.4759 215.555 29.2121 214.254 28.2914C212.952 27.3726 211.36 26.9113 209.484 26.9113C207.609 26.9113 205.96 27.3707 204.658 28.2914C203.356 29.2102 202.454 30.4759 201.957 32.0847H217.012Z" fill="#065084"/>
<path d="M241.548 26.9134C240.399 26.9134 239.335 27.1154 238.359 27.5176C237.383 27.9199 236.539 28.486 235.831 29.2122C235.122 29.9404 234.556 30.7925 234.137 31.7703C233.716 32.7463 233.504 33.81 233.504 34.9594C233.504 36.1088 233.714 37.1725 234.137 38.1484C234.558 39.1263 235.122 39.9688 235.831 40.676C236.541 41.3851 237.383 41.9494 238.359 42.3706C239.335 42.7919 240.399 43.0035 241.548 43.0035C243.271 43.0035 244.794 42.5631 246.117 41.6825C247.438 40.8018 248.199 40.2357 248.961 38.787H255.57C255.092 40.535 254.623 41.2803 253.759 42.6585C252.898 44.0366 251.853 45.2146 250.627 46.1925C249.4 47.1704 248.012 47.9367 246.46 48.4914C244.909 49.0461 243.271 49.3244 241.546 49.3244C239.554 49.3244 237.677 48.9508 235.915 48.2035C234.152 47.4563 232.629 46.4422 231.346 45.1575C230.061 43.8746 229.047 42.3516 228.3 40.5883C227.553 38.827 227.179 36.9494 227.179 34.9575C227.179 32.9655 227.553 31.0403 228.3 29.298C229.047 27.5558 230.061 26.0327 231.346 24.7289C232.629 23.427 234.152 22.411 235.915 21.6828C237.677 20.9547 239.554 20.5906 241.546 20.5906C243.269 20.5906 244.909 20.8689 246.46 21.4236C248.012 21.9802 249.4 22.7446 250.627 23.7224C251.853 24.6984 252.932 25.8554 253.759 27.2565C254.394 28.3316 254.884 29.0559 255.57 31.2519H248.961C248.447 30.0796 247.438 29.115 246.117 28.2325C244.796 27.3518 243.273 26.9115 241.548 26.9115V26.9134Z" fill="#065084"/>
<path d="M40.5964 39.048L39.8816 39.7648L38.8942 40.7522L37.9068 41.7396L22.7012 56.9452L20.795 58.8495L2.50901 40.5616C-0.836338 37.2162 -0.836338 31.7969 2.50901 28.4535L21.0333 9.9292L22.6974 11.5933L37.903 26.7989L40.5964 29.4924C43.2365 32.1324 43.2365 36.4118 40.5964 39.0519V39.048Z" fill="url(#paint0_linear_235_383)"/>
<path d="M43.1298 40.8247C44.8777 39.0767 45.8423 36.7493 45.8423 34.2712C45.8423 31.7932 44.8777 29.4657 43.126 27.7139L28.8772 13.4652L30.4803 11.8583C31.6774 10.6612 33.2443 10.0608 34.8188 10.0608C36.3933 10.0608 37.9564 10.6612 39.1535 11.8583L41.3837 14.0924L55.1768 27.8836L56.0727 28.7795L56.9686 29.6773L57.6206 30.3292C60.0166 32.7234 60.0166 36.6044 57.6206 38.9985L56.9725 39.6505L56.0766 40.5464L55.1806 41.4442L41.3856 55.2354L39.1516 57.4656C37.9545 58.6646 36.3838 59.2651 34.8169 59.2651C33.25 59.2651 31.6755 58.6646 30.4784 57.4656L28.4865 55.4737L40.5145 43.4457L41.4733 42.485L42.4321 41.5261L43.1279 40.8266L43.1298 40.8247Z" fill="url(#paint1_linear_235_383)"/>
<path d="M66.9589 40.5826L66.0516 41.4957L64.7935 42.75L63.5354 44.008L44.1915 63.352L41.0558 66.48C39.3784 68.1613 37.1787 69 34.9751 69C32.7716 69 30.5699 68.1613 28.8925 66.48L23.3531 60.9407L26.1076 58.1862L28.17 60.2506C29.9009 61.9795 32.1997 62.9326 34.6453 62.9326C37.091 62.9326 39.3879 61.9776 41.1187 60.2506L57.7025 43.6668L58.6327 42.7404L59.5591 41.8102L60.2339 41.1335C61.959 39.4084 62.9102 37.1134 62.9102 34.6658C62.9102 32.2183 61.959 29.9213 60.2301 28.1924L59.5553 27.5196L58.6289 26.5931L57.6987 25.6667L43.4271 11.3913L41.1187 9.08296C39.3879 7.35215 37.0891 6.40096 34.6453 6.40096C32.2016 6.40096 29.9009 7.35215 28.17 9.08296L26.5098 10.7432L23.5895 7.82297L28.8925 2.51997C30.5699 0.842533 32.7697 0 34.9751 0C37.1806 0 39.3765 0.842533 41.0558 2.51997L44.1877 5.64801L63.5316 24.992L64.7897 26.25L66.044 27.5081L66.9571 28.4193C70.3138 31.7799 70.3138 37.222 66.9571 40.5826H66.9589Z" fill="url(#paint2_linear_235_383)"/>
<defs>
<linearGradient id="paint0_linear_235_383" x1="-2.23357" y1="34.7572" x2="50.8612" y2="33.909" gradientUnits="userSpaceOnUse">
<stop stop-color="#065084"/>
<stop offset="1" stop-color="#497D74"/>
</linearGradient>
<linearGradient id="paint1_linear_235_383" x1="-2.22595" y1="35.2548" x2="50.8689" y2="34.4066" gradientUnits="userSpaceOnUse">
<stop stop-color="#065084"/>
<stop offset="1" stop-color="#497D74"/>
</linearGradient>
<linearGradient id="paint2_linear_235_383" x1="-2.22785" y1="35.0947" x2="50.867" y2="34.2484" gradientUnits="userSpaceOnUse">
<stop stop-color="#065084"/>
<stop offset="1" stop-color="#497D74"/>
</linearGradient>
</defs>
</svg>
