<svg width="188" height="188" viewBox="0 0 188 188" fill="none" xmlns="http://www.w3.org/2000/svg">
<g clip-path="url(#clip0_143_657)">
<path d="M188 94C188 145.91 145.92 188 94 188C42.08 188 0 145.92 0 94C0 42.08 42.09 0 94 0C145.91 0 188 42.08 188 94Z" fill="#029383"/>
<mask id="mask0_143_657" style="mask-type:luminance" maskUnits="userSpaceOnUse" x="0" y="0" width="188" height="188">
<path d="M188 94C188 145.91 145.92 188 94 188C42.08 188 0 145.92 0 94C0 42.08 42.09 0 94 0C145.91 0 188 42.08 188 94Z" fill="white"/>
</mask>
<g mask="url(#mask0_143_657)">
<path d="M130.08 18.9199L286.52 83.6899L189.37 223.09L35.96 154.04L134.59 27.5099L130.08 18.9199Z" fill="#026E6A"/>
<path d="M126.58 62.0501L146.8 36.8801L150.12 39.5601L152.34 36.8001L141.21 27.8501L87.8801 93.4601L94.1201 98.4801L94.2601 98.3101L99.6101 102.6L100.49 101.51L95.1401 97.2101L96.2201 95.8701L101.56 100.17L102.44 99.0701L97.1001 94.7801L98.1801 93.4401L103.52 97.7301L104.4 96.6301L99.0601 92.3401L100.13 91.0001L105.47 95.2901L106.36 94.2001L101.01 89.9101L102.09 88.5701L107.43 92.8601L108.31 91.7601L102.97 87.4701L104.05 86.1301L109.39 90.4201L110.02 89.6301L98.8201 80.6301L99.9001 79.2901L111.1 88.2901L111.79 87.4401L106.44 83.1501L107.52 81.8101L112.86 86.1001L113.74 85.0001L108.4 80.7101L109.48 79.3701L114.82 83.6701L115.7 82.5701L110.36 78.2801L111.43 76.9401L116.78 81.2301L117.66 80.1301L112.31 75.8401L113.39 74.5001L118.73 78.7901L119.61 77.7001L114.27 73.4001L115.35 72.0701L120.69 76.3601L121.57 75.2601L116.23 70.9701L117.3 69.6301L122.65 73.9201L127.67 67.6701L131.99 71.1501L134.31 68.2601L126.58 62.0501Z" fill="#CCCCCC"/>
<path d="M141.21 27.8499L130.1 18.9199L127.88 21.6899L131.21 24.3599L110.99 49.5299L103.25 43.3099L100.94 46.1999L105.26 49.6699L70.3101 93.1699L87.8801 93.4599L141.21 27.8499Z" fill="white"/>
<path d="M97.7901 104.85L98.5301 103.94L107.02 93.3799L87.8801 93.4599L48.4901 141.92L48.3501 142.09L60.2101 151.63L60.3501 151.45L70.1001 139.32L58.9001 130.31L59.9801 128.97L71.1801 137.98L72.0101 136.94L66.6701 132.65L67.7501 131.31L73.0901 135.6L73.9701 134.51L68.6301 130.21L69.7001 128.87L75.0501 133.17L75.9301 132.07L70.5901 127.78L71.6601 126.44L77.0001 130.73L77.8801 129.63L72.5401 125.34L73.6201 124L78.9601 128.3L79.8401 127.2L74.5001 122.91L75.5701 121.57L80.9201 125.86L81.8001 124.76L76.4501 120.47L77.5301 119.13L82.8701 123.42L83.4101 122.76L72.2101 113.75L73.2801 112.41L84.4901 121.42L85.2701 120.44L79.9301 116.15L81.0001 114.81L86.3501 119.1L87.2301 118L81.8801 113.71L82.9601 112.37L88.3001 116.67L89.1801 115.57L83.8401 111.28L84.9201 109.94L90.2601 114.23L91.1401 113.13L85.8001 108.84L86.8801 107.5L92.2201 111.8L93.1001 110.7L87.7601 106.41L88.8301 105.07L94.1801 109.36L95.0501 108.26L89.7101 103.97L90.7901 102.63L96.1301 106.92L96.7201 106.19L85.5201 97.1899L86.5901 95.8499L97.7901 104.85Z" fill="#B64457"/>
<path d="M70.3101 93.1699L37.9501 133.45L37.8101 133.62L48.3501 142.09L48.4901 141.92L87.8801 93.4599L70.3101 93.1699Z" fill="#F57C90"/>
<path d="M59.9779 128.976L58.9006 130.317L70.1029 139.317L71.1802 137.976L59.9779 128.976Z" fill="#999999"/>
<path d="M67.7501 131.301L66.6726 132.642L72.0118 136.933L73.0894 135.592L67.7501 131.301Z" fill="#999999"/>
<path d="M69.7045 128.874L68.6274 130.215L73.976 134.511L75.053 133.17L69.7045 128.874Z" fill="#999999"/>
<path d="M71.6574 126.437L70.5801 127.778L75.92 132.069L76.9973 130.728L71.6574 126.437Z" fill="#999999"/>
<path d="M73.6129 124.011L72.5356 125.352L77.8756 129.642L78.9529 128.302L73.6129 124.011Z" fill="#999999"/>
<path d="M75.5836 121.556L74.5061 122.897L79.8453 127.188L80.9228 125.848L75.5836 121.556Z" fill="#999999"/>
<path d="M77.5253 119.143L76.448 120.484L81.788 124.774L82.8653 123.433L77.5253 119.143Z" fill="#999999"/>
<path d="M81.0062 114.809L79.9287 116.149L85.2679 120.441L86.3455 119.1L81.0062 114.809Z" fill="#999999"/>
<path d="M82.9628 112.368L81.8855 113.709L87.2333 118.006L88.3105 116.665L82.9628 112.368Z" fill="#999999"/>
<path d="M84.9198 109.945L83.842 111.285L89.1805 115.577L90.2583 114.237L84.9198 109.945Z" fill="#999999"/>
<path d="M86.8747 107.505L85.7976 108.846L91.1383 113.136L92.2154 111.795L86.8747 107.505Z" fill="#999999"/>
<path d="M88.8385 105.05L87.7612 106.391L93.1012 110.681L94.1785 109.34L88.8385 105.05Z" fill="#999999"/>
<path d="M90.7877 102.622L89.7104 103.962L95.0504 108.253L96.1277 106.912L90.7877 102.622Z" fill="#999999"/>
<path d="M94.1201 98.4801L99.4701 102.77L99.6101 102.6L94.2601 98.3101L94.1201 98.4801Z" fill="#999999"/>
<path d="M94.1218 98.4773L93.1821 99.6465L98.5213 103.938L99.461 102.769L94.1218 98.4773Z" fill="#999999"/>
<path d="M96.2189 95.8642L95.1416 97.2051L100.482 101.495L101.559 100.155L96.2189 95.8642Z" fill="#999999"/>
<path d="M98.1759 93.4382L97.0984 94.7788L102.438 99.0701L103.515 97.7295L98.1759 93.4382Z" fill="#999999"/>
<path d="M100.138 90.9883L99.0605 92.3291L104.401 96.6195L105.478 95.2786L100.138 90.9883Z" fill="#999999"/>
<path d="M102.095 88.5762L101.018 89.917L106.358 94.2074L107.435 92.8665L102.095 88.5762Z" fill="#999999"/>
<path d="M104.05 86.1401L102.973 87.481L108.313 91.7713L109.39 90.4305L104.05 86.1401Z" fill="#999999"/>
<path d="M107.52 81.8162L106.443 83.1572L111.784 87.4467L112.861 86.1056L107.52 81.8162Z" fill="#999999"/>
<path d="M109.472 79.3633L108.394 80.7041L113.734 84.9945L114.812 83.6536L109.472 79.3633Z" fill="#999999"/>
<path d="M111.437 76.9402L110.36 78.2812L115.701 82.5707L116.778 81.2297L111.437 76.9402Z" fill="#999999"/>
<path d="M113.384 74.4946L112.307 75.8354L117.647 80.1258L118.724 78.785L113.384 74.4946Z" fill="#999999"/>
<path d="M114.27 73.3998L119.61 77.6998L120.69 76.3598L115.35 72.0698L114.27 73.3998Z" fill="#999999"/>
<path d="M117.313 69.6387L116.235 70.9795L121.583 75.2761L122.66 73.9353L117.313 69.6387Z" fill="#999999"/>
<path d="M73.286 112.405L72.209 113.746L83.4128 122.744L84.4898 121.403L73.286 112.405Z" fill="#999999"/>
<path d="M86.5941 95.8532L85.5166 97.1938L96.7173 106.196L97.7948 104.856L86.5941 95.8532Z" fill="#999999"/>
<path d="M99.8986 79.2922L98.821 80.6328L110.022 89.6352L111.099 88.2945L99.8986 79.2922Z" fill="#999999"/>
<path d="M41.1365 136.295L30.4387 149.61L33.1984 151.827L43.8961 138.512L41.1365 136.295Z" fill="white"/>
<path d="M43.8934 138.499L33.2026 151.819L35.9634 154.035L46.6542 140.715L43.8934 138.499Z" fill="#CCCCCC"/>
</g>
</g>
<defs>
<clipPath id="clip0_143_657">
<rect width="188" height="188" fill="white"/>
</clipPath>
</defs>
</svg>
