<svg width="272" height="92" viewBox="0 0 272 92" fill="none" xmlns="http://www.w3.org/2000/svg">
<rect width="272" height="92" rx="29" fill="#054F85"/>
<path d="M91.7614 40V25.4545H100.54V27.017H93.5227V31.9318H100.085V33.4943H93.5227V38.4375H100.653V40H91.7614ZM105.163 33.4375V40H103.487V29.0909H105.107V30.7955H105.249C105.504 30.2415 105.893 29.7964 106.413 29.4602C106.934 29.1193 107.607 28.9489 108.43 28.9489C109.169 28.9489 109.815 29.1004 110.369 29.4034C110.923 29.7017 111.354 30.1562 111.662 30.767C111.97 31.3731 112.124 32.1402 112.124 33.0682V40H110.447V33.1818C110.447 32.3248 110.225 31.6572 109.78 31.179C109.335 30.696 108.724 30.4545 107.947 30.4545C107.412 30.4545 106.934 30.5705 106.513 30.8026C106.096 31.0346 105.767 31.3731 105.526 31.8182C105.284 32.2633 105.163 32.803 105.163 33.4375ZM119.931 29.0909V30.5114H114.277V29.0909H119.931ZM115.925 26.4773H117.601V36.875C117.601 37.3485 117.67 37.7036 117.807 37.9403C117.949 38.1723 118.129 38.3286 118.347 38.4091C118.569 38.4848 118.804 38.5227 119.05 38.5227C119.235 38.5227 119.386 38.5133 119.505 38.4943C119.623 38.4706 119.718 38.4517 119.789 38.4375L120.13 39.9432C120.016 39.9858 119.857 40.0284 119.654 40.071C119.45 40.1184 119.192 40.142 118.88 40.142C118.406 40.142 117.942 40.0402 117.488 39.8366C117.038 39.633 116.664 39.3229 116.365 38.9062C116.072 38.4896 115.925 37.964 115.925 37.3295V26.4773ZM122.452 40V29.0909H124.071V30.7386H124.185C124.384 30.1989 124.744 29.7609 125.265 29.4247C125.785 29.0885 126.373 28.9205 127.026 28.9205C127.149 28.9205 127.303 28.9228 127.488 28.9276C127.672 28.9323 127.812 28.9394 127.907 28.9489V30.6534C127.85 30.6392 127.72 30.6179 127.516 30.5895C127.317 30.5563 127.106 30.5398 126.884 30.5398C126.354 30.5398 125.88 30.651 125.463 30.8736C125.051 31.0914 124.725 31.3944 124.483 31.7827C124.247 32.1662 124.128 32.6042 124.128 33.0966V40H122.452ZM134.135 40.2273C133.084 40.2273 132.177 39.9953 131.415 39.5312C130.658 39.0625 130.073 38.4091 129.661 37.571C129.254 36.7282 129.05 35.7481 129.05 34.6307C129.05 33.5133 129.254 32.5284 129.661 31.6761C130.073 30.8191 130.646 30.1515 131.38 29.6733C132.118 29.1903 132.98 28.9489 133.965 28.9489C134.533 28.9489 135.094 29.0436 135.648 29.233C136.202 29.4223 136.706 29.7301 137.161 30.1562C137.615 30.5777 137.978 31.1364 138.248 31.8324C138.517 32.5284 138.652 33.3854 138.652 34.4034V35.1136H130.243V33.6648H136.948C136.948 33.0492 136.825 32.5 136.578 32.017C136.337 31.5341 135.991 31.1529 135.542 30.8736C135.096 30.5942 134.571 30.4545 133.965 30.4545C133.297 30.4545 132.72 30.6203 132.232 30.9517C131.749 31.2784 131.377 31.7045 131.117 32.2301C130.856 32.7557 130.726 33.3191 130.726 33.9205V34.8864C130.726 35.7102 130.868 36.4086 131.152 36.9815C131.441 37.5497 131.841 37.983 132.353 38.2812C132.864 38.5748 133.458 38.7216 134.135 38.7216C134.576 38.7216 134.973 38.66 135.328 38.5369C135.688 38.4091 135.998 38.2197 136.259 37.9688C136.519 37.7131 136.721 37.3958 136.863 37.017L138.482 37.4716C138.311 38.0208 138.025 38.5038 137.623 38.9205C137.22 39.3324 136.723 39.6544 136.131 39.8864C135.539 40.1136 134.874 40.2273 134.135 40.2273ZM151.401 40.2273C150.35 40.2273 149.443 39.9953 148.681 39.5312C147.923 39.0625 147.338 38.4091 146.926 37.571C146.519 36.7282 146.316 35.7481 146.316 34.6307C146.316 33.5133 146.519 32.5284 146.926 31.6761C147.338 30.8191 147.911 30.1515 148.645 29.6733C149.384 29.1903 150.246 28.9489 151.23 28.9489C151.799 28.9489 152.36 29.0436 152.914 29.233C153.468 29.4223 153.972 29.7301 154.426 30.1562C154.881 30.5777 155.243 31.1364 155.513 31.8324C155.783 32.5284 155.918 33.3854 155.918 34.4034V35.1136H147.509V33.6648H154.213C154.213 33.0492 154.09 32.5 153.844 32.017C153.603 31.5341 153.257 31.1529 152.807 30.8736C152.362 30.5942 151.837 30.4545 151.23 30.4545C150.563 30.4545 149.985 30.6203 149.498 30.9517C149.015 31.2784 148.643 31.7045 148.382 32.2301C148.122 32.7557 147.992 33.3191 147.992 33.9205V34.8864C147.992 35.7102 148.134 36.4086 148.418 36.9815C148.707 37.5497 149.107 37.983 149.618 38.2812C150.13 38.5748 150.724 38.7216 151.401 38.7216C151.841 38.7216 152.239 38.66 152.594 38.5369C152.954 38.4091 153.264 38.2197 153.525 37.9688C153.785 37.7131 153.986 37.3958 154.128 37.017L155.748 37.4716C155.577 38.0208 155.291 38.5038 154.888 38.9205C154.486 39.3324 153.989 39.6544 153.397 39.8864C152.805 40.1136 152.14 40.2273 151.401 40.2273ZM158.468 40V29.0909H160.087V30.7955H160.229C160.456 30.2131 160.823 29.7609 161.33 29.4389C161.837 29.1122 162.445 28.9489 163.155 28.9489C163.875 28.9489 164.474 29.1122 164.952 29.4389C165.435 29.7609 165.811 30.2131 166.081 30.7955H166.195C166.474 30.232 166.893 29.7846 167.452 29.4531C168.011 29.117 168.681 28.9489 169.462 28.9489C170.437 28.9489 171.235 29.2543 171.855 29.8651C172.476 30.4711 172.786 31.4157 172.786 32.6989V40H171.11V32.6989C171.11 31.8939 170.89 31.3187 170.449 30.973C170.009 30.6274 169.49 30.4545 168.894 30.4545C168.127 30.4545 167.533 30.6866 167.111 31.1506C166.69 31.6098 166.479 32.1922 166.479 32.8977V40H164.775V32.5284C164.775 31.9081 164.573 31.4086 164.171 31.0298C163.768 30.6463 163.25 30.4545 162.615 30.4545C162.18 30.4545 161.773 30.5705 161.394 30.8026C161.02 31.0346 160.717 31.3565 160.485 31.7685C160.257 32.1757 160.144 32.6468 160.144 33.1818V40H158.468ZM185.907 40.2273C184.885 40.2273 184.004 39.9858 183.265 39.5028C182.527 39.0199 181.958 38.3546 181.561 37.5071C181.163 36.6596 180.964 35.6913 180.964 34.6023C180.964 33.4943 181.168 32.5166 181.575 31.669C181.987 30.8168 182.56 30.1515 183.294 29.6733C184.032 29.1903 184.894 28.9489 185.879 28.9489C186.646 28.9489 187.337 29.0909 187.953 29.375C188.568 29.6591 189.073 30.0568 189.466 30.5682C189.859 31.0795 190.102 31.6761 190.197 32.358H188.521C188.393 31.8608 188.109 31.4205 187.669 31.0369C187.233 30.6487 186.646 30.4545 185.907 30.4545C185.254 30.4545 184.681 30.625 184.189 30.9659C183.701 31.3021 183.32 31.7779 183.045 32.3935C182.775 33.0043 182.64 33.7216 182.64 34.5455C182.64 35.3883 182.773 36.1222 183.038 36.7472C183.308 37.3722 183.687 37.8575 184.174 38.2031C184.667 38.5488 185.244 38.7216 185.907 38.7216C186.343 38.7216 186.738 38.6458 187.093 38.4943C187.449 38.3428 187.749 38.125 187.995 37.8409C188.242 37.5568 188.417 37.2159 188.521 36.8182H190.197C190.102 37.4621 189.868 38.0421 189.494 38.5582C189.125 39.0696 188.635 39.4768 188.024 39.7798C187.418 40.0781 186.712 40.2273 185.907 40.2273ZM197.079 40.2273C196.094 40.2273 195.23 39.9929 194.487 39.5241C193.748 39.0554 193.171 38.3996 192.754 37.5568C192.342 36.714 192.136 35.7292 192.136 34.6023C192.136 33.4659 192.342 32.474 192.754 31.6264C193.171 30.7789 193.748 30.1207 194.487 29.652C195.23 29.1832 196.094 28.9489 197.079 28.9489C198.064 28.9489 198.926 29.1832 199.664 29.652C200.408 30.1207 200.985 30.7789 201.397 31.6264C201.814 32.474 202.022 33.4659 202.022 34.6023C202.022 35.7292 201.814 36.714 201.397 37.5568C200.985 38.3996 200.408 39.0554 199.664 39.5241C198.926 39.9929 198.064 40.2273 197.079 40.2273ZM197.079 38.7216C197.827 38.7216 198.443 38.5298 198.926 38.1463C199.409 37.7628 199.766 37.2585 199.998 36.6335C200.23 36.0085 200.346 35.3314 200.346 34.6023C200.346 33.8731 200.23 33.1937 199.998 32.5639C199.766 31.9342 199.409 31.4252 198.926 31.0369C198.443 30.6487 197.827 30.4545 197.079 30.4545C196.331 30.4545 195.716 30.6487 195.233 31.0369C194.75 31.4252 194.392 31.9342 194.16 32.5639C193.928 33.1937 193.812 33.8731 193.812 34.6023C193.812 35.3314 193.928 36.0085 194.16 36.6335C194.392 37.2585 194.75 37.7628 195.233 38.1463C195.716 38.5298 196.331 38.7216 197.079 38.7216ZM206.257 33.4375V40H204.581V29.0909H206.2V30.7955H206.342C206.598 30.2415 206.986 29.7964 207.507 29.4602C208.028 29.1193 208.7 28.9489 209.524 28.9489C210.263 28.9489 210.909 29.1004 211.463 29.4034C212.017 29.7017 212.448 30.1562 212.756 30.767C213.063 31.3731 213.217 32.1402 213.217 33.0682V40H211.541V33.1818C211.541 32.3248 211.319 31.6572 210.874 31.179C210.429 30.696 209.818 30.4545 209.041 30.4545C208.506 30.4545 208.028 30.5705 207.607 30.8026C207.19 31.0346 206.861 31.3731 206.619 31.8182C206.378 32.2633 206.257 32.803 206.257 33.4375ZM221.025 29.0909V30.5114H215.371V29.0909H221.025ZM217.019 26.4773H218.695V36.875C218.695 37.3485 218.764 37.7036 218.901 37.9403C219.043 38.1723 219.223 38.3286 219.441 38.4091C219.663 38.4848 219.898 38.5227 220.144 38.5227C220.328 38.5227 220.48 38.5133 220.598 38.4943C220.717 38.4706 220.811 38.4517 220.882 38.4375L221.223 39.9432C221.11 39.9858 220.951 40.0284 220.748 40.071C220.544 40.1184 220.286 40.142 219.973 40.142C219.5 40.142 219.036 40.0402 218.581 39.8366C218.132 39.633 217.757 39.3229 217.459 38.9062C217.166 38.4896 217.019 37.964 217.019 37.3295V26.4773ZM226.756 40.2557C226.065 40.2557 225.437 40.1255 224.874 39.8651C224.31 39.5999 223.863 39.2188 223.532 38.7216C223.2 38.2197 223.034 37.6136 223.034 36.9034C223.034 36.2784 223.158 35.7718 223.404 35.3835C223.65 34.9905 223.979 34.6828 224.391 34.4602C224.803 34.2377 225.257 34.072 225.755 33.9631C226.257 33.8494 226.761 33.7595 227.267 33.6932C227.93 33.608 228.468 33.544 228.88 33.5014C229.296 33.4541 229.599 33.3759 229.789 33.267C229.983 33.1581 230.08 32.9687 230.08 32.6989V32.642C230.08 31.9413 229.888 31.3968 229.505 31.0085C229.126 30.6203 228.551 30.4261 227.779 30.4261C226.979 30.4261 226.351 30.6013 225.897 30.9517C225.442 31.3021 225.123 31.6761 224.938 32.0739L223.347 31.5057C223.631 30.8428 224.01 30.3267 224.483 29.9574C224.962 29.5833 225.482 29.3229 226.046 29.1761C226.614 29.0246 227.173 28.9489 227.722 28.9489C228.072 28.9489 228.475 28.9915 228.929 29.0767C229.389 29.1572 229.831 29.3253 230.257 29.581C230.688 29.8366 231.046 30.2225 231.33 30.7386C231.614 31.2547 231.756 31.946 231.756 32.8125V40H230.08V38.5227H229.995C229.881 38.7595 229.692 39.0128 229.426 39.2827C229.161 39.5526 228.809 39.7822 228.368 39.9716C227.928 40.161 227.391 40.2557 226.756 40.2557ZM227.012 38.75C227.675 38.75 228.233 38.6198 228.688 38.3594C229.147 38.099 229.493 37.7628 229.725 37.3509C229.962 36.9389 230.08 36.5057 230.08 36.0511V34.517C230.009 34.6023 229.853 34.6804 229.611 34.7514C229.374 34.8177 229.1 34.8769 228.787 34.929C228.48 34.9763 228.179 35.0189 227.885 35.0568C227.596 35.09 227.362 35.1184 227.182 35.142C226.747 35.1989 226.339 35.2912 225.961 35.419C225.587 35.5421 225.283 35.7292 225.051 35.9801C224.824 36.2263 224.711 36.5625 224.711 36.9886C224.711 37.571 224.926 38.0114 225.357 38.3097C225.792 38.6032 226.344 38.75 227.012 38.75ZM239.56 29.0909V30.5114H233.906V29.0909H239.56ZM235.554 26.4773H237.23V36.875C237.23 37.3485 237.299 37.7036 237.436 37.9403C237.578 38.1723 237.758 38.3286 237.976 38.4091C238.198 38.4848 238.433 38.5227 238.679 38.5227C238.864 38.5227 239.015 38.5133 239.134 38.4943C239.252 38.4706 239.347 38.4517 239.418 38.4375L239.759 39.9432C239.645 39.9858 239.486 40.0284 239.283 40.071C239.079 40.1184 238.821 40.142 238.509 40.142C238.035 40.142 237.571 40.0402 237.116 39.8366C236.667 39.633 236.293 39.3229 235.994 38.9062C235.701 38.4896 235.554 37.964 235.554 37.3295V26.4773ZM246.396 40.2273C245.411 40.2273 244.547 39.9929 243.803 39.5241C243.065 39.0554 242.487 38.3996 242.07 37.5568C241.658 36.714 241.452 35.7292 241.452 34.6023C241.452 33.4659 241.658 32.474 242.07 31.6264C242.487 30.7789 243.065 30.1207 243.803 29.652C244.547 29.1832 245.411 28.9489 246.396 28.9489C247.38 28.9489 248.242 29.1832 248.981 29.652C249.724 30.1207 250.302 30.7789 250.714 31.6264C251.13 32.474 251.339 33.4659 251.339 34.6023C251.339 35.7292 251.13 36.714 250.714 37.5568C250.302 38.3996 249.724 39.0554 248.981 39.5241C248.242 39.9929 247.38 40.2273 246.396 40.2273ZM246.396 38.7216C247.144 38.7216 247.759 38.5298 248.242 38.1463C248.725 37.7628 249.083 37.2585 249.315 36.6335C249.547 36.0085 249.663 35.3314 249.663 34.6023C249.663 33.8731 249.547 33.1937 249.315 32.5639C249.083 31.9342 248.725 31.4252 248.242 31.0369C247.759 30.6487 247.144 30.4545 246.396 30.4545C245.647 30.4545 245.032 30.6487 244.549 31.0369C244.066 31.4252 243.709 31.9342 243.477 32.5639C243.245 33.1937 243.129 33.8731 243.129 34.6023C243.129 35.3314 243.245 36.0085 243.477 36.6335C243.709 37.2585 244.066 37.7628 244.549 38.1463C245.032 38.5298 245.647 38.7216 246.396 38.7216ZM100.455 53.0909L96.4205 64H94.7159L90.6818 53.0909H92.5L95.5114 61.7841H95.625L98.6364 53.0909H100.455ZM102.667 64V53.0909H104.343V64H102.667ZM103.519 51.2727C103.192 51.2727 102.911 51.1615 102.674 50.9389C102.442 50.7164 102.326 50.4489 102.326 50.1364C102.326 49.8239 102.442 49.5563 102.674 49.3338C102.911 49.1113 103.192 49 103.519 49C103.846 49 104.125 49.1113 104.357 49.3338C104.594 49.5563 104.712 49.8239 104.712 50.1364C104.712 50.4489 104.594 50.7164 104.357 50.9389C104.125 51.1615 103.846 51.2727 103.519 51.2727ZM110.623 64.2557C109.932 64.2557 109.305 64.1255 108.741 63.8651C108.178 63.5999 107.73 63.2188 107.399 62.7216C107.067 62.2197 106.902 61.6136 106.902 60.9034C106.902 60.2784 107.025 59.7718 107.271 59.3835C107.517 58.9905 107.846 58.6828 108.258 58.4602C108.67 58.2377 109.125 58.072 109.622 57.9631C110.124 57.8494 110.628 57.7595 111.135 57.6932C111.797 57.608 112.335 57.544 112.747 57.5014C113.163 57.4541 113.467 57.3759 113.656 57.267C113.85 57.1581 113.947 56.9687 113.947 56.6989V56.642C113.947 55.9413 113.755 55.3968 113.372 55.0085C112.993 54.6203 112.418 54.4261 111.646 54.4261C110.846 54.4261 110.218 54.6013 109.764 54.9517C109.309 55.3021 108.99 55.6761 108.805 56.0739L107.214 55.5057C107.498 54.8428 107.877 54.3267 108.35 53.9574C108.829 53.5833 109.35 53.3229 109.913 53.1761C110.481 53.0246 111.04 52.9489 111.589 52.9489C111.94 52.9489 112.342 52.9915 112.797 53.0767C113.256 53.1572 113.699 53.3253 114.125 53.581C114.556 53.8366 114.913 54.2225 115.197 54.7386C115.481 55.2547 115.623 55.946 115.623 56.8125V64H113.947V62.5227H113.862C113.748 62.7595 113.559 63.0128 113.294 63.2827C113.029 63.5526 112.676 63.7822 112.235 63.9716C111.795 64.161 111.258 64.2557 110.623 64.2557ZM110.879 62.75C111.542 62.75 112.1 62.6198 112.555 62.3594C113.014 62.099 113.36 61.7628 113.592 61.3509C113.829 60.9389 113.947 60.5057 113.947 60.0511V58.517C113.876 58.6023 113.72 58.6804 113.478 58.7514C113.242 58.8177 112.967 58.8769 112.654 58.929C112.347 58.9763 112.046 59.0189 111.752 59.0568C111.464 59.09 111.229 59.1184 111.049 59.142C110.614 59.1989 110.207 59.2912 109.828 59.419C109.454 59.5421 109.151 59.7292 108.919 59.9801C108.691 60.2263 108.578 60.5625 108.578 60.9886C108.578 61.571 108.793 62.0114 109.224 62.3097C109.66 62.6032 110.211 62.75 110.879 62.75ZM127.177 64L123.2 49.4545H124.989L128.029 61.3011H128.171L131.268 49.4545H133.256L136.353 61.3011H136.495L139.535 49.4545H141.325L137.347 64H135.529L132.319 52.4091H132.205L128.995 64H127.177ZM144.968 57.4375V64H143.292V49.4545H144.968V54.7955H145.11C145.366 54.232 145.749 53.7846 146.261 53.4531C146.777 53.117 147.463 52.9489 148.32 52.9489C149.064 52.9489 149.715 53.098 150.273 53.3963C150.832 53.6899 151.265 54.142 151.573 54.7528C151.886 55.3589 152.042 56.1307 152.042 57.0682V64H150.366V57.1818C150.366 56.3153 150.141 55.6454 149.691 55.1719C149.246 54.6937 148.628 54.4545 147.837 54.4545C147.288 54.4545 146.796 54.5705 146.36 54.8026C145.929 55.0346 145.588 55.3731 145.337 55.8182C145.091 56.2633 144.968 56.803 144.968 57.4375ZM158.319 64.2557C157.627 64.2557 157 64.1255 156.436 63.8651C155.873 63.5999 155.426 63.2188 155.094 62.7216C154.763 62.2197 154.597 61.6136 154.597 60.9034C154.597 60.2784 154.72 59.7718 154.966 59.3835C155.212 58.9905 155.542 58.6828 155.953 58.4602C156.365 58.2377 156.82 58.072 157.317 57.9631C157.819 57.8494 158.323 57.7595 158.83 57.6932C159.493 57.608 160.03 57.544 160.442 57.5014C160.859 57.4541 161.162 57.3759 161.351 57.267C161.545 57.1581 161.642 56.9687 161.642 56.6989V56.642C161.642 55.9413 161.451 55.3968 161.067 55.0085C160.688 54.6203 160.113 54.4261 159.341 54.4261C158.541 54.4261 157.914 54.6013 157.459 54.9517C157.005 55.3021 156.685 55.6761 156.5 56.0739L154.909 55.5057C155.194 54.8428 155.572 54.3267 156.046 53.9574C156.524 53.5833 157.045 53.3229 157.608 53.1761C158.176 53.0246 158.735 52.9489 159.284 52.9489C159.635 52.9489 160.037 52.9915 160.492 53.0767C160.951 53.1572 161.394 53.3253 161.82 53.581C162.251 53.8366 162.608 54.2225 162.892 54.7386C163.176 55.2547 163.319 55.946 163.319 56.8125V64H161.642V62.5227H161.557C161.444 62.7595 161.254 63.0128 160.989 63.2827C160.724 63.5526 160.371 63.7822 159.931 63.9716C159.49 64.161 158.953 64.2557 158.319 64.2557ZM158.574 62.75C159.237 62.75 159.796 62.6198 160.25 62.3594C160.71 62.099 161.055 61.7628 161.287 61.3509C161.524 60.9389 161.642 60.5057 161.642 60.0511V58.517C161.571 58.6023 161.415 58.6804 161.174 58.7514C160.937 58.8177 160.662 58.8769 160.35 58.929C160.042 58.9763 159.741 59.0189 159.448 59.0568C159.159 59.09 158.925 59.1184 158.745 59.142C158.309 59.1989 157.902 59.2912 157.523 59.419C157.149 59.5421 156.846 59.7292 156.614 59.9801C156.387 60.2263 156.273 60.5625 156.273 60.9886C156.273 61.571 156.489 62.0114 156.919 62.3097C157.355 62.6032 157.907 62.75 158.574 62.75ZM171.122 53.0909V54.5114H165.469V53.0909H171.122ZM167.116 50.4773H168.793V60.875C168.793 61.3485 168.861 61.7036 168.999 61.9403C169.141 62.1723 169.321 62.3286 169.538 62.4091C169.761 62.4848 169.995 62.5227 170.241 62.5227C170.426 62.5227 170.578 62.5133 170.696 62.4943C170.814 62.4706 170.909 62.4517 170.98 62.4375L171.321 63.9432C171.207 63.9858 171.049 64.0284 170.845 64.071C170.642 64.1184 170.384 64.142 170.071 64.142C169.598 64.142 169.134 64.0402 168.679 63.8366C168.229 63.633 167.855 63.3229 167.557 62.9062C167.263 62.4896 167.116 61.964 167.116 61.3295V50.4773ZM181.175 55.5341L179.67 55.9602C179.575 55.7093 179.435 55.4654 179.251 55.2287C179.071 54.9872 178.825 54.7884 178.512 54.6321C178.2 54.4759 177.799 54.3977 177.312 54.3977C176.644 54.3977 176.088 54.5516 175.643 54.8594C175.202 55.1624 174.982 55.5483 174.982 56.017C174.982 56.4337 175.134 56.7628 175.437 57.0043C175.74 57.2457 176.213 57.447 176.857 57.608L178.477 58.0057C179.452 58.2424 180.179 58.6046 180.657 59.0923C181.135 59.5753 181.374 60.1979 181.374 60.9602C181.374 61.5852 181.194 62.1439 180.835 62.6364C180.479 63.1288 179.982 63.517 179.343 63.8011C178.704 64.0852 177.96 64.2273 177.113 64.2273C176 64.2273 175.079 63.9858 174.35 63.5028C173.621 63.0199 173.159 62.3144 172.965 61.3864L174.556 60.9886C174.708 61.5758 174.994 62.0161 175.415 62.3097C175.842 62.6032 176.398 62.75 177.085 62.75C177.866 62.75 178.486 62.5843 178.945 62.2528C179.409 61.9167 179.641 61.5142 179.641 61.0455C179.641 60.6667 179.509 60.3494 179.244 60.0938C178.978 59.8333 178.571 59.6392 178.022 59.5114L176.204 59.0852C175.205 58.8485 174.471 58.4815 174.002 57.9844C173.538 57.4825 173.306 56.8551 173.306 56.1023C173.306 55.4867 173.479 54.9422 173.825 54.4688C174.175 53.9953 174.651 53.6236 175.252 53.3537C175.858 53.0838 176.545 52.9489 177.312 52.9489C178.391 52.9489 179.239 53.1856 179.854 53.6591C180.475 54.1326 180.915 54.7576 181.175 55.5341ZM184.721 64H182.875L188.216 49.4545H190.034L195.375 64H193.528L189.181 51.7557H189.068L184.721 64ZM185.403 58.3182H192.846V59.8807H185.403V58.3182ZM197.413 68.0909V53.0909H199.032V54.8239H199.231C199.354 54.6345 199.525 54.393 199.743 54.0994C199.965 53.8011 200.282 53.536 200.694 53.304C201.111 53.0672 201.674 52.9489 202.385 52.9489C203.303 52.9489 204.113 53.1785 204.814 53.6378C205.514 54.0971 206.061 54.7481 206.454 55.5909C206.847 56.4337 207.044 57.428 207.044 58.5739C207.044 59.7292 206.847 60.7306 206.454 61.5781C206.061 62.4209 205.517 63.0743 204.821 63.5384C204.125 63.9976 203.322 64.2273 202.413 64.2273C201.712 64.2273 201.151 64.1113 200.73 63.8793C200.308 63.6425 199.984 63.375 199.757 63.0767C199.529 62.7737 199.354 62.5227 199.231 62.3239H199.089V68.0909H197.413ZM199.061 58.5455C199.061 59.3693 199.181 60.0961 199.423 60.7259C199.664 61.3509 200.017 61.8409 200.481 62.196C200.945 62.5464 201.513 62.7216 202.186 62.7216C202.886 62.7216 203.471 62.5369 203.94 62.1676C204.413 61.7936 204.769 61.2917 205.005 60.6619C205.247 60.0275 205.368 59.322 205.368 58.5455C205.368 57.7784 205.249 57.0871 205.012 56.4716C204.78 55.8513 204.428 55.3613 203.954 55.0014C203.485 54.6368 202.896 54.4545 202.186 54.4545C201.504 54.4545 200.931 54.6274 200.467 54.973C200.003 55.3139 199.653 55.7921 199.416 56.4077C199.179 57.0185 199.061 57.7311 199.061 58.5455ZM209.6 68.0909V53.0909H211.22V54.8239H211.419C211.542 54.6345 211.712 54.393 211.93 54.0994C212.153 53.8011 212.47 53.536 212.882 53.304C213.298 53.0672 213.862 52.9489 214.572 52.9489C215.491 52.9489 216.3 53.1785 217.001 53.6378C217.702 54.0971 218.249 54.7481 218.642 55.5909C219.035 56.4337 219.231 57.428 219.231 58.5739C219.231 59.7292 219.035 60.7306 218.642 61.5781C218.249 62.4209 217.704 63.0743 217.008 63.5384C216.312 63.9976 215.51 64.2273 214.6 64.2273C213.9 64.2273 213.339 64.1113 212.917 63.8793C212.496 63.6425 212.172 63.375 211.944 63.0767C211.717 62.7737 211.542 62.5227 211.419 62.3239H211.277V68.0909H209.6ZM211.248 58.5455C211.248 59.3693 211.369 60.0961 211.61 60.7259C211.852 61.3509 212.205 61.8409 212.669 62.196C213.133 62.5464 213.701 62.7216 214.373 62.7216C215.074 62.7216 215.659 62.5369 216.127 62.1676C216.601 61.7936 216.956 61.2917 217.193 60.6619C217.434 60.0275 217.555 59.322 217.555 58.5455C217.555 57.7784 217.437 57.0871 217.2 56.4716C216.968 55.8513 216.615 55.3613 216.142 55.0014C215.673 54.6368 215.083 54.4545 214.373 54.4545C213.691 54.4545 213.118 54.6274 212.654 54.973C212.19 55.3139 211.84 55.7921 211.603 56.4077C211.367 57.0185 211.248 57.7311 211.248 58.5455Z" fill="white"/>
<g clip-path="url(#clip0_35_235)">
<path d="M51.0512 17L54.4721 17.4915C66.0065 19.6375 75.3669 28.9997 77.5163 40.5326L78.0085 43.9482V48.0273L77.5163 51.4429C75.3751 62.9757 66.0065 72.3379 54.4721 74.484L51.0512 74.9754C49.714 74.9181 48.303 75.0573 46.974 74.9754C35.3494 74.2546 24.8159 65.8671 21.3539 54.793C15.759 36.9122 28.1383 18.5563 46.6787 17.1065L46.8591 17H51.0512ZM32.1417 63.0822L41.2806 60.7314C53.6928 67.1858 67.8031 57.9874 66.9171 43.9973C66.3921 35.8064 59.1729 28.7212 51.0102 28.2052C36.9245 27.3042 27.7938 42.0233 34.611 54.2933L32.1499 63.0904L32.1417 63.0822Z" fill="#F6F6F6"/>
<path d="M36.3334 59.0032L37.6952 53.7446C32.7484 46.34 35.4392 36.1587 43.5445 32.4073C55.0952 27.0586 67.3843 38.1982 63.2907 50.2225C60.2718 59.0933 49.5906 62.6318 41.715 57.6353L36.3416 58.995L36.3334 59.0032ZM58.2701 49.5263C57.261 49.1168 56.2848 48.4533 55.2839 48.0438C54.8655 47.8717 54.201 47.5113 53.7744 47.7489C53.3889 47.9618 52.4372 49.8539 51.7727 49.9277C50.8785 50.026 47.7694 47.6833 47.0884 46.9544C46.7275 46.5694 45.4559 44.9394 45.3247 44.5216C45.0867 43.7435 46.7111 42.7115 46.7439 41.8678C46.2189 41.0241 45.5872 38.3211 44.9883 37.7314C44.4797 37.2317 42.9538 37.5102 42.4206 37.9525C37.5804 41.9087 44.7504 49.6574 48.3436 51.8198C49.5988 52.5733 52.0599 53.6709 53.4873 53.8102C56.1043 54.0559 58.9674 52.4832 58.2701 49.5345V49.5263Z" fill="#F6F6F6"/>
</g>
<defs>
<clipPath id="clip0_35_235">
<rect width="58" height="58" fill="white" transform="translate(20 17)"/>
</clipPath>
</defs>
</svg>
